<svg width="25" height="25" viewBox="0 0 25 25" fill="none" xmlns="http://www.w3.org/2000/svg">
<path d="M7.17405 2.08338H8.19891C8.76492 2.08338 9.22378 2.54975 9.22378 3.12505V4.16671H14.3481V3.12504C14.3481 2.54974 14.8069 2.08337 15.373 2.08337H16.3978C16.9639 2.08337 17.4227 2.54974 17.4227 3.12504V4.16671C19.1208 4.16671 20.4973 5.56582 20.4973 7.29171V18.75C20.4973 20.476 19.1208 21.875 17.4227 21.875H6.14918C4.45113 21.875 3.07458 20.476 3.07458 18.75V7.29171C3.07458 5.56582 4.45112 4.16671 6.14918 4.16671V3.12505C6.14918 2.54975 6.60802 2.08338 7.17405 2.08338ZM15.373 4.16671H16.3978V3.12503H15.373V4.16671ZM8.19891 4.16671V3.12504H7.17405V4.16671H8.19891ZM6.14918 5.20838C5.01715 5.20838 4.09945 6.14112 4.09945 7.29172V8.33338H19.4724V7.29172C19.4724 6.14112 18.5548 5.20838 17.4227 5.20838H6.14918ZM4.09945 18.75C4.09945 19.9007 5.01715 20.8334 6.14918 20.8334H17.4227C18.5548 20.8334 19.4724 19.9007 19.4724 18.75V9.37505H4.09945V18.75ZM12.2984 13.5417H17.4227V18.75H12.2984V13.5417ZM13.3232 14.5834V17.7084H16.3978V14.5834H13.3232Z" fill="#D4AF37"/>
</svg>
