<svg width="50" height="50" viewBox="0 0 50 50" fill="none" xmlns="http://www.w3.org/2000/svg">
<g clip-path="url(#clip0)">
<path d="M20.0979 24.2407C20.2627 24.3662 20.4705 24.4214 20.6759 24.394C20.8813 24.3667 21.0675 24.2591 21.1937 24.0948L22.2958 22.6542C22.3683 22.5593 22.4182 22.449 22.4415 22.3318C22.4648 22.2146 22.4609 22.0936 22.4302 21.9782C22.4302 21.9563 21.8458 19.7698 21.6562 18.5073C21.626 18.3084 21.6791 18.2542 21.7114 18.2219C21.9896 17.9375 23.0937 17.7115 25.2666 18.0011C25.3697 18.0179 25.4752 18.014 25.5767 17.9894C25.6782 17.9648 25.7737 17.9201 25.8577 17.8579C25.9416 17.7957 26.0123 17.7174 26.0654 17.6274C26.1185 17.5375 26.1531 17.4378 26.167 17.3343C26.1809 17.2308 26.174 17.1255 26.1465 17.0247C26.119 16.9239 26.0717 16.8297 26.0071 16.7475C25.9426 16.6654 25.8623 16.597 25.7709 16.5464C25.6795 16.4959 25.5789 16.4642 25.475 16.4532C22.9666 16.1177 21.3729 16.3386 20.5979 17.1261C20.3926 17.3356 20.2412 17.5917 20.1567 17.8726C20.0721 18.1534 20.057 18.4506 20.1125 18.7386C20.2666 19.7719 20.6448 21.3052 20.825 22.0063L19.9531 23.1459C19.8906 23.2272 19.8448 23.3201 19.8183 23.4192C19.7918 23.5183 19.785 23.6216 19.7985 23.7233C19.8119 23.825 19.8453 23.923 19.8967 24.0118C19.9481 24.1006 20.0164 24.1783 20.0979 24.2407Z" fill="#D4AF37"/>
<path d="M20.8604 24.2021L21.9021 23.1469C22.0096 23.0371 22.0825 22.898 22.1116 22.7471C22.1407 22.5961 22.1247 22.4399 22.0656 22.298L20.1771 17.7855C20.5699 17.3156 20.838 16.7544 20.9567 16.1537C21.0754 15.5529 21.0408 14.9319 20.8562 14.348C20.1271 12.449 17.5042 11.2886 12.8489 10.8011C10.5896 10.5678 3.0354 10.3688 0.719779 17.7803C-0.966679 23.1719 1.60103 30.0428 2.2427 31.6157L0.0645707 36.6042C0.0234734 36.6982 0.0013287 36.7995 -0.000595269 36.9021C-0.00251924 37.0047 0.0158153 37.1066 0.0533585 37.2021C0.0909016 37.2976 0.146916 37.3848 0.218193 37.4586C0.28947 37.5324 0.37461 37.5915 0.468737 37.6323C0.567191 37.6758 0.673635 37.6981 0.781237 37.698C0.933212 37.698 1.08189 37.6537 1.20902 37.5704C1.33615 37.4871 1.43619 37.3686 1.49686 37.2292L3.80311 31.9396C3.84607 31.8411 3.86824 31.7347 3.86824 31.6271C3.86824 31.5196 3.84607 31.4132 3.80311 31.3146C3.77082 31.2396 0.504154 23.699 2.20624 18.2532C4.16665 11.9719 10.7219 12.1542 12.6812 12.3594C17.8719 12.9032 19.1146 14.1928 19.3927 14.9146C19.7614 15.8688 18.8812 16.9219 18.701 17.123C18.613 17.2212 18.5502 17.3394 18.5181 17.4674C18.4859 17.5953 18.4855 17.7292 18.5167 17.8573C18.526 17.8927 18.5374 17.9275 18.551 17.9615L20.4167 22.423L19.3417 23.5167C19.2255 23.6357 19.1502 23.7884 19.1264 23.953C19.1026 24.1175 19.1317 24.2854 19.2094 24.4323L20.4771 26.8084L14.1896 25.0959C14.1455 25.0842 14.1006 25.0762 14.0552 25.0719L10.7812 24.7709C10.7053 24.3686 10.5258 23.993 10.2604 23.6813C9.71692 23.1527 8.99177 22.852 8.23367 22.8409C7.47557 22.8299 6.74197 23.1093 6.18332 23.6219C5.95224 23.8337 5.76626 24.0899 5.63649 24.3752C5.50673 24.6605 5.43586 24.969 5.42811 25.2823C5.51025 27.0457 6.23847 28.7172 7.47395 29.9782C7.66768 30.2228 7.91259 30.4222 8.19151 30.5622C8.47042 30.7021 8.77659 30.7794 9.08853 30.7886H9.15936C9.30555 30.7813 9.45034 30.7565 9.59061 30.7146C9.60889 30.7237 9.62767 30.7317 9.64686 30.7386L12.1937 31.2594C13.9812 32.7428 15.2354 33.7834 16.1458 34.5115C14.9648 34.1514 13.8169 33.6906 12.7146 33.1344C12.3123 32.8887 12.0174 32.5004 11.8885 32.0469C11.8056 31.857 11.6507 31.7078 11.4578 31.6321C11.2649 31.5564 11.0498 31.5604 10.8599 31.6433C10.6699 31.7262 10.5207 31.8811 10.445 32.074C10.3693 32.2669 10.3734 32.482 10.4562 32.6719C10.7149 33.4194 11.2243 34.0543 11.8979 34.4688C12.4756 34.7926 13.0786 35.0688 13.701 35.2948L12.5292 38.2115C12.4521 38.4039 12.4546 38.6191 12.5362 38.8097C12.6177 39.0002 12.7716 39.1506 12.9641 39.2277C13.1565 39.3047 13.3716 39.3022 13.5622 39.2207C13.7528 39.1391 13.9031 38.9852 13.9802 38.7928L15.1698 35.8292C15.6635 36.0001 16.201 36.1813 16.7896 36.3719C16.9794 36.4333 17.1776 36.4646 17.3771 36.4646C17.8278 36.4646 18.2634 36.3023 18.6042 36.0073C18.628 35.9812 18.65 35.9534 18.6698 35.924C18.7388 35.8677 18.8023 35.805 18.8594 35.7365C18.9521 35.6323 18.9719 35.6136 22.7135 28.4011C22.7725 28.2886 22.8033 28.1635 22.8033 28.0365C22.8033 27.9095 22.7725 27.7844 22.7135 27.6719L20.8604 24.2021ZM18.0281 34.0261C16.9864 33.1844 14.9625 31.5188 13.4448 30.2615L14.5104 26.8021L20.8812 28.5417C19.8687 30.4917 18.6552 32.8261 18.0281 34.0261ZM8.64582 28.9365C7.7052 27.9731 7.12289 26.7166 6.99582 25.3761C6.99013 25.2685 7.00755 25.161 7.0469 25.0607C7.08625 24.9605 7.14662 24.8698 7.22395 24.7948C7.47545 24.5515 7.80868 24.4106 8.1585 24.3998C8.50832 24.389 8.84959 24.5091 9.11561 24.7365C9.29514 25.1031 9.36736 25.5129 9.32395 25.9188C9.30989 26.1249 9.3779 26.3281 9.51313 26.4842C9.64837 26.6404 9.83986 26.7367 10.0458 26.7521C10.1986 26.7675 10.3523 26.7358 10.4866 26.6614C10.6208 26.5869 10.7291 26.4732 10.7969 26.3355L12.9656 26.5344L12.0167 29.6178L10.9625 29.4021C10.9645 29.2833 10.9388 29.1656 10.8875 29.0584C10.8361 28.9511 10.7605 28.8574 10.6667 28.7844C10.5851 28.7223 10.4921 28.677 10.3929 28.6508C10.2938 28.6247 10.1905 28.6184 10.0889 28.6322C9.98733 28.6461 9.88948 28.6798 9.80094 28.7315C9.7124 28.7831 9.63491 28.8518 9.5729 28.9334C9.45583 29.0789 9.29273 29.1803 9.1104 29.2209C8.93957 29.2344 8.74165 29.048 8.64582 28.9365Z" fill="#D4AF37"/>
<path d="M49.3885 33.4771H45.8572C45.6648 33.4778 45.4794 33.5494 45.3364 33.6781L43.8635 35H42.9166C43.1899 34.5968 43.3756 34.1408 43.4617 33.6613C43.5479 33.1819 43.5325 32.6897 43.4166 32.2166L41.0395 22.6666C40.9976 22.4975 40.9003 22.3472 40.763 22.2397C40.6258 22.1323 40.4565 22.0739 40.2822 22.0739H37.3937C37.1229 22.0739 36.8633 21.9664 36.6718 21.7749C36.4804 21.5835 36.3728 21.3238 36.3728 21.0531C36.3728 20.7824 36.4804 20.5227 36.6718 20.3313C36.8633 20.1398 37.1229 20.0323 37.3937 20.0323H42.3708C42.5724 20.0323 42.7705 20.0856 42.945 20.1868C43.1195 20.2879 43.2642 20.4333 43.3645 20.6083L45.8072 24.8718C45.8753 24.9913 45.9739 25.0906 46.0928 25.1595C46.2117 25.2285 46.3468 25.2648 46.4843 25.2646H49.3885C49.5957 25.2646 49.7944 25.1822 49.9409 25.0357C50.0874 24.8892 50.1697 24.6905 50.1697 24.4833C50.1697 24.2761 50.0874 24.0774 49.9409 23.9309C49.7944 23.7844 49.5957 23.7021 49.3885 23.7021H46.9405L44.7239 19.8323C44.4864 19.4188 44.1441 19.0751 43.7316 18.8359C43.319 18.5967 42.8507 18.4704 42.3739 18.4698H37.3926C36.7075 18.4698 36.0504 18.7419 35.5659 19.2264C35.0815 19.7109 34.8093 20.368 34.8093 21.0531C34.8093 21.7382 35.0815 22.3953 35.5659 22.8798C36.0504 23.3643 36.7075 23.6364 37.3926 23.6364H39.6708L41.8999 32.5948C42.0219 33.0924 41.9429 33.6181 41.6798 34.0579C41.4167 34.4976 40.9909 34.8159 40.4947 34.9437C40.3713 34.9757 40.2449 34.9949 40.1176 35.001H39.2916C39.3098 34.8942 39.3206 34.7864 39.3239 34.6781C39.3219 34.1882 39.1589 33.7126 38.86 33.3244C38.5611 32.9363 38.1428 32.6572 37.6697 32.5302C37.7611 32.2877 37.809 32.031 37.8114 31.7718C37.8087 31.3603 37.6923 30.9576 37.475 30.6081C37.2577 30.2586 36.948 29.9761 36.5801 29.7916C36.716 29.5021 36.7871 29.1865 36.7885 28.8666C36.7879 28.52 36.7064 28.1783 36.5505 27.8687C36.3947 27.5591 36.1687 27.2902 35.8905 27.0833C36.0944 26.7415 36.2023 26.3511 36.203 25.9531C36.2025 25.3602 35.9667 24.7918 35.5473 24.3727C35.128 23.9535 34.5595 23.718 33.9666 23.7177H25.5208V17.0687H27.4187V22.2916C27.4187 22.4988 27.501 22.6976 27.6475 22.8441C27.794 22.9906 27.9927 23.0729 28.1999 23.0729C28.4071 23.0729 28.6058 22.9906 28.7523 22.8441C28.8989 22.6976 28.9812 22.4988 28.9812 22.2916V17.0729H36.5416C36.7934 17.0731 37.0427 17.123 37.2751 17.2199C37.5075 17.3168 37.7184 17.4587 37.8958 17.6375C37.968 17.7101 38.0539 17.7678 38.1485 17.8072C38.2431 17.8467 38.3446 17.8671 38.447 17.8673C38.5495 17.8676 38.651 17.8476 38.7458 17.8086C38.8406 17.7697 38.9268 17.7124 38.9994 17.6401C39.072 17.5678 39.1297 17.4819 39.1692 17.3873C39.2086 17.2927 39.229 17.1913 39.2293 17.0888C39.2295 16.9863 39.2096 16.8848 39.1706 16.79C39.1316 16.6952 39.0743 16.6091 39.002 16.5364C38.6799 16.2103 38.2961 15.9516 37.8729 15.7754C37.4498 15.5993 36.9958 15.5092 36.5374 15.5104H24.7395C24.5323 15.5104 24.3336 15.5927 24.1871 15.7392C24.0406 15.8857 23.9583 16.0844 23.9583 16.2916V24.5031C23.9583 24.7103 24.0406 24.909 24.1871 25.0555C24.3336 25.202 24.5323 25.2843 24.7395 25.2843H30.6583C30.5847 25.5012 30.5457 25.7283 30.5426 25.9573C30.5435 26.3031 30.625 26.6441 30.7807 26.9529C30.9364 27.2618 31.162 27.53 31.4395 27.7364C31.2817 27.9973 31.1798 28.2881 31.1403 28.5905C31.1008 28.8928 31.1245 29.2 31.2098 29.4927C31.2952 29.7854 31.4405 30.0572 31.6364 30.2908C31.8323 30.5244 32.0745 30.7148 32.3478 30.85C32.2121 31.1399 32.141 31.4559 32.1395 31.776C32.1411 32.2671 32.3045 32.744 32.6045 33.1329C32.9045 33.5217 33.3243 33.8008 33.7989 33.9271C33.673 34.2641 33.6311 34.6268 33.6768 34.9837C33.7225 35.3406 33.8545 35.681 34.0613 35.9754C34.268 36.2699 34.5434 36.5096 34.8636 36.6737C35.1837 36.8379 35.5391 36.9216 35.8989 36.9177H37.0916C37.5321 36.9179 37.9628 36.7874 38.3291 36.5427C38.3683 36.5539 38.4084 36.5619 38.4489 36.5666H44.1666C44.3591 36.5663 44.5446 36.4946 44.6874 36.3656L46.1583 35.0396H49.3874C49.5946 35.0396 49.7933 34.9572 49.9399 34.8107C50.0864 34.6642 50.1687 34.4655 50.1687 34.2583C50.1687 34.0511 50.0864 33.8524 49.9399 33.7059C49.7933 33.5594 49.5946 33.4771 49.3874 33.4771H49.3885ZM33.3572 29.5354C33.1787 29.5354 33.0076 29.4645 32.8814 29.3383C32.7552 29.2121 32.6843 29.0409 32.6843 28.8625C32.6843 28.684 32.7552 28.5128 32.8814 28.3866C33.0076 28.2605 33.1787 28.1896 33.3572 28.1896H34.551C34.7294 28.1896 34.9006 28.2605 35.0268 28.3866C35.153 28.5128 35.2239 28.684 35.2239 28.8625C35.2239 29.0409 35.153 29.2121 35.0268 29.3383C34.9006 29.4645 34.7294 29.5354 34.551 29.5354H33.3572ZM33.3749 25.2802H33.9718C34.0625 25.2766 34.1529 25.2914 34.2377 25.3236C34.3225 25.3559 34.4 25.4049 34.4654 25.4678C34.5308 25.5307 34.5828 25.6061 34.6184 25.6896C34.6539 25.7731 34.6722 25.8629 34.6722 25.9536C34.6722 26.0444 34.6539 26.1342 34.6184 26.2176C34.5828 26.3011 34.5308 26.3766 34.4654 26.4395C34.4 26.5023 34.3225 26.5514 34.2377 26.5836C34.1529 26.6158 34.0625 26.6306 33.9718 26.6271H32.7791C32.6884 26.6306 32.598 26.6158 32.5132 26.5836C32.4283 26.5514 32.3509 26.5023 32.2855 26.4395C32.2201 26.3766 32.168 26.3011 32.1325 26.2176C32.097 26.1342 32.0786 26.0444 32.0786 25.9536C32.0786 25.8629 32.097 25.7731 32.1325 25.6896C32.168 25.6061 32.2201 25.5307 32.2855 25.4678C32.3509 25.4049 32.4283 25.3559 32.5132 25.3236C32.598 25.2914 32.6884 25.2766 32.7791 25.2802H33.3749ZM34.378 31.0979H35.5708C35.7495 31.0979 35.9209 31.1689 36.0473 31.2953C36.1737 31.4217 36.2447 31.5931 36.2447 31.7718C36.2447 31.9506 36.1737 32.122 36.0473 32.2484C35.9209 32.3748 35.7495 32.4458 35.5708 32.4458H34.378C34.1993 32.4458 34.0279 32.3748 33.9015 32.2484C33.7751 32.122 33.7041 31.9506 33.7041 31.7718C33.7041 31.5931 33.7751 31.4217 33.9015 31.2953C34.0279 31.1689 34.1993 31.0979 34.378 31.0979ZM37.0864 35.3552H35.8989C35.8082 35.3587 35.7178 35.344 35.6329 35.3117C35.5481 35.2795 35.4707 35.2305 35.4053 35.1676C35.3399 35.1047 35.2878 35.0292 35.2523 34.9458C35.2168 34.8623 35.1984 34.7725 35.1984 34.6817C35.1984 34.591 35.2168 34.5012 35.2523 34.4177C35.2878 34.3342 35.3399 34.2588 35.4053 34.1959C35.4707 34.133 35.5481 34.084 35.6329 34.0518C35.7178 34.0195 35.8082 34.0047 35.8989 34.0083H37.0916C37.1823 34.0047 37.2727 34.0195 37.3575 34.0518C37.4423 34.084 37.5198 34.133 37.5852 34.1959C37.6506 34.2588 37.7026 34.3342 37.7382 34.4177C37.7737 34.5012 37.792 34.591 37.792 34.6817C37.792 34.7725 37.7737 34.8623 37.7382 34.9458C37.7026 35.0292 37.6506 35.1047 37.5852 35.1676C37.5198 35.2305 37.4423 35.2795 37.3575 35.3117C37.2727 35.344 37.1823 35.3587 37.0916 35.3552H37.0864Z" fill="#D4AF37"/>
</g>
<defs>
<clipPath id="clip0">
<rect width="50" height="50" fill="white"/>
</clipPath>
</defs>
</svg>
