<svg width="21" height="20" viewBox="0 0 21 20" fill="none" xmlns="http://www.w3.org/2000/svg">
<path d="M5.5 4.16675H7.58333C7.58333 2.78604 8.70262 1.66675 10.0833 1.66675C11.464 1.66675 12.5833 2.78604 12.5833 4.16675H14.6667C16.0473 4.16675 17.1667 5.28603 17.1667 6.66675V15.8334C17.1667 17.2142 16.0473 18.3334 14.6667 18.3334H5.5C4.11928 18.3334 3 17.2142 3 15.8334V6.66675C3 5.28603 4.11928 4.16675 5.5 4.16675ZM5.49999 5.00009C4.57952 5.00009 3.83333 5.74627 3.83333 6.66676V15.8334C3.83333 16.7539 4.57952 17.5001 5.49999 17.5001H14.6667C15.5872 17.5001 16.3333 16.7539 16.3333 15.8334V6.66676C16.3333 5.74627 15.5872 5.00009 14.6667 5.00009L13.8333 5.00008V7.50009H6.33332V5.00008L5.49999 5.00009ZM7.16667 6.66674H13V5.00007H7.16667V6.66674ZM10.0833 2.50007C9.16283 2.50007 8.41667 3.24627 8.41667 4.16674H11.75C11.75 3.24627 11.0038 2.50007 10.0833 2.50007Z" fill="#3F6D97"/>
</svg>
