<svg width="25" height="25" viewBox="0 0 25 25" fill="none" xmlns="http://www.w3.org/2000/svg">
<path d="M11.9791 3.125C17.4444 3.125 21.8749 7.55552 21.8749 13.0208C21.8749 18.4861 17.4444 22.9167 11.9791 22.9167C6.51377 22.9167 2.08325 18.4861 2.08325 13.0208C2.08325 7.55552 6.51376 3.125 11.9791 3.125ZM11.9791 4.16668C7.08906 4.16668 3.12492 8.13081 3.12492 13.0208C3.12492 17.9108 7.08906 21.875 11.9791 21.875C16.8691 21.875 20.8333 17.9108 20.8333 13.0208C20.8333 8.13081 16.8691 4.16668 11.9791 4.16668ZM11.4583 7.29167H12.4999V12.9402L17.3917 15.7646L16.8709 16.6667L11.4583 13.5417V7.29167Z" fill="#D4AF37"/>
</svg>
