<svg width="50" height="50" viewBox="0 0 50 50" fill="none" xmlns="http://www.w3.org/2000/svg">
<path d="M10.5804 34.205C11.3219 34.8094 12.1849 35.2473 13.1107 35.4895C11.7698 36.9963 11.7191 39.2534 12.9921 40.8181L16.8577 45.5603C18.289 47.3131 20.8694 47.5764 22.6247 46.1485L26.0039 43.3937C27.736 43.5922 29.4744 43.0833 30.8266 41.9827L41.5071 33.2747C42.1409 32.7586 42.4683 31.9558 42.376 31.1435C42.2833 30.3316 41.7838 29.6227 41.0501 29.2624L41.9935 28.4933C42.6333 27.9713 42.9597 27.1568 42.858 26.3374C42.7563 25.518 42.2411 24.8084 41.493 24.4581C42.2833 23.5076 42.2223 22.1128 41.3525 21.2345C40.482 20.3569 39.0876 20.2833 38.1301 21.0652L37.8453 21.2975C37.6403 20.5062 37.0462 19.8746 36.2693 19.6204C35.4931 19.3662 34.6405 19.5249 34.0073 20.0417L30.4175 22.9689C30.471 21.9263 30.1336 20.9012 29.4719 20.0943C28.9774 19.4839 28.0822 19.3894 27.4709 19.8824L26.5932 20.5895H26.2721C26.9795 19.8282 27.3679 18.8251 27.3582 17.7859C27.357 17.4109 27.2061 17.0525 26.9391 16.7893C26.6721 16.5267 26.3109 16.3812 25.9362 16.3859H13.9133C11.8318 16.3902 9.90716 17.4939 8.85235 19.2883H5.58775C3.32726 19.2883 1.5225 21.1704 1.5225 23.4306V29.5482C1.5178 30.6264 1.94505 31.6615 2.70877 32.4234C3.47281 33.1846 4.50915 33.6087 5.58775 33.6009H9.94911C10.146 33.9011 10.3566 34.0238 10.5804 34.205ZM28.3561 20.9766C28.3601 20.9732 28.3658 20.971 28.3717 20.9719C28.377 20.9723 28.382 20.9751 28.3858 20.9795C29.3721 22.1889 29.1911 23.9689 27.9814 24.9555L24.8504 27.5077C24.6548 27.6651 24.5584 27.9155 24.5982 28.1638C24.6379 28.412 24.8073 28.6198 25.0426 28.7087C25.2774 28.7976 25.5422 28.7538 25.7362 28.5935L28.8669 26.0413L28.8678 26.0404L34.8924 21.1284C35.1685 20.8993 35.5466 20.8355 35.8825 20.9622C36.2183 21.0884 36.4603 21.3854 36.5166 21.74C36.573 22.0947 36.4346 22.4521 36.1545 22.6765L28.3185 29.0652C28.121 29.2223 28.0233 29.4734 28.0625 29.7228C28.1019 29.972 28.2722 30.181 28.5085 30.2693C28.7445 30.3582 29.0105 30.3128 29.204 30.151L37.0396 23.7623L39.0153 22.152C39.4429 21.8092 40.067 21.8756 40.4132 22.3003C40.7593 22.7251 40.6986 23.3495 40.2773 23.6997L38.9621 24.7721L38.9605 24.7733L36.9849 26.3843L36.9833 26.3859L30.466 31.6991C30.2701 31.8569 30.1737 32.1069 30.2134 32.3552C30.2528 32.6034 30.4225 32.8115 30.6575 32.9001C30.8929 32.989 31.1577 32.9452 31.3515 32.7849L37.8697 27.4705L39.8457 25.8594C40.2732 25.5111 40.9024 25.5746 41.2507 26.0025C41.5991 26.4297 41.5353 27.0589 41.1077 27.4072L38.8034 29.2865C38.7643 29.3181 38.7289 29.3541 38.6976 29.3932C38.62 29.443 38.5452 29.4968 38.4741 29.5547L33.9306 33.2594C33.7322 33.4162 33.6336 33.6676 33.6727 33.9177C33.7118 34.1674 33.8827 34.3768 34.1197 34.4654C34.3566 34.554 34.6226 34.508 34.8158 34.3452L39.3599 30.6408C39.636 30.4117 40.0141 30.3479 40.3499 30.4746C40.6858 30.6011 40.9284 30.8981 40.9844 31.2528C41.0407 31.6068 40.9024 31.9645 40.6219 32.1886L29.9411 40.8969C28.8378 41.7956 27.4073 42.1887 26.0001 41.9802C25.7788 41.9158 25.54 41.9643 25.3613 42.1101L21.7395 45.0627C20.5842 46.0026 18.8859 45.8298 17.9438 44.6764L14.0782 39.9351C13.137 38.7807 13.3098 37.0811 14.4641 36.1396L16.6633 34.3468C16.6752 34.3368 16.6868 34.3274 16.6977 34.3167L17.3437 33.7161C17.5297 33.543 17.6076 33.2826 17.5469 33.0356C17.1456 31.3852 17.725 29.6505 19.038 28.5735L28.3561 20.9766ZM5.58775 32.1996C4.88068 32.2084 4.19991 31.9317 3.69911 31.4331C3.19768 30.9341 2.9188 30.2549 2.9238 29.5482V23.4306C2.9238 21.9432 4.09975 20.6896 5.58775 20.6896H8.29302C8.17752 21.1626 8.11805 21.6474 8.11523 22.1347C8.11023 24.0109 8.85454 25.8116 10.1832 27.1371L10.5297 27.4889C10.8017 27.7625 11.2443 27.7637 11.5179 27.4917C11.7917 27.2191 11.7927 26.7765 11.5204 26.5033L11.1739 26.1568C10.1097 25.1035 9.51278 23.6672 9.51654 22.1701C9.52061 19.7456 11.4891 17.7831 13.9133 17.7872H25.9359C25.9472 17.7872 25.9566 17.7743 25.9566 17.7859C25.955 18.5327 25.6561 19.2482 25.1259 19.7744C24.5957 20.3002 23.8783 20.5935 23.1311 20.5895H18.2471C17.8586 20.5935 17.5459 20.9097 17.5466 21.2984C17.5453 22.6474 16.4529 23.742 15.1036 23.7454C14.7164 23.7467 14.4028 24.0609 14.4028 24.4478C14.4031 24.6334 14.4776 24.8103 14.6087 24.9405C14.7402 25.0707 14.9186 25.143 15.1036 25.1414C16.9591 25.1414 18.5494 23.8159 18.8834 21.9908H24.8745L22.4191 23.9949C22.3934 23.9924 22.3671 23.9918 22.3414 23.9924H20.7955C20.4237 23.9949 20.1176 24.2851 20.0956 24.6563C20.0741 25.0275 20.3439 25.3514 20.7129 25.3978L18.1529 27.4861C16.5384 28.811 15.7559 30.8981 16.1011 32.9577L15.7606 33.2747L14.5089 34.2954C12.2406 34.2153 10.1691 32.5229 9.64956 30.295C9.5613 29.9178 9.18476 29.684 8.80791 29.7716C8.62856 29.8086 8.47206 29.9162 8.37346 30.0706C8.27486 30.2246 8.24294 30.412 8.28457 30.5901C8.41665 31.1542 8.62949 31.696 8.91652 32.1996H5.58775Z" fill="#D4AF37"/>
<path d="M36.3957 12.347L33.6945 8.06542C33.5661 7.86228 33.3426 7.73865 33.1023 7.73865C32.8613 7.73865 32.6378 7.86228 32.5094 8.06542L29.8082 12.347C29.7942 12.3689 29.7816 12.3914 29.7704 12.4149C29.0145 13.9717 29.438 15.8444 30.7901 16.9246C32.142 18.0051 34.0619 18.0051 35.4138 16.9246C36.7659 15.8444 37.1894 13.9717 36.4335 12.4149C36.4223 12.3914 36.4097 12.3689 36.3957 12.347ZM34.7299 15.6601C33.83 16.5571 32.3739 16.5571 31.474 15.6601L30.9789 16.1552L31.474 15.6601C30.7908 14.9752 30.6073 13.937 31.0155 13.06L33.1016 9.75281L35.1887 13.06C35.5966 13.937 35.4131 14.9749 34.7299 15.6591V15.6601Z" fill="#D4AF37"/>
<path d="M41.359 4.9176C41.1186 4.9176 40.8948 5.04092 40.7668 5.24438L38.9658 8.09863C38.9523 8.12054 38.9392 8.14339 38.9279 8.16686C38.4259 9.2029 38.6346 10.443 39.4484 11.2574C40.3815 12.1902 41.8516 12.3129 42.9265 11.5479C44.001 10.7826 44.3663 9.35376 43.7904 8.16686C43.7791 8.14339 43.7666 8.12054 43.7525 8.09863L41.9518 5.24438C41.8235 5.04092 41.5997 4.9176 41.359 4.9176ZM42.2792 10.2662C41.7712 10.7745 40.9474 10.7745 40.4394 10.2662C40.0563 9.88336 39.9508 9.30337 40.174 8.80977L41.359 6.93145L42.5443 8.80977C42.7675 9.30337 42.662 9.88305 42.2792 10.2662Z" fill="#D4AF37"/>
<path d="M26.6386 3.04247C26.5102 2.83902 26.2865 2.7157 26.0461 2.7157C25.8054 2.7157 25.5816 2.83902 25.4536 3.04247L23.6525 5.89673C23.6391 5.91864 23.6259 5.94148 23.6147 5.96496C23.1126 7.00099 23.3214 8.2411 24.1352 9.05553C25.0683 9.98827 26.5384 10.111 27.6129 9.34599C28.6878 8.58071 29.0531 7.15186 28.4771 5.96496C28.4659 5.94148 28.4534 5.91864 28.4393 5.89673L26.6386 3.04247ZM26.966 8.06426C26.4577 8.57257 25.6342 8.57257 25.1262 8.06426C24.743 7.68177 24.6376 7.10147 24.8607 6.60818L26.0458 4.72955L27.2311 6.60818C27.4543 7.10147 27.3488 7.68114 26.966 8.06426Z" fill="#D4AF37"/>
<path d="M47.7597 18.2758C46.5024 18.1615 45.5058 17.1652 45.3916 15.9073C45.3587 15.5464 45.0564 15.27 44.6939 15.27C44.3314 15.27 44.0288 15.5464 43.9962 15.9073C43.8823 17.1652 42.8857 18.1615 41.6277 18.2758C41.2669 18.3083 40.9905 18.611 40.9905 18.9738C40.9905 19.3362 41.2669 19.6389 41.6277 19.6711C42.8857 19.7854 43.8823 20.782 43.9962 22.0396C44.0288 22.4005 44.3314 22.6769 44.6939 22.6769C45.0564 22.6769 45.3587 22.4005 45.3916 22.0396C45.5058 20.782 46.5024 19.7854 47.7597 19.6711C48.1209 19.6389 48.3973 19.3362 48.3973 18.9738C48.3973 18.611 48.1209 18.3083 47.7597 18.2758ZM44.6939 19.9891C44.4191 19.5922 44.0748 19.2483 43.6785 18.9734C44.0748 18.6983 44.4191 18.3543 44.6939 17.9574C44.969 18.3543 45.3127 18.6983 45.7096 18.9734C45.313 19.2483 44.969 19.5922 44.6939 19.9891Z" fill="#D4AF37"/>
<path d="M44.7572 38.093C43.4999 37.9788 42.5033 36.9822 42.389 35.7245C42.3562 35.3637 42.0538 35.0873 41.6913 35.0873C41.3289 35.0873 41.0262 35.3637 40.9937 35.7245C40.8797 36.9822 39.8831 37.9788 38.6252 38.093C38.2646 38.1253 37.9879 38.4279 37.9879 38.7907C37.9879 39.1532 38.2646 39.4558 38.6252 39.4884C39.8831 39.6023 40.8797 40.5989 40.9937 41.8569C41.0262 42.2177 41.3289 42.4941 41.6913 42.4941C42.0538 42.4941 42.3562 42.2177 42.389 41.8569C42.5033 40.5989 43.4999 39.6023 44.7572 39.4884C45.1184 39.4558 45.3948 39.1532 45.3948 38.7907C45.3948 38.4279 45.1184 38.1253 44.7572 38.093ZM41.6913 39.8061C41.4165 39.4092 41.0722 39.0652 40.676 38.7904C41.0722 38.5156 41.4165 38.1716 41.6913 37.7747C41.9665 38.1716 42.3101 38.5156 42.707 38.7904C42.3105 39.0652 41.9665 39.4092 41.6913 39.8061Z" fill="#D4AF37"/>
<path d="M18.4682 7.60028C18.4354 7.23939 18.133 6.96301 17.7706 6.96301C17.4081 6.96301 17.1054 7.23939 17.0729 7.60028C16.959 8.85792 15.9624 9.85451 14.7044 9.96876C14.3438 10.001 14.0671 10.3037 14.0671 10.6664C14.0671 11.0289 14.3438 11.3316 14.7044 11.3641C15.9624 11.478 16.959 12.4746 17.0729 13.7326C17.1054 14.0935 17.4081 14.3699 17.7706 14.3699C18.133 14.3699 18.4354 14.0935 18.4682 13.7326C18.5825 12.4746 19.5791 11.478 20.8364 11.3641C21.1976 11.3316 21.474 11.0289 21.474 10.6664C21.474 10.3037 21.1976 10.001 20.8364 9.96876C19.5791 9.85451 18.5825 8.85792 18.4682 7.60028ZM17.7706 11.6818C17.4957 11.2849 17.1514 10.9409 16.7552 10.6661C17.1514 10.3913 17.4957 10.0473 17.7706 9.65044C18.0457 10.0473 18.3894 10.3913 18.7862 10.6661C18.3897 10.9409 18.0457 11.2849 17.7706 11.6818Z" fill="#D4AF37"/>
</svg>
