<svg width="16" height="17" viewBox="0 0 16 17" fill="none" xmlns="http://www.w3.org/2000/svg">
<path d="M16.0001 6.50003V14C16.0001 15.3808 14.8807 16.5 13.5001 16.5H2.66675C1.28604 16.5 0.166748 15.3808 0.166748 14V6.50003C0.166748 5.57493 0.669215 4.7672 1.41611 4.33485L1.41425 4.33162L8.08175 0.482132L14.7542 4.33447L14.7532 4.33627C15.4987 4.76897 16.0001 5.57595 16.0001 6.50003ZM1.59761 5.22142L8.08341 9.43336L14.5692 5.22142L8.08175 1.44439L1.59761 5.22142ZM8.08341 10.4269L1.11158 5.89942C1.03956 6.08576 1.00008 6.28828 1.00008 6.50003V14C1.00008 14.9205 1.74627 15.6667 2.66675 15.6667H13.5001C14.4206 15.6667 15.1667 14.9205 15.1667 14V6.50004C15.1667 6.28829 15.1272 6.08576 15.0552 5.89942L8.08341 10.4269Z" fill="white"/>
</svg>
