<svg width="20" height="20" viewBox="0 0 20 20" fill="none" xmlns="http://www.w3.org/2000/svg">
<path d="M4.16675 4.16667H15.0001C16.3808 4.16667 17.5001 5.28596 17.5001 6.66667V14.1667C17.5001 15.5474 16.3808 16.6667 15.0001 16.6667H4.16675C2.78604 16.6667 1.66675 15.5474 1.66675 14.1667V6.66667C1.66675 5.28595 2.78603 4.16667 4.16675 4.16667ZM4.16675 5.00001C3.75985 5.00001 3.387 5.14582 3.09762 5.38805L9.58342 9.6L16.0692 5.38805C15.7798 5.14582 15.407 5.00001 15.0001 5.00001H4.16675ZM9.58342 10.5936L2.61158 6.06605C2.53956 6.25239 2.50008 6.45492 2.50008 6.66667V14.1667C2.50008 15.0872 3.24627 15.8333 4.16675 15.8333H15.0001C15.9206 15.8333 16.6668 15.0872 16.6668 14.1667V6.66667C16.6668 6.45492 16.6273 6.25239 16.5553 6.06605L9.58342 10.5936Z" fill="#3F6D97"/>
</svg>
