<svg width="35" height="35" viewBox="0 0 35 35" fill="none" xmlns="http://www.w3.org/2000/svg">
<path d="M10.6163 29.144H11.6437V30.1714H10.6163V29.144Z" fill="#70B9D7"/>
<path d="M33.4931 19.589V16.5068H34.4863V15.4795H21.5753V11.2593C21.92 11.2723 22.2683 11.1957 22.5844 11.0265C23.2295 10.6813 23.6301 10.0124 23.6301 9.28082V9.00589L20.274 6.76849V0H15.8219V3.80041L11.8151 1.12918L0 9.00589V9.28082C0 10.0124 0.400685 10.6813 1.04575 11.0265C1.33911 11.1835 1.66007 11.2613 1.98021 11.2613C2.00514 11.2613 2.02993 11.2595 2.05479 11.2586V35H35V19.589H33.4931ZM30.4795 16.5068H32.4658V19.589H30.4795V16.5068ZM27.4658 16.5068H29.4521V19.589H27.4658V16.5068ZM24.4521 16.5068H26.4384V19.589H24.4521V16.5068ZM23.4247 16.5068V19.589H21.5753V16.5068H23.4247ZM16.8493 1.0274H19.2466V6.08356L16.8493 4.48541V1.0274ZM14.0411 33.9726H9.58904V25.411H14.0411V33.9726ZM20.5479 33.9726H15.0685V24.3836H8.56164V33.9726H3.08219V10.9255L11.8151 5.10363L20.5479 10.9255V33.9726ZM21.1218 10.0734L11.8151 3.8689L2.50836 10.0734C2.2111 10.2716 1.84555 10.2893 1.53055 10.1207C1.2926 9.99336 1.12705 9.78301 1.06034 9.53384L11.8151 2.36397L22.5699 9.53384C22.5031 9.78308 22.3376 9.99336 22.0997 10.1207C21.7847 10.2893 21.419 10.2716 21.1218 10.0734ZM33.9726 33.9726H21.5753V20.6164H33.9726V33.9726Z" fill="#70B9D7"/>
<path d="M32.3973 24.041H23.1508V30.5479H32.3973V24.041ZM27.2603 29.5205H24.1782V25.0684H27.2603V29.5205ZM31.3699 29.5205H28.2877V25.0684H31.3699V29.5205Z" fill="#70B9D7"/>
<path d="M9.87579 13.2776C9.35298 12.7557 8.6588 12.4673 7.9199 12.4659C7.91805 12.4659 7.9162 12.4659 7.91435 12.4659C7.17442 12.4659 6.47853 12.7536 5.95421 13.2763C4.86949 14.3579 4.86606 16.1212 5.94661 17.207L9.85373 21.1331L11.8151 19.1622L13.7765 21.1331L17.6837 17.207C18.7641 16.1212 18.7608 14.358 17.6761 13.2763C17.1504 12.7523 16.4525 12.4622 15.7104 12.4659C14.9818 12.4673 14.2967 12.7474 13.7765 13.2556C13.2563 12.7474 12.5711 12.4673 11.8426 12.4659C11.8408 12.4659 11.8389 12.4659 11.8371 12.4659C11.0972 12.4659 10.4013 12.7536 9.87695 13.2763C9.87661 13.2767 9.8762 13.2772 9.87579 13.2776ZM9.8538 19.6766L6.67483 16.4822C5.99353 15.7976 5.99565 14.6859 6.67962 14.0039C7.01072 13.6737 7.45072 13.492 7.91784 13.4933C8.38524 13.4941 8.82428 13.6772 9.15414 14.0087L9.28825 14.1435C8.85243 15.1567 9.04517 16.3788 9.86935 17.2069L11.0904 18.4339L9.8538 19.6766ZM10.6024 14.0039C10.9327 13.6745 11.3711 13.4933 11.8372 13.4933H11.8406C12.308 13.4941 12.7471 13.6772 13.077 14.0087L13.7765 14.7117L14.4761 14.0087C14.806 13.6772 15.245 13.4942 15.7124 13.4933C16.1782 13.4893 16.6195 13.6737 16.9506 14.0039C17.6346 14.6859 17.6368 15.7977 16.9555 16.4823L13.7765 19.6767L10.5976 16.4823C9.91634 15.7976 9.91853 14.6859 10.6024 14.0039Z" fill="#70B9D7"/>
</svg>
