<svg width="50" height="50" viewBox="0 0 50 50" fill="none" xmlns="http://www.w3.org/2000/svg">
<path d="M42.5946 43.1082C41.8703 43.1075 41.1759 42.8192 40.664 42.3067C40.1521 41.7942 39.8647 41.0994 39.8649 40.3751V31.0325C39.8649 30.8533 39.9361 30.6815 40.0628 30.5547C40.1895 30.428 40.3613 30.3568 40.5405 30.3568C40.7197 30.3568 40.8916 30.428 41.0183 30.5547C41.145 30.6815 41.2162 30.8533 41.2162 31.0325V40.3751C41.2122 40.5586 41.2448 40.7411 41.3122 40.9119C41.3796 41.0826 41.4805 41.2382 41.6089 41.3694C41.7372 41.5007 41.8905 41.6049 42.0597 41.6761C42.229 41.7473 42.4107 41.784 42.5943 41.784C42.7778 41.784 42.9596 41.7473 43.1288 41.6761C43.298 41.6049 43.4513 41.5007 43.5797 41.3694C43.708 41.2382 43.8089 41.0826 43.8763 40.9119C43.9437 40.7411 43.9764 40.5586 43.9723 40.3751V24.1143C43.9723 23.9351 44.0435 23.7632 44.1702 23.6365C44.2969 23.5098 44.4688 23.4386 44.648 23.4386C44.8272 23.4386 44.999 23.5098 45.1258 23.6365C45.2525 23.7632 45.3237 23.9351 45.3237 24.1143V40.3751C45.3238 41.0993 45.0365 41.794 44.5248 42.3064C44.0131 42.8189 43.3188 43.1073 42.5946 43.1082Z" fill="#D4AF37"/>
<path d="M46.3109 31.5804C45.6909 31.5799 45.0965 31.3334 44.6581 30.8951C44.2197 30.4568 43.9731 29.8625 43.9724 29.2426V24.1142C43.9724 23.935 44.0435 23.7631 44.1703 23.6364C44.297 23.5097 44.4688 23.4385 44.648 23.4385C44.8272 23.4385 44.9991 23.5097 45.1258 23.6364C45.2525 23.7631 45.3237 23.935 45.3237 24.1142V29.2426C45.3304 29.4998 45.4374 29.7443 45.6217 29.9239C45.806 30.1034 46.0532 30.2039 46.3105 30.2039C46.5679 30.2039 46.815 30.1034 46.9994 29.9239C47.1837 29.7443 47.2906 29.4998 47.2974 29.2426V20.9689C47.2965 20.2562 47.0129 19.5729 46.5089 19.0689C46.0049 18.5649 45.3216 18.2813 44.6088 18.2804H36.4724C35.7596 18.2813 35.0763 18.5649 34.5723 19.0689C34.0683 19.5729 33.7847 20.2562 33.7838 20.9689V29.2426C33.7906 29.4998 33.8975 29.7443 34.0818 29.9239C34.2662 30.1034 34.5133 30.2039 34.7707 30.2039C35.028 30.2039 35.2752 30.1034 35.4595 29.9239C35.6438 29.7443 35.7508 29.4998 35.7575 29.2426V24.1142C35.7575 23.935 35.8287 23.7631 35.9554 23.6364C36.0821 23.5097 36.254 23.4385 36.4332 23.4385C36.6124 23.4385 36.7842 23.5097 36.9109 23.6364C37.0377 23.7631 37.1088 23.935 37.1088 24.1142V29.2426C37.0984 29.8558 36.8475 30.4404 36.4101 30.8704C35.9728 31.3004 35.384 31.5413 34.7707 31.5413C34.1573 31.5413 33.5686 31.3004 33.1312 30.8704C32.6938 30.4404 32.4429 29.8558 32.4325 29.2426V20.9689C32.4337 19.8979 32.8598 18.8711 33.6171 18.1137C34.3745 17.3564 35.4013 16.9303 36.4724 16.9291H44.6088C45.6799 16.9303 46.7067 17.3564 47.4641 18.1137C48.2214 18.8711 48.6475 19.8979 48.6487 20.9689V29.2426C48.648 29.8624 48.4015 30.4566 47.9632 30.8949C47.5249 31.3332 46.9307 31.5797 46.3109 31.5804Z" fill="#D4AF37"/>
<path d="M38.4864 43.1082C37.7627 43.1073 37.069 42.8194 36.5574 42.3076C36.0458 41.7959 35.758 41.1021 35.7573 40.3785V24.1143C35.7573 23.9351 35.8285 23.7632 35.9552 23.6365C36.0819 23.5098 36.2538 23.4386 36.433 23.4386C36.6122 23.4386 36.7841 23.5098 36.9108 23.6365C37.0375 23.7632 37.1087 23.9351 37.1087 24.1143V40.3751C37.1046 40.5586 37.1372 40.7411 37.2047 40.9119C37.2721 41.0826 37.373 41.2382 37.5013 41.3694C37.6297 41.5007 37.783 41.6049 37.9522 41.6761C38.1214 41.7473 38.3031 41.784 38.4867 41.784C38.6703 41.784 38.852 41.7473 39.0212 41.6761C39.1905 41.6049 39.3437 41.5007 39.4721 41.3694C39.6005 41.2382 39.7013 41.0826 39.7688 40.9119C39.8362 40.7411 39.8688 40.5586 39.8648 40.3751V31.0325C39.8648 30.8533 39.9359 30.6815 40.0627 30.5547C40.1894 30.428 40.3612 30.3568 40.5404 30.3568C40.7196 30.3568 40.8915 30.428 41.0182 30.5547C41.1449 30.6815 41.2161 30.8533 41.2161 31.0325V40.3751C41.2163 41.0994 40.9289 41.7942 40.417 42.3067C39.9051 42.8192 39.2107 43.1075 38.4864 43.1082Z" fill="#D4AF37"/>
<path d="M40.5406 15.4054C39.6987 15.4054 38.8757 15.1557 38.1756 14.688C37.4756 14.2202 36.93 13.5554 36.6078 12.7776C36.2857 11.9998 36.2014 11.1439 36.3656 10.3182C36.5299 9.49242 36.9353 8.73394 37.5306 8.13862C38.1259 7.5433 38.8844 7.13789 39.7101 6.97364C40.5359 6.80939 41.3917 6.89369 42.1696 7.21587C42.9474 7.53806 43.6122 8.08366 44.0799 8.78368C44.5477 9.4837 44.7973 10.3067 44.7973 11.1486C44.7963 12.2772 44.3474 13.3593 43.5494 14.1574C42.7513 14.9555 41.6692 15.4043 40.5406 15.4054ZM40.5406 8.2432C39.9659 8.2432 39.4042 8.4136 38.9264 8.73285C38.4486 9.0521 38.0762 9.50586 37.8563 10.0368C37.6364 10.5676 37.5789 11.1518 37.691 11.7154C37.8031 12.279 38.0798 12.7967 38.4861 13.203C38.8925 13.6094 39.4102 13.8861 39.9738 13.9982C40.5374 14.1103 41.1215 14.0528 41.6524 13.8328C42.1833 13.6129 42.6371 13.2406 42.9563 12.7628C43.2756 12.285 43.446 11.7232 43.446 11.1486C43.4451 10.3786 43.1386 9.64049 42.5938 9.09636C42.049 8.55222 41.3106 8.24658 40.5406 8.24658V8.2432Z" fill="#D4AF37"/>
<path d="M7.40545 43.1082C6.68181 43.1073 5.98809 42.8194 5.47646 42.3076C4.96484 41.7959 4.67711 41.1021 4.67639 40.3785V24.1143C4.67639 23.9351 4.74758 23.7632 4.87429 23.6365C5.00101 23.5098 5.17287 23.4386 5.35207 23.4386C5.53127 23.4386 5.70313 23.5098 5.82984 23.6365C5.95656 23.7632 6.02774 23.9351 6.02774 24.1143V40.3751C6.02368 40.5586 6.05632 40.7411 6.12375 40.9119C6.19117 41.0826 6.29203 41.2382 6.42039 41.3694C6.54876 41.5007 6.70205 41.6049 6.87126 41.6761C7.04047 41.7473 7.2222 41.784 7.40578 41.784C7.58936 41.784 7.77109 41.7473 7.94031 41.6761C8.10952 41.6049 8.26281 41.5007 8.39118 41.3694C8.51954 41.2382 8.6204 41.0826 8.68782 40.9119C8.75525 40.7411 8.78789 40.5586 8.78383 40.3751V31.0325C8.78383 30.8533 8.85501 30.6815 8.98173 30.5547C9.10844 30.428 9.2803 30.3568 9.4595 30.3568C9.6387 30.3568 9.81056 30.428 9.93728 30.5547C10.064 30.6815 10.1352 30.8533 10.1352 31.0325V40.3751C10.1354 41.0994 9.84793 41.7942 9.33606 42.3067C8.82419 42.8192 8.12978 43.1075 7.40545 43.1082Z" fill="#D4AF37"/>
<path d="M15.2297 31.5804C14.6098 31.5799 14.0154 31.3334 13.5769 30.8951C13.1385 30.4568 12.8919 29.8625 12.8912 29.2426V24.1142C12.8912 23.935 12.9624 23.7631 13.0891 23.6364C13.2158 23.5097 13.3877 23.4385 13.5669 23.4385C13.7461 23.4385 13.9179 23.5097 14.0446 23.6364C14.1713 23.7631 14.2425 23.935 14.2425 24.1142V29.2426C14.2493 29.4998 14.3562 29.7443 14.5405 29.9239C14.7249 30.1034 14.972 30.2039 15.2294 30.2039C15.4867 30.2039 15.7339 30.1034 15.9182 29.9239C16.1025 29.7443 16.2094 29.4998 16.2162 29.2426V20.9689C16.2153 20.2562 15.9317 19.5729 15.4277 19.0689C14.9237 18.5649 14.2404 18.2813 13.5277 18.2804H5.39118C4.67842 18.2813 3.9951 18.5649 3.4911 19.0689C2.9871 19.5729 2.70356 20.2562 2.70267 20.9689V29.2426C2.7094 29.4998 2.81632 29.7443 3.00066 29.9239C3.18499 30.1034 3.43215 30.2039 3.68949 30.2039C3.94683 30.2039 4.194 30.1034 4.37833 29.9239C4.56266 29.7443 4.66959 29.4998 4.67632 29.2426V24.1142C4.67632 23.935 4.74751 23.7631 4.87422 23.6364C5.00093 23.5097 5.17279 23.4385 5.35199 23.4385C5.53119 23.4385 5.70305 23.5097 5.82977 23.6364C5.95648 23.7631 6.02767 23.935 6.02767 24.1142V29.2426C6.01724 29.8558 5.76632 30.4404 5.32896 30.8704C4.8916 31.3004 4.30282 31.5413 3.68949 31.5413C3.07617 31.5413 2.48739 31.3004 2.05003 30.8704C1.61267 30.4404 1.36174 29.8558 1.35132 29.2426V20.9689C1.35257 19.8979 1.7786 18.8711 2.53595 18.1137C3.2933 17.3564 4.32013 16.9303 5.39118 16.9291H13.5277C14.5987 16.9303 15.6256 17.3564 16.3829 18.1137C17.1403 18.8711 17.5663 19.8979 17.5675 20.9689V29.2426C17.5668 29.8624 17.3203 30.4566 16.882 30.8949C16.4437 31.3332 15.8495 31.5797 15.2297 31.5804Z" fill="#D4AF37"/>
<path d="M11.5135 43.1082C10.7892 43.1075 10.0948 42.8192 9.58293 42.3067C9.07106 41.7942 8.78363 41.0994 8.78381 40.3751V31.0325C8.78381 30.8533 8.855 30.6815 8.98171 30.5547C9.10843 30.428 9.28029 30.3568 9.45949 30.3568C9.63869 30.3568 9.81055 30.428 9.93726 30.5547C10.064 30.6815 10.1352 30.8533 10.1352 31.0325V40.3751C10.1311 40.5586 10.1637 40.7411 10.2312 40.9119C10.2986 41.0826 10.3994 41.2382 10.5278 41.3694C10.6562 41.5007 10.8095 41.6049 10.9787 41.6761C11.1479 41.7473 11.3296 41.784 11.5132 41.784C11.6968 41.784 11.8785 41.7473 12.0477 41.6761C12.2169 41.6049 12.3702 41.5007 12.4986 41.3694C12.627 41.2382 12.7278 41.0826 12.7952 40.9119C12.8627 40.7411 12.8953 40.5586 12.8912 40.3751V24.1143C12.8912 23.9351 12.9624 23.7632 13.0891 23.6365C13.2159 23.5098 13.3877 23.4386 13.5669 23.4386C13.7461 23.4386 13.918 23.5098 14.0447 23.6365C14.1714 23.7632 14.2426 23.9351 14.2426 24.1143V40.3751C14.2428 41.0993 13.9554 41.794 13.4437 42.3064C12.932 42.8189 12.2378 43.1073 11.5135 43.1082Z" fill="#D4AF37"/>
<path d="M9.45927 15.4054C8.61737 15.4054 7.79437 15.1557 7.09435 14.688C6.39433 14.2202 5.84873 13.5554 5.52654 12.7776C5.20436 11.9998 5.12006 11.1439 5.28431 10.3182C5.44856 9.49242 5.85397 8.73394 6.44929 8.13862C7.04461 7.5433 7.80309 7.13789 8.62882 6.97364C9.45455 6.80939 10.3104 6.89369 11.0883 7.21587C11.8661 7.53806 12.5309 8.08366 12.9986 8.78368C13.4664 9.4837 13.716 10.3067 13.716 11.1486C13.715 12.2772 13.2661 13.3593 12.4681 14.1574C11.67 14.9555 10.5879 15.4043 9.45927 15.4054ZM9.45927 8.2432C8.88464 8.2432 8.32291 8.4136 7.84512 8.73285C7.36732 9.0521 6.99493 9.50586 6.77503 10.0368C6.55512 10.5676 6.49759 11.1518 6.60969 11.7154C6.7218 12.279 6.99851 12.7967 7.40484 13.203C7.81117 13.6094 8.32886 13.8861 8.89246 13.9982C9.45605 14.1103 10.0402 14.0528 10.5711 13.8328C11.102 13.6129 11.5558 13.2406 11.875 12.7628C12.1943 12.285 12.3647 11.7232 12.3647 11.1486C12.3638 10.3786 12.0573 9.64049 11.5125 9.09636C10.9677 8.55222 10.2292 8.24658 9.45927 8.24658V8.2432Z" fill="#D4AF37"/>
<path d="M32.7703 10.135H17.2298C17.0506 10.135 16.8787 10.0639 16.752 9.93714C16.6253 9.81043 16.5541 9.63857 16.5541 9.45937C16.5541 9.28017 16.6253 9.10831 16.752 8.98159C16.8787 8.85488 17.0506 8.78369 17.2298 8.78369H32.7703C32.9495 8.78369 33.1214 8.85488 33.2481 8.98159C33.3748 9.10831 33.446 9.28017 33.446 9.45937C33.446 9.63857 33.3748 9.81043 33.2481 9.93714C33.1214 10.0639 32.9495 10.135 32.7703 10.135Z" fill="#D4AF37"/>
<path d="M31.1864 11.9933C31.0575 11.9928 30.9314 11.9554 30.823 11.8855C30.7147 11.8157 30.6285 11.7163 30.5748 11.5991C30.5211 11.4818 30.5021 11.3517 30.5199 11.224C30.5378 11.0963 30.5918 10.9764 30.6756 10.8784L31.8824 9.4595L30.6756 8.04058C30.5592 7.90421 30.5016 7.72716 30.5157 7.54836C30.5298 7.36957 30.6143 7.20369 30.7506 7.08721C30.887 6.97073 31.0641 6.91319 31.2429 6.92726C31.4217 6.94132 31.5875 7.02583 31.704 7.16221L33.2878 9.02031C33.3925 9.1427 33.45 9.29845 33.45 9.4595C33.45 9.62055 33.3925 9.77631 33.2878 9.89869L31.7006 11.7568C31.6373 11.8313 31.5585 11.891 31.4697 11.9319C31.3809 11.9727 31.2842 11.9937 31.1864 11.9933Z" fill="#D4AF37"/>
<path d="M18.8134 11.9933C18.7155 11.9935 18.6188 11.9723 18.53 11.9312C18.4412 11.8902 18.3624 11.8302 18.2992 11.7555L16.7154 9.89735C16.6107 9.77496 16.5532 9.61921 16.5532 9.45816C16.5532 9.29711 16.6107 9.14136 16.7154 9.01897L18.2992 7.16086C18.3569 7.09334 18.4273 7.03783 18.5064 6.99752C18.5855 6.95721 18.6718 6.93288 18.7604 6.92591C18.8489 6.91895 18.9379 6.92949 19.0224 6.95693C19.1068 6.98438 19.1851 7.02819 19.2526 7.08586C19.3201 7.14354 19.3756 7.21395 19.4159 7.29307C19.4562 7.3722 19.4806 7.45849 19.4875 7.54702C19.4945 7.63555 19.484 7.72458 19.4565 7.80904C19.4291 7.89349 19.3853 7.97172 19.3276 8.03924L18.1175 9.45951L19.3276 10.8784C19.4112 10.9767 19.4649 11.0968 19.4824 11.2245C19.4999 11.3523 19.4805 11.4824 19.4264 11.5995C19.3723 11.7166 19.2859 11.8158 19.1773 11.8853C19.0686 11.9549 18.9424 11.9919 18.8134 11.9919V11.9933Z" fill="#D4AF37"/>
</svg>
