<svg width="35" height="35" viewBox="0 0 35 35" fill="none" xmlns="http://www.w3.org/2000/svg">
<g clip-path="url(#clip0)">
<path d="M27.0548 15.1656V12.9577C27.0548 11.5414 25.9026 10.3892 24.4863 10.3892H7.67116V9.02732C8.65164 8.79471 9.38349 7.91239 9.38349 6.86177C9.38349 5.63437 8.38493 4.63574 7.15747 4.63574C5.93 4.63574 4.93144 5.63437 4.93144 6.86177C4.93144 7.91239 5.66329 8.79471 6.64377 9.02732V10.3892H2.56849C1.15219 10.3892 0 11.5414 0 12.9577V28.0261C0 29.4424 1.15219 30.5946 2.56849 30.5946H24.4863C25.9026 30.5946 27.0548 29.4424 27.0548 28.0261V25.8182L35 29.5168V11.467L27.0548 15.1656ZM5.95884 6.86177C5.95884 6.20088 6.49658 5.66314 7.15747 5.66314C7.81836 5.66314 8.3561 6.20088 8.3561 6.86177C8.3561 7.52266 7.81836 8.0604 7.15747 8.0604C6.49658 8.0604 5.95884 7.52266 5.95884 6.86177ZM33.9726 27.9053L26.0274 24.2067V28.0261C26.0274 28.8759 25.336 29.5672 24.4863 29.5672H2.56849C1.71877 29.5672 1.0274 28.8759 1.0274 28.0261V12.9577C1.0274 12.1079 1.71877 11.4166 2.56849 11.4166H24.4863C25.336 11.4166 26.0274 12.1079 26.0274 12.9577V16.7771L33.9726 13.0785V27.9053Z" fill="#70B9D7"/>
<path d="M2.25577 8.85965C1.71255 7.54801 1.71166 6.10554 2.2533 4.79794L1.30419 4.40479C0.657548 5.96588 0.658369 7.6876 1.30666 9.2528L2.25577 8.85965Z" fill="#70B9D7"/>
<path d="M12.0616 8.86063L13.0107 9.25378C13.6574 7.69255 13.6565 5.97083 13.0082 4.40576L12.0591 4.79891C12.6023 6.11049 12.6032 7.55296 12.0616 8.86063Z" fill="#70B9D7"/>
<path d="M4.15342 8.07345C3.82041 7.26961 3.81986 6.38551 4.15178 5.58407L3.20267 5.19092C2.76568 6.24592 2.7663 7.40927 3.20431 8.46667L4.15342 8.07345Z" fill="#70B9D7"/>
<path d="M10.1632 8.0745L11.1123 8.46765C11.5493 7.41272 11.5487 6.24936 11.1107 5.19189L10.1616 5.58505C10.4946 6.38902 10.495 7.27306 10.1632 8.0745Z" fill="#70B9D7"/>
<path d="M17.0605 15.3455L16.8649 15.5414L16.6693 15.3455C15.0013 13.6759 12.2823 13.6706 10.6082 15.3338C10.5259 15.4156 10.4483 15.5009 10.3735 15.5879L10.1313 15.3455C8.46343 13.6759 5.74439 13.6707 4.07028 15.3338C3.2587 16.1399 2.81055 17.2129 2.80836 18.3554C2.8061 19.4978 3.25007 20.5727 4.0585 21.3819L10.327 27.6571L13.596 24.3846L16.865 27.6571L23.1335 21.3819C23.9419 20.5727 24.3859 19.4979 24.3837 18.3554C24.3814 17.213 23.9333 16.1399 23.1218 15.3338C21.4474 13.6707 18.7284 13.6759 17.0605 15.3455ZM10.3269 26.2034L4.78521 20.6559C4.17117 20.0412 3.83391 19.2249 3.83562 18.3575C3.83733 17.49 4.17774 16.6751 4.79425 16.0628C6.0676 14.7978 8.13582 14.8018 9.40438 16.0717L9.79301 16.4608C9.50267 17.0424 9.34754 17.6868 9.34623 18.3555C9.34397 19.498 9.78795 20.5728 10.5964 21.382L12.8698 23.6579L10.3269 26.2034ZM22.4066 20.6559L16.8649 26.2034L11.3232 20.6559C10.7092 20.0412 10.3719 19.2249 10.3736 18.3575C10.3753 17.49 10.7158 16.6751 11.3323 16.0627C11.9674 15.4318 12.8 15.1166 13.6327 15.1166C14.4696 15.1166 15.3066 15.4351 15.9424 16.0716L16.865 16.9952L17.7876 16.0716C19.0562 14.8017 21.1243 14.7977 22.3977 16.0628C23.0142 16.6751 23.3546 17.4901 23.3563 18.3575C23.3578 19.2249 23.0206 20.0412 22.4066 20.6559Z" fill="#70B9D7"/>
</g>
<defs>
<clipPath id="clip0">
<rect width="35" height="35" fill="white"/>
</clipPath>
</defs>
</svg>
