<svg width="25" height="25" viewBox="0 0 25 25" fill="none" xmlns="http://www.w3.org/2000/svg">
<path d="M11.9791 7.29166C13.4173 7.29166 14.5833 8.45758 14.5833 9.89582C14.5833 11.3341 13.4173 12.5 11.9791 12.5C10.5409 12.5 9.37492 11.3341 9.37492 9.89582C9.37492 8.45758 10.5409 7.29166 11.9791 7.29166ZM11.9791 8.33332C11.1162 8.33332 10.4166 9.03289 10.4166 9.89582C10.4166 10.7587 11.1162 11.4583 11.9791 11.4583C12.842 11.4583 13.5416 10.7587 13.5416 9.89582C13.5416 9.03289 12.842 8.33332 11.9791 8.33332ZM7.08374 12.8723L11.9791 20.9236L16.8744 12.8723L16.8751 12.8727C17.4038 12.0051 17.7083 10.986 17.7083 9.89582C17.7083 6.7317 15.1433 4.16666 11.9791 4.16666C8.81495 4.16666 6.24992 6.7317 6.24992 9.89582C6.24992 10.986 6.55443 12.0051 7.08304 12.8727L7.08374 12.8723ZM17.7645 13.4134L11.9791 22.9287L6.19368 13.4134L6.19286 13.4139C5.56813 12.3886 5.20825 11.1843 5.20825 9.89583C5.20825 6.15641 8.23966 3.125 11.9791 3.125C15.7185 3.125 18.7499 6.15641 18.7499 9.89583C18.7499 11.1843 18.39 12.3886 17.7653 13.4139L17.7645 13.4134Z" fill="#D4AF37"/>
</svg>
