<svg width="21" height="20" viewBox="0 0 21 20" fill="none" xmlns="http://www.w3.org/2000/svg">
<path d="M10.0833 5.83333C11.2339 5.83333 12.1666 6.76607 12.1666 7.91666C12.1666 9.06724 11.2339 9.99999 10.0833 9.99999C8.93271 9.99999 7.99996 9.06724 7.99996 7.91666C7.99996 6.76607 8.93271 5.83333 10.0833 5.83333ZM10.0833 6.66666C9.39296 6.66666 8.83329 7.22631 8.83329 7.91666C8.83329 8.60699 9.39296 9.16666 10.0833 9.16666C10.7736 9.16666 11.3333 8.60699 11.3333 7.91666C11.3333 7.22631 10.7736 6.66666 10.0833 6.66666ZM6.16702 10.2978L10.0833 16.7389L13.9995 10.2978L14.0001 10.2982C14.423 9.60408 14.6666 8.78883 14.6666 7.91666C14.6666 5.38536 12.6146 3.33333 10.0833 3.33333C7.55199 3.33333 5.49996 5.38536 5.49996 7.91666C5.49996 8.78883 5.74357 9.60408 6.16646 10.2982L6.16702 10.2978ZM14.7116 10.7307L10.0833 18.343L5.45497 10.7307L5.45431 10.7312C4.95453 9.91091 4.66663 8.94741 4.66663 7.91667C4.66663 4.92512 7.09175 2.5 10.0833 2.5C13.0748 2.5 15.5 4.92512 15.5 7.91667C15.5 8.94741 15.212 9.91091 14.7123 10.7312L14.7116 10.7307Z" fill="#3F6D97"/>
</svg>
