<svg width="50" height="50" viewBox="0 0 50 50" fill="none" xmlns="http://www.w3.org/2000/svg">
<g clip-path="url(#clip0)">
<path d="M49.3974 15.9821L49.2324 15.699C48.542 14.5147 47.3674 13.7263 46.0098 13.5359C45.0039 13.3948 44.0044 13.5977 43.1513 14.098C42.9754 13.8316 42.7236 13.6208 42.4195 13.4982C41.1802 12.9987 39.9097 12.5488 38.6431 12.1608C38.2612 12.0437 37.856 12.2587 37.7388 12.641C37.6217 13.0233 37.8367 13.4282 38.219 13.5453C39.4462 13.9214 40.6774 14.3573 41.8783 14.8412C41.9183 14.8573 41.9499 14.8915 41.9628 14.9327C42.1384 15.4946 42.299 16.0525 42.4479 16.6071C31.4116 14.5807 19.6795 14.6097 7.53829 16.6944C7.71108 16.112 7.90105 15.5308 8.10859 14.9529C8.12278 14.9134 8.1557 14.881 8.19672 14.8662C12.8811 13.1766 17.5281 12.1411 22.0082 11.7882C26.4788 11.4363 30.9121 11.7541 35.184 12.7332C35.5738 12.8222 35.9622 12.5789 36.0514 12.1892C36.1407 11.7994 35.8971 11.4111 35.5075 11.3218C26.6822 9.29911 17.3283 10.0332 7.70529 13.5042C7.37294 13.624 7.09551 13.8471 6.90834 14.1362C6.04237 13.6094 5.02021 13.3916 3.99033 13.536C2.63283 13.7265 1.45826 14.5149 0.767778 15.6991L0.602712 15.9823C-0.100219 17.1881 -0.194143 18.675 0.351734 19.9594C0.351734 19.9594 6.13581 33.5674 6.14343 33.5824C6.32684 34.194 6.52917 34.8043 6.75167 35.4127C6.90737 35.8382 7.23876 36.1783 7.66098 36.3457C13.4265 38.6326 19.2763 39.7922 25.0483 39.7922H25.0527C30.8261 39.7916 36.6775 38.6309 42.4444 36.3423C42.8572 36.1784 43.1851 35.8477 43.3436 35.4352C43.6802 34.5594 43.9676 33.6668 44.2096 32.7595L49.6481 19.9595C50.1943 18.6749 50.1004 17.1881 49.3974 15.9821ZM42.9841 31.6966C33.334 33.5693 23.9472 33.9379 14.3009 32.8214C13.9039 32.7752 13.5445 33.0602 13.4984 33.4574C13.4524 33.8545 13.7372 34.2138 14.1344 34.2598C17.811 34.6854 21.4485 34.8987 25.0787 34.8987C30.8922 34.8987 36.6841 34.348 42.5658 33.2484C42.3942 33.811 42.2031 34.3668 41.9921 34.9157C41.9784 34.9513 41.9479 34.9815 41.9104 34.9964C36.3142 37.2173 30.6424 38.3436 25.0527 38.3442C25.0509 38.3442 25.0502 38.3442 25.0484 38.3442C19.4603 38.3441 13.7895 37.219 8.19499 34.9998C8.15657 34.9847 8.12539 34.953 8.11168 34.9155C7.91148 34.3679 7.72942 33.8189 7.56243 33.2688C8.71567 33.4829 9.87548 33.6791 11.0258 33.8502C11.0619 33.8556 11.0978 33.8582 11.1333 33.8582C11.4859 33.8582 11.7949 33.5999 11.8484 33.2407C11.9071 32.8451 11.6343 32.4768 11.2389 32.4181C9.87576 32.2154 8.49838 31.9785 7.13596 31.7159C6.68902 29.9002 6.4225 28.0752 6.33659 26.2506H28.0132C28.4131 26.2506 28.7371 25.9266 28.7371 25.5267C28.7371 25.1267 28.4131 24.8027 28.0132 24.8027H6.30609C6.30985 24.1229 6.33649 23.4436 6.39074 22.7653C6.4226 22.3668 6.12538 22.0178 5.72681 21.9859C5.32698 21.9552 4.97928 22.2514 4.94733 22.6498C4.83063 24.1081 4.82513 25.5703 4.92986 27.0316L1.68443 19.3932C1.31636 18.5272 1.37968 17.5247 1.85374 16.7117L2.01881 16.4285C2.48427 15.6301 3.27621 15.0984 4.1916 14.9701C4.97851 14.8601 5.75818 15.0615 6.38544 15.5254C5.96041 16.8431 5.61947 18.1717 5.37158 19.4884C5.29754 19.8813 5.55605 20.2598 5.94902 20.3338C5.9943 20.3424 6.03938 20.3465 6.08378 20.3465C6.42501 20.3465 6.72899 20.104 6.79434 19.7564C6.88951 19.2511 7.00043 18.7437 7.1236 18.2358C19.5682 16.0245 31.5759 15.9959 42.8298 18.1505C43.3467 20.4358 43.6315 22.6554 43.6821 24.803H31.3595C30.9595 24.803 30.6355 25.127 30.6355 25.527C30.6355 25.9269 30.9595 26.2509 31.3595 26.2509H43.6798C43.631 28.125 43.3991 29.9417 42.9841 31.6966ZM48.3158 19.3932L45.1039 26.9527C45.2792 23.3284 44.7924 19.5029 43.6443 15.5047C44.2665 15.0556 45.034 14.8613 45.8087 14.9699C46.7239 15.0982 47.516 15.6299 47.9814 16.4283L48.1465 16.7115C48.6206 17.5245 48.6838 18.5271 48.3158 19.3932Z" fill="#D4AF37"/>
</g>
<defs>
<clipPath id="clip0">
<rect width="50" height="50" fill="white"/>
</clipPath>
</defs>
</svg>
