<svg width="35" height="35" viewBox="0 0 35 35" fill="none" xmlns="http://www.w3.org/2000/svg">
<path d="M25.5453 3.14917C25.515 2.31817 25.1762 1.5417 24.5825 0.951943C23.3011 -0.320856 21.2203 -0.316747 19.9441 0.960917L19.8974 1.00763L19.8508 0.960917C18.5745 -0.316678 16.4937 -0.320925 15.2123 0.951943C15.1846 0.979479 15.1581 1.00797 15.1314 1.03633L15.0561 0.960917C13.7798 -0.316678 11.699 -0.320925 10.4176 0.951943C9.82385 1.5417 9.48507 2.31817 9.45473 3.14917H1.91711V35H33.083V3.14917H25.5453ZM25.4211 4.17662H31.329L30.3015 5.20406H24.9157C25.1453 4.8924 25.3153 4.5452 25.4211 4.17662ZM15.9365 1.68088C16.3756 1.24456 16.9512 1.0266 17.5271 1.0266C18.1056 1.0266 18.6843 1.24689 19.1239 1.68705L19.8974 2.46126L20.6709 1.68705C21.548 0.808923 22.9779 0.80632 23.8584 1.68088C24.2845 2.10412 24.5197 2.6673 24.5209 3.26678C24.5221 3.86626 24.289 4.4304 23.8646 4.85521L19.8974 8.82656L15.9302 4.85528C15.5058 4.43046 15.2727 3.86633 15.2739 3.26685C15.2751 2.66737 15.5104 2.10412 15.9365 1.68088ZM11.1417 1.68088C12.0221 0.806115 13.452 0.808855 14.3292 1.68705L14.5454 1.90356C14.3509 2.32509 14.2473 2.78689 14.2465 3.26486C14.2448 4.13935 14.5846 4.96206 15.2034 5.58148L16.7739 7.15367L15.1027 8.8267L11.1355 4.85528C10.7111 4.43046 10.478 3.86633 10.4792 3.26685C10.4803 2.66737 10.7156 2.10412 11.1417 1.68088ZM11.058 6.23151L15.1027 10.2805L17.5 7.88056L19.8974 10.2805L23.942 6.23151H30.0006V22.3443C29.7523 22.157 29.4678 22.0129 29.1567 21.9251L25.6853 20.946V19.5816C26.6355 18.9338 27.2608 17.8429 27.2608 16.6087V15.1018C27.2608 13.119 25.6475 11.5057 23.6647 11.5057C21.6819 11.5057 20.0686 13.119 20.0686 15.1018V16.6087C20.0686 17.8429 20.6939 18.9338 21.6441 19.5816V20.946L18.1727 21.9251C17.109 22.2252 16.3553 23.1831 16.3043 24.2789C16.0911 24.1186 15.8505 23.9896 15.5882 23.9004L12.808 22.9536V22.5336H12.8423C14.2586 22.5336 15.4109 21.3814 15.4109 19.965V17.7731C15.4109 15.1482 13.2753 13.0127 10.6504 13.0127C8.02548 13.0127 5.8899 15.1482 5.8899 17.7731V19.965C5.8899 21.3814 7.04215 22.5336 8.45852 22.5336H8.49276V22.9536L5.71263 23.9004C5.45153 23.9893 5.21193 24.1174 4.99945 24.2767V6.23151H11.058ZM28.1512 27.3969V25.5817H27.1238V31.9177H20.2056V25.5817H19.1782V27.3969H17.3288V26.3318V24.3974C17.3288 23.7105 17.7905 23.1005 18.4517 22.9141L21.9656 21.923C22.3981 22.3963 23.0093 22.6707 23.6647 22.6707C24.3201 22.6707 24.9313 22.3963 25.3638 21.923L28.8778 22.9141C29.5388 23.1005 30.0006 23.7105 30.0006 24.3974V27.3969H28.1512ZM30.0006 28.4243V31.9177H28.1512V28.4243H30.0006ZM19.1782 28.4243V31.9177H17.3288V28.4243H19.1782ZM24.6421 15.273L26.1481 17.2648C25.8573 18.3643 24.8543 19.1773 23.6648 19.1773C22.2484 19.1773 21.0962 18.0251 21.0962 16.6087V15.273H24.6421ZM21.2434 14.2456C21.5968 13.249 22.5485 12.5332 23.6647 12.5332C25.0811 12.5332 26.2333 13.6854 26.2333 15.1018V15.674L25.1532 14.2456H21.2434ZM24.6579 20.0641V21.1692C24.4166 21.4681 24.0548 21.6432 23.6647 21.6432C23.2746 21.6432 22.9128 21.4681 22.6715 21.1692V20.0641C22.9872 20.155 23.3202 20.2048 23.6647 20.2048C24.0092 20.2048 24.3422 20.155 24.6579 20.0641ZM14.8629 29.4518V28.0476H13.8355V31.9177H7.46532V28.0476H6.43787V29.4518H4.99945V26.3318C4.99945 25.6719 5.41913 25.0856 6.04381 24.8729L7.26531 24.457L10.6504 27.2778L14.0355 24.457L15.257 24.8729C15.8816 25.0855 16.3013 25.6719 16.3013 26.3318V29.4518H14.8629ZM16.3013 30.4792V31.9177H14.8629V30.4792H16.3013ZM6.43787 30.4792V31.9177H4.99945V30.4792H6.43787ZM8.39201 21.5045C7.57299 21.4695 6.91735 20.7925 6.91735 19.965V17.7731C6.91735 15.7147 8.59195 14.0401 10.6504 14.0401C12.7089 14.0401 14.3834 15.7147 14.3834 17.7731V19.965C14.3834 20.7925 13.7278 21.4696 12.9088 21.5045C13.2329 21.0505 13.4245 20.4956 13.4245 19.8965V19.4171C13.4245 18.0762 12.3337 16.9854 10.9929 16.9854H7.8763V19.8965C7.8763 20.4957 8.06781 21.0506 8.39201 21.5045ZM8.90374 18.0129H10.9929C11.7672 18.0129 12.3971 18.6428 12.3971 19.4171V19.8965C12.3971 20.8597 11.6135 21.6432 10.6504 21.6432C9.68727 21.6432 8.90374 20.8597 8.90374 19.8965V18.0129ZM9.52021 23.6891V22.429C9.86571 22.5838 10.248 22.6706 10.6504 22.6706C11.0528 22.6706 11.4351 22.5838 11.7806 22.429V23.6891L12.8961 24.069L10.6504 25.9405L8.40468 24.069L9.52021 23.6891ZM9.57898 4.17662C9.68474 4.5452 9.85474 4.8924 10.0843 5.20406H4.69855L3.6711 4.17662H9.57898ZM2.94456 4.90316L3.972 5.9306V26.3318V32.2185L2.94456 33.2459V4.90316ZM3.6711 33.9725L4.69855 32.9451H30.3015L31.3289 33.9725H3.6711ZM32.0555 33.246L31.0281 32.2186V24.3974V5.9306L32.0555 4.90316V33.246Z" fill="#70B9D7"/>
</svg>
