<svg width="35" height="35" viewBox="0 0 35 35" fill="none" xmlns="http://www.w3.org/2000/svg">
<path d="M33.1164 2.46575H32.0548V0H28.2877V2.46575H25.7192V0H21.9521V2.46575H19.3836V0H15.6164V2.46575H13.0479V0H9.28082V2.46575H6.71233V0H2.94521V2.46575H1.88356C0.844932 2.46575 0 3.31068 0 4.34932V33.1164C0 34.1551 0.844932 35 1.88356 35H33.1164C34.1551 35 35 34.1551 35 33.1164V4.34932C35 3.31068 34.1551 2.46575 33.1164 2.46575ZM29.3151 1.0274H31.0274V4.93151H29.3151V1.0274ZM22.9795 1.0274H24.6918V4.93151H22.9795V1.0274ZM16.6438 1.0274H18.3562V4.93151H16.6438V1.0274ZM10.3082 1.0274H12.0205V4.93151H10.3082V1.0274ZM3.9726 1.0274H5.68493V4.93151H3.9726V1.0274ZM33.9726 33.1164C33.9726 33.5886 33.5886 33.9726 33.1164 33.9726H1.88356C1.41144 33.9726 1.0274 33.5886 1.0274 33.1164V11.7123H33.9726V33.1164ZM33.9726 10.6849H1.0274V4.34932C1.0274 3.87719 1.41144 3.49315 1.88356 3.49315H2.94521V5.9589H6.71233V3.49315H9.28082V5.9589H13.0479V3.49315H15.6164V5.9589H19.3836V3.49315H21.9521V5.9589H25.7192V3.49315H28.2877V5.9589H32.0548V3.49315H33.1164C33.5886 3.49315 33.9726 3.87719 33.9726 4.34932V10.6849Z" fill="#70B9D7"/>
<path d="M19.041 7.94531H20.0684V8.97271H19.041V7.94531Z" fill="#70B9D7"/>
<path d="M16.9863 7.94531H18.0137V8.97271H16.9863V7.94531Z" fill="#70B9D7"/>
<path d="M14.9314 7.94531H15.9588V8.97271H14.9314V7.94531Z" fill="#70B9D7"/>
<path d="M12.7054 32.9453C14.427 32.9453 16.0779 32.4499 17.5031 31.5098C18.8796 32.4166 20.5263 32.9453 22.2945 32.9453C27.1098 32.9453 31.0273 29.0278 31.0273 24.2124C31.0273 22.3949 30.4743 20.6526 29.4279 19.1739C28.5558 17.9412 27.3982 16.9691 26.0512 16.3282C26.7849 15.4737 26.7461 14.1809 25.9356 13.3736C25.5252 12.9648 24.9806 12.7399 24.4016 12.7399C24.4001 12.7399 24.3987 12.7399 24.3973 12.7399C23.8707 12.7409 23.3731 12.9278 22.9794 13.2694C22.5857 12.9278 22.088 12.7408 21.5615 12.7398C21.5601 12.7398 21.5586 12.7398 21.5572 12.7398C20.9782 12.7398 20.4336 12.9648 20.0232 13.3735C19.3398 14.0543 19.2051 15.0802 19.6193 15.8975C18.8699 16.1378 18.1597 16.4783 17.4975 16.9151C16.8412 16.4836 16.1288 16.14 15.3801 15.8986C15.795 15.0811 15.6605 14.0546 14.9768 13.3735C14.5664 12.9647 14.0219 12.7398 13.4428 12.7398C13.4414 12.7398 13.4399 12.7398 13.4385 12.7398C12.9119 12.7408 12.4143 12.9278 12.0206 13.2693C11.6269 12.9277 11.1292 12.7408 10.6027 12.7397C10.6013 12.7397 10.5999 12.7397 10.5984 12.7397C10.0195 12.7397 9.47479 12.9647 9.06445 13.3734C8.2539 14.1808 8.21521 15.4735 8.94884 16.328C7.60192 16.969 6.44425 17.9411 5.57205 19.1738C4.52555 20.6526 3.97253 22.3949 3.97253 24.2124C3.97253 29.0278 7.89007 32.9453 12.7054 32.9453ZM29.9999 24.2124C29.9999 28.4613 26.5432 31.9179 22.2945 31.9179C18.0457 31.9179 14.589 28.4613 14.589 24.2124C14.589 22.58 15.1125 20.9868 16.0687 19.6748C16.3467 19.8814 16.6046 20.1134 16.8401 20.3665C16.0491 21.4879 15.6164 22.837 15.6164 24.2124C15.6164 27.8948 18.6121 30.8905 22.2945 30.8905C25.9768 30.8905 28.9725 27.8948 28.9725 24.2124C28.9725 21.3483 27.1339 18.8267 24.4895 17.9054L25.2831 17.1087C28.1175 18.3029 29.9999 21.1167 29.9999 24.2124ZM15.1904 29.2856C14.4199 29.6645 13.5712 29.8631 12.7054 29.8631C9.58966 29.8631 7.05473 27.3282 7.05473 24.2124C7.05473 21.6174 8.83815 19.3544 11.3325 18.7308L12.0205 19.4214L12.8726 18.566C13.701 18.5902 14.4852 18.7926 15.1878 19.1376C14.1355 20.6115 13.5616 22.3909 13.5616 24.2124C13.5616 26.1028 14.1655 27.8547 15.1904 29.2856ZM17.5003 21.2275C18.0419 22.0943 18.3561 23.1171 18.3561 24.2124C18.3561 25.2679 18.0551 26.3054 17.4996 27.1974C16.958 26.3305 16.6438 25.3077 16.6438 24.2124C16.6438 23.1569 16.9448 22.1194 17.5003 21.2275ZM19.8121 29.2872C20.8644 27.8134 21.4383 26.0339 21.4383 24.2124C21.4383 22.3932 20.864 20.6109 19.8125 19.1376C20.5321 18.7843 21.3199 18.5887 22.126 18.5647L22.9794 19.4214L23.6673 18.7308C26.1617 19.3544 27.9451 21.6174 27.9451 24.2124C27.9451 27.3282 25.4102 29.8631 22.2945 29.8631C21.4042 29.8631 20.5618 29.6555 19.8121 29.2872ZM20.7482 14.1014C20.9647 13.8858 21.2519 13.7672 21.5573 13.7672H21.5595C21.8658 13.7678 22.1534 13.8876 22.3695 14.1046L22.9794 14.7169L23.5893 14.1046C23.8054 13.8877 24.093 13.7678 24.3993 13.7673H24.4015C24.7069 13.7673 24.9941 13.8859 25.2106 14.1015C25.6584 14.5476 25.6598 15.2748 25.2137 15.7226L22.9794 17.9656L20.7451 15.7226C20.299 15.2747 20.3004 14.5475 20.7482 14.1014ZM20.3288 16.7605L21.1916 17.6267C20.479 17.746 19.7899 17.9804 19.1506 18.3228C18.9079 18.0576 18.6497 17.8083 18.3776 17.5759C18.9883 17.2139 19.6415 16.9408 20.3288 16.7605ZM20.4109 24.2124C20.4109 25.8448 19.8874 27.438 18.9312 28.75C18.6532 28.5434 18.3953 28.3114 18.1597 28.0583C18.9508 26.9369 19.3835 25.5878 19.3835 24.2124C19.3835 20.906 16.9679 18.1536 13.8089 17.626L14.6706 16.761C18.0129 17.6413 20.4109 20.7302 20.4109 24.2124ZM9.78932 14.1014C10.0058 13.8858 10.2929 13.7672 10.5984 13.7672H10.6006C10.9069 13.7678 11.1945 13.8876 11.4105 14.1046L12.0205 14.7169L12.6304 14.1046C12.8465 13.8877 13.1341 13.7678 13.4403 13.7673H13.4426C13.748 13.7673 14.0352 13.8859 14.2516 14.1015C14.6995 14.5476 14.7009 15.2748 14.2548 15.7226L12.0205 17.9656L9.78616 15.7226C9.34007 15.2747 9.34151 14.5475 9.78932 14.1014ZM9.71678 17.1087L10.5104 17.9054C7.86596 18.8267 6.02733 21.3483 6.02733 24.2124C6.02733 27.8948 9.02308 30.8905 12.7054 30.8905C13.8073 30.8905 14.886 30.6184 15.8513 30.1009C16.0931 30.3652 16.351 30.6145 16.6233 30.8476C15.4404 31.5491 14.0995 31.9179 12.7054 31.9179C8.45664 31.9179 4.99993 28.4613 4.99993 24.2124C4.99993 21.1167 6.8824 18.3029 9.71678 17.1087Z" fill="#70B9D7"/>
</svg>
