<svg width="35" height="35" viewBox="0 0 35 35" fill="none" xmlns="http://www.w3.org/2000/svg">
<g clip-path="url(#clip0)">
<path d="M27.2603 23.0137V0H2.26025V31.7466C2.26025 33.5405 3.71977 35 5.51368 35H29.4863C31.2802 35 32.7397 33.5405 32.7397 31.7466V23.0137H27.2603ZM5.51368 33.9726C4.28628 33.9726 3.28765 32.974 3.28765 31.7466V1.0274H26.2329V31.7466C26.2329 32.6068 26.5685 33.3902 27.1157 33.9726H5.51368ZM31.7123 31.7466C31.7123 32.974 30.7137 33.9726 29.4863 33.9726C28.2589 33.9726 27.2603 32.974 27.2603 31.7466V24.0411H31.7123V31.7466Z" fill="#70B9D7"/>
<path d="M12.4721 12.6445L14.7604 10.3451L17.0487 12.6445L21.5464 8.12502C22.7737 6.89173 22.7698 4.88886 21.5377 3.6603C20.9421 3.06653 20.1517 2.73975 19.3113 2.73975C19.3093 2.73975 19.3071 2.73975 19.305 2.73975C18.4623 2.74132 17.6706 3.07139 17.0759 3.66893L17.0487 3.69632L17.0215 3.66893C16.4267 3.07139 15.635 2.74139 14.7922 2.73975C13.9491 2.73886 13.1566 3.06509 12.5596 3.6603C12.5389 3.68098 12.5193 3.70249 12.4992 3.72365L12.4447 3.66899C11.8501 3.07139 11.0584 2.74139 10.2157 2.73975C10.2136 2.73975 10.2115 2.73975 10.2094 2.73975C9.369 2.73975 8.57852 3.06653 7.98304 3.6603C6.75091 4.88886 6.74701 6.89167 7.97441 8.12495L12.4721 12.6445ZM13.2851 4.38783C13.6866 3.98749 14.2195 3.76715 14.7861 3.76715H14.7903C15.3584 3.76824 15.8921 3.99078 16.2932 4.39372L17.0487 5.15283L17.8041 4.39372C18.2051 3.99078 18.7388 3.76824 19.3069 3.76715H19.3112C19.8777 3.76715 20.4106 3.98749 20.8122 4.38783C21.6435 5.21673 21.6462 6.5681 20.818 7.40023L17.0486 11.188L13.2791 7.40023C12.4511 6.56817 12.4537 5.2168 13.2851 4.38783ZM8.70845 4.38783C9.11002 3.98749 9.6429 3.76715 10.2095 3.76715H10.2137C10.7819 3.76824 11.3156 3.99078 11.7166 4.39372L11.9141 4.59221C11.389 5.75331 11.6004 7.16988 12.551 8.12509L14.0356 9.61694L12.4721 11.1881L8.70263 7.40036C7.87448 6.56817 7.87715 5.2168 8.70845 4.38783Z" fill="#70B9D7"/>
<path d="M6.88355 17.8694L6.15088 17.1367L5.42444 17.8631L6.88355 19.3222L9.57554 16.6302L8.8491 15.9038L6.88355 17.8694Z" fill="#70B9D7"/>
<path d="M10.8561 15.8906H23.8698V16.918H10.8561V15.8906Z" fill="#70B9D7"/>
<path d="M10.8561 17.9453H19.0753V18.9727H10.8561V17.9453Z" fill="#70B9D7"/>
<path d="M5.54797 25.1372H9.31509V21.3701H5.54797V25.1372ZM6.57537 22.3975H8.2877V24.1098H6.57537V22.3975Z" fill="#70B9D7"/>
<path d="M10.8561 21.3701H23.8698V22.3975H10.8561V21.3701Z" fill="#70B9D7"/>
<path d="M10.8561 23.4248H19.0753V24.4522H10.8561V23.4248Z" fill="#70B9D7"/>
<path d="M5.54797 30.6162H9.31509V26.8491H5.54797V30.6162ZM6.57537 27.8765H8.2877V29.5888H6.57537V27.8765Z" fill="#70B9D7"/>
<path d="M10.8561 26.8491H23.8698V27.8765H10.8561V26.8491Z" fill="#70B9D7"/>
<path d="M10.8561 28.9043H19.0753V29.9317H10.8561V28.9043Z" fill="#70B9D7"/>
</g>
<defs>
<clipPath id="clip0">
<rect width="35" height="35" fill="white"/>
</clipPath>
</defs>
</svg>
