<svg width="400" height="129" viewBox="0 0 400 129" fill="none" xmlns="http://www.w3.org/2000/svg">
<path d="M0 1.5504C2.45481 0.516802 4.58662 0 6.39542 0C8.20423 0 9.7977 0.172266 11.1758 0.516799C12.554 0.861334 13.9536 1.44274 15.3749 2.261C16.8391 3.03621 18.1957 4.00521 19.4447 5.16802C21.8564 7.45056 23.9021 10.0346 25.5817 12.92L38.5017 37.1451L57.2358 4.90962H57.8172L64.5356 42.8945C65.5692 48.7516 67.3565 53.4029 69.8974 56.8482C72.4384 60.3366 75.9268 62.0808 80.3627 62.0808C80.6641 62.0808 80.9441 62.0808 81.2025 62.0808V62.7268C78.8338 63.3728 76.5082 63.6958 74.2257 63.6958C69.5744 63.6958 65.3324 61.8655 61.4994 58.2048C57.7957 54.7164 55.2763 49.613 53.9412 42.8945L50.7758 24.0959L38.6309 45.1556C36.9944 47.8688 36.1546 50.259 36.1115 52.3262H35.5301L19.4447 21.8349L16.2793 47.675C16.1501 48.6655 16.5807 49.4622 17.5713 50.0652C17.9589 50.3236 18.368 50.4528 18.7987 50.4528H19.8323V51.0342H6.33082V50.3882H7.36443C8.48416 50.3882 9.4747 50.0652 10.336 49.4192C11.2404 48.7301 11.8003 47.8042 12.0156 46.6414L16.4085 15.8271C14.4704 12.3817 12.2525 9.32397 9.75463 6.65382C6.95529 3.63915 4.02675 2.13181 0.969003 2.13181C0.667536 2.13181 0.387601 2.15334 0.1292 2.19641L0 1.5504Z" fill="#4F4F4F"/>
<path d="M97.1441 4.90962C105.111 4.90962 111.442 7.01989 116.137 11.2404C120.831 15.461 123.178 21.1889 123.178 28.4241C123.178 35.6593 120.831 41.3872 116.137 45.6078C111.442 49.8283 105.111 51.9386 97.1441 51.9386C89.1767 51.9386 82.8459 49.8283 78.1516 45.6078C73.4573 41.3872 71.1102 35.6593 71.1102 28.4241C71.1102 23.6437 72.1653 19.4877 74.2756 15.9563C76.429 12.3817 79.4652 9.64696 83.3843 7.75203C87.3033 5.85708 91.8899 4.90962 97.1441 4.90962ZM85.8391 43.6697C88.6384 47.3735 92.4067 49.2254 97.1441 49.2254C101.881 49.2254 105.628 47.3735 108.385 43.6697C111.184 39.9229 112.584 34.8411 112.584 28.4241C112.584 24.2036 111.959 20.5213 110.71 17.3775C109.461 14.2336 107.674 11.8218 105.348 10.1422C103.023 8.46263 100.288 7.62282 97.1441 7.62282C92.4067 7.62282 88.6384 9.49623 85.8391 13.243C83.0828 16.9468 81.7046 22.0071 81.7046 28.4241C81.7046 34.8411 83.0828 39.9229 85.8391 43.6697Z" fill="#4F4F4F"/>
<path d="M210.053 50.3882C211.173 50.3882 212.12 50.0006 212.896 49.2254C213.714 48.4071 214.145 47.4381 214.188 46.3184V10.336C214.058 8.8287 213.348 7.70896 212.056 6.97682C211.41 6.63229 210.742 6.46002 210.053 6.46002H209.213V5.81402H233.955C235.29 5.81402 236.755 5.68482 238.348 5.42642C239.942 5.16802 241.061 4.90962 241.707 4.65121V15.9563H241.061V15.1811C241.061 13.243 240.48 11.6926 239.317 10.5298C238.197 9.32396 236.668 8.67796 234.73 8.59183H223.878V27.3905H232.405C233.998 27.3474 235.312 26.8091 236.345 25.7755C237.379 24.6988 237.896 23.3853 237.896 21.8349V21.2535H238.542V36.1761H237.896V35.6593C237.896 33.506 237.035 31.9125 235.312 30.8789C234.451 30.4052 233.503 30.1468 232.469 30.1037H223.878V48.2564H232.34C235.484 48.2564 238.111 47.352 240.221 45.5432C242.375 43.7343 243.968 41.1719 245.002 37.8557H245.648L242.676 51.0342H209.213V50.3882H210.053Z" fill="#4F4F4F"/>
<path d="M300.032 6.46002C298.956 6.46002 298.03 6.84762 297.254 7.62282C296.479 8.35496 296.07 9.25936 296.027 10.336V43.6697C296.027 46.5552 296.221 48.9885 296.608 50.9696L296.802 51.9386H296.221L263.598 20.8659V46.5122C263.598 47.5888 263.985 48.5148 264.76 49.29C265.536 50.0221 266.462 50.3882 267.538 50.3882H268.766V51.0342H249.192V50.3882H250.355C251.474 50.3882 252.422 50.0221 253.197 49.29C253.972 48.5148 254.36 47.5673 254.36 46.4476V12.92C254.36 10.0776 254.166 7.70896 253.778 5.81402L253.649 4.84502H254.231L286.854 35.9177V10.4006C286.811 9.2809 286.402 8.35496 285.626 7.62282C284.851 6.84762 283.925 6.46002 282.849 6.46002H281.686V5.81402H301.26V6.46002H300.032Z" fill="#4F4F4F"/>
<path d="M329.57 8.46263V46.383C329.613 47.5027 330.022 48.4502 330.797 49.2254C331.615 50.0006 332.584 50.3882 333.704 50.3882H334.479L334.544 51.0342H314.905V50.3882H315.745C316.822 50.3882 317.748 50.0006 318.523 49.2254C319.341 48.4502 319.793 47.5242 319.88 46.4476V8.46263H311.159C309.177 8.50569 307.606 9.13016 306.443 10.336C305.28 11.5419 304.699 13.1138 304.699 15.0518V15.8271H304.053V4.58661C304.655 4.84501 305.732 5.10342 307.283 5.36182C308.876 5.62022 310.34 5.74942 311.675 5.74942H337.709C339.82 5.70635 341.542 5.53408 342.877 5.23261C344.212 4.93115 345.031 4.71582 345.332 4.58661V15.8271H344.686V15.0518C344.686 13.1138 344.105 11.5419 342.942 10.336C341.779 9.13016 340.207 8.50569 338.226 8.46263H329.57Z" fill="#4F4F4F"/>
<path d="M373.966 4.90962C381.934 4.90962 388.264 7.01989 392.959 11.2404C397.653 15.461 400 21.1889 400 28.4241C400 35.6593 397.653 41.3872 392.959 45.6078C388.264 49.8283 381.934 51.9386 373.966 51.9386C365.999 51.9386 359.668 49.8283 354.974 45.6078C350.279 41.3872 347.932 35.6593 347.932 28.4241C347.932 23.6437 348.987 19.4877 351.098 15.9563C353.251 12.3817 356.287 9.64696 360.206 7.75203C364.125 5.85708 368.712 4.90962 373.966 4.90962ZM362.661 43.6697C365.46 47.3735 369.229 49.2254 373.966 49.2254C378.703 49.2254 382.45 47.3735 385.207 43.6697C388.006 39.9229 389.406 34.8411 389.406 28.4241C389.406 24.2036 388.781 20.5213 387.532 17.3775C386.283 14.2336 384.496 11.8218 382.17 10.1422C379.845 8.46263 377.11 7.62282 373.966 7.62282C369.229 7.62282 365.46 9.49623 362.661 13.243C359.905 16.9468 358.527 22.0071 358.527 28.4241C358.527 34.8411 359.905 39.9229 362.661 43.6697Z" fill="#4F4F4F"/>
<path d="M289.55 65.4676C290.31 65.8735 290.958 66.3922 291.493 67.0236C292.056 67.6325 292.507 68.4218 292.845 69.3915C293.211 70.3387 293.295 71.5339 293.098 72.9771C292.901 74.4204 292.408 76.0328 291.62 77.8144C289.029 83.5649 285.593 88.0752 281.312 91.3451C279.594 92.6531 277.82 93.6679 275.989 94.3895C274.187 95.1111 272.469 95.472 270.835 95.472C270.666 95.472 270.497 95.4607 270.328 95.4381C267.765 95.3028 265.949 94.3331 264.879 92.529C261.33 104.323 259.288 111.822 258.753 115.024C258.809 114.934 258.866 114.832 258.922 114.719C259.007 114.562 259.147 114.449 259.344 114.381C259.57 114.313 259.781 114.313 259.978 114.381C260.175 114.471 260.316 114.595 260.401 114.753C260.485 114.934 260.485 115.103 260.401 115.261C259.865 116.185 259.429 116.839 259.091 117.223C258.753 117.629 258.401 117.831 258.035 117.831C257.922 117.831 257.81 117.809 257.697 117.764C257.274 117.651 257.035 117.324 256.979 116.783C256.922 116.264 257.077 115.148 257.443 113.434C257.866 111.382 258.612 108.439 259.682 104.605C261.006 99.8694 263.4 91.8412 266.864 80.5205C268.836 74.0483 270.159 69.6734 270.835 67.3957C266.977 68.7037 263.668 70.3274 260.908 72.2668C259.499 73.259 258.345 74.2513 257.443 75.2435C256.542 76.2358 255.909 77.1266 255.542 77.9159C255.204 78.6826 255.007 79.4493 254.951 80.2161C254.923 80.9828 254.979 81.6255 255.12 82.1442C255.289 82.6403 255.514 83.1252 255.796 83.5988C255.909 83.7566 255.923 83.9258 255.838 84.1062C255.782 84.264 255.655 84.3881 255.458 84.4783C255.261 84.5459 255.05 84.5572 254.824 84.5121C254.627 84.4444 254.472 84.3317 254.36 84.1738C253.12 82.1893 252.965 80.0695 253.895 77.8144C254.852 75.5593 256.824 73.3831 259.809 71.2858C263.048 69.0307 266.878 67.2153 271.3 65.8397C271.412 65.3887 271.525 64.9827 271.638 64.6219C271.666 64.4641 271.779 64.34 271.976 64.2498C272.173 64.1371 272.37 64.1033 272.567 64.1484C272.792 64.1709 272.961 64.2611 273.074 64.419C273.215 64.5768 273.257 64.746 273.201 64.9264C273.173 64.994 273.145 65.1181 273.116 65.2985C273.82 65.1181 274.525 64.9489 275.229 64.7911C278.242 64.1371 280.974 63.8665 283.424 63.9792C285.903 64.092 287.944 64.5881 289.55 65.4676ZM290.057 77.3746C290.423 76.5628 290.718 75.7848 290.944 75.0406C291.197 74.2964 291.366 73.4958 291.451 72.6389C291.563 71.7594 291.549 70.9701 291.408 70.271C291.296 69.5494 291 68.8616 290.521 68.2076C290.071 67.531 289.437 66.9673 288.62 66.5162C287.24 65.772 285.41 65.3661 283.128 65.2985C280.875 65.2083 278.383 65.4563 275.651 66.0427C274.665 66.2682 273.666 66.5275 272.652 66.8207C272.004 69.1434 270.61 73.8115 268.469 80.825C267.202 84.9067 266.216 88.109 265.512 90.4318C265.709 90.522 265.836 90.6573 265.892 90.8377C266.174 91.8525 266.695 92.6418 267.456 93.2056C268.244 93.7693 269.23 94.0851 270.413 94.1527C271.849 94.2204 273.426 93.9272 275.144 93.2732C276.862 92.6192 278.552 91.6608 280.214 90.3979C284.297 87.2859 287.578 82.9448 290.057 77.3746Z" fill="#4F4F4F"/>
<path d="M306.399 90.6686C306.624 90.6009 306.835 90.6122 307.032 90.7024C307.229 90.77 307.37 90.8941 307.455 91.0745C307.539 91.2323 307.525 91.3902 307.412 91.5481C306.652 92.856 305.793 94.1978 304.835 95.5734C303.878 96.9491 302.822 98.336 301.667 99.7341C300.541 101.155 299.414 102.305 298.287 103.184C297.161 104.087 296.203 104.538 295.415 104.538C295.218 104.538 295.035 104.504 294.866 104.436C293.711 104.075 293.345 102.677 293.767 100.242C294.162 97.9639 295.204 94.739 296.893 90.5671C296.865 90.5671 296.837 90.5784 296.809 90.6009C296.809 90.6009 296.795 90.6009 296.767 90.6009C296.147 90.9392 295.626 91.1985 295.204 91.3789C294.809 91.5593 294.26 91.7623 293.556 91.9878C292.88 92.2133 292.232 92.3148 291.613 92.2922C290.993 92.2697 290.416 92.1118 289.881 91.8187C288.81 91.2098 288.261 90.3641 288.233 89.2817C288.205 88.1992 288.712 87.0153 289.754 85.7298C290.402 84.918 291.176 84.2076 292.077 83.5988C293.007 82.9899 293.795 82.8546 294.443 83.1928C294.837 83.3732 295.063 83.6664 295.119 84.0723C295.204 84.4783 294.964 85.2675 294.401 86.4402C293.838 87.5903 292.894 89.1012 291.571 90.973C292.444 91.0632 293.88 90.5784 295.88 89.5184C296.246 89.3155 296.513 89.1802 296.682 89.1125C296.879 89.0223 297.091 88.9321 297.316 88.8419C297.569 88.7517 297.781 88.7179 297.95 88.7404C298.118 88.763 298.287 88.8194 298.456 88.9096C298.879 89.1802 298.949 89.6538 298.668 90.3303C295.851 97.3212 294.739 101.561 295.33 103.049C295.387 103.139 295.429 103.207 295.457 103.252C295.682 103.275 296.02 103.128 296.471 102.812C296.95 102.497 297.527 102.001 298.203 101.324C298.907 100.647 299.653 99.8356 300.442 98.8885C301.259 97.9413 302.146 96.7799 303.103 95.4043C304.089 94.0287 305.033 92.5629 305.934 91.0068C306.046 90.8264 306.201 90.7137 306.399 90.6686ZM290.007 88.3683C289.754 89.1576 289.81 89.7891 290.176 90.2626C292.232 87.3986 293.331 85.4592 293.472 84.4444C293.134 84.6023 292.739 84.8616 292.289 85.2224C291.866 85.5833 291.416 86.0568 290.937 86.6432C290.486 87.2069 290.176 87.782 290.007 88.3683Z" fill="#4F4F4F"/>
<path d="M320.061 90.8377C320.286 90.8151 320.484 90.8602 320.653 90.973C320.85 91.0858 320.962 91.2323 320.991 91.4127C321.019 91.5932 320.962 91.751 320.822 91.8863C319.667 93.0815 318.287 94.0174 316.682 94.6939C315.076 95.3705 313.569 95.5847 312.161 95.3367C311.767 96.1034 311.218 96.7123 310.514 97.1633C309.81 97.5918 309.077 97.806 308.317 97.806H308.275C307.514 97.7835 306.838 97.5805 306.247 97.1971C305.684 96.7912 305.289 96.2387 305.064 95.5396C304.698 94.4346 304.768 93.386 305.275 92.3937C305.754 91.3789 306.458 90.6347 307.388 90.1612C307.585 90.0484 307.81 90.0259 308.064 90.0935C308.317 89.5974 308.669 89.214 309.12 88.9434C309.598 88.6728 310.091 88.5713 310.598 88.639C310.88 88.6841 311.133 88.7855 311.359 88.9434C311.612 89.0787 311.852 89.3042 312.077 89.6199C312.33 89.9356 312.513 90.4205 312.626 91.0745C312.739 91.7285 312.767 92.5065 312.711 93.4085C312.682 93.634 312.64 93.8596 312.584 94.0851C313.654 94.2655 314.837 94.0512 316.132 93.4424C317.456 92.8335 318.583 92.0442 319.512 91.0745C319.653 90.9392 319.836 90.8602 320.061 90.8377ZM308.317 96.4868C308.711 96.4868 309.12 96.3402 309.542 96.047C309.993 95.7539 310.359 95.3592 310.641 94.8631C308.81 94.0512 307.852 92.9462 307.768 91.5481C307.205 91.9765 306.81 92.5516 306.585 93.2732C306.388 93.9949 306.402 94.6263 306.627 95.1675C306.937 96.047 307.5 96.4868 308.317 96.4868ZM311.063 93.3409C311.119 92.7996 311.119 92.3373 311.063 91.954C311.035 91.5481 310.993 91.2211 310.936 90.973C310.88 90.7249 310.809 90.522 310.725 90.3641C310.641 90.2063 310.556 90.0935 310.472 90.0259C310.415 89.9582 310.373 89.9244 310.345 89.9244H310.303C310.19 89.9244 310.049 90.0033 309.88 90.1612C309.711 90.2965 309.584 90.4881 309.5 90.7362C309.331 91.2098 309.359 91.6946 309.584 92.1908C309.81 92.6869 310.303 93.1379 311.063 93.5438C311.063 93.4762 311.063 93.4085 311.063 93.3409Z" fill="#4F4F4F"/>
<path d="M331.649 90.7024C331.875 90.7249 332.044 90.8151 332.156 90.973C332.297 91.1083 332.34 91.2662 332.283 91.4466C332.227 91.627 332.114 91.7623 331.945 91.8525C326.96 94.4459 322.877 97.028 319.694 99.5988C318.033 107.537 316.202 113.998 314.202 118.982C311.893 124.822 309.64 127.991 307.443 128.487C307.218 128.532 307.007 128.555 306.809 128.555C306.162 128.555 305.598 128.318 305.12 127.844C304.331 127.055 303.909 125.713 303.852 123.819C303.768 121.947 304.134 119.737 304.951 117.189C305.739 114.663 306.908 112.205 308.457 109.815C311.104 105.733 314.343 102.113 318.173 98.9561C318.821 95.8892 319.441 92.6418 320.032 89.214C320.06 89.0561 320.159 88.9208 320.328 88.8081C320.497 88.6953 320.694 88.6502 320.919 88.6728C321.145 88.6953 321.328 88.7855 321.468 88.9434C321.609 89.0787 321.666 89.2366 321.637 89.417C321.159 92.2133 320.666 94.8856 320.159 97.4339C323.06 95.269 326.693 93.0477 331.058 90.77C331.227 90.6798 331.424 90.6573 331.649 90.7024ZM312.681 118.576C314.456 114.133 316.117 108.383 317.666 101.324C314.653 104.03 312.062 107.063 309.893 110.423C308.682 112.295 307.711 114.189 306.978 116.106C306.246 118.046 305.796 119.726 305.627 121.146C305.458 122.59 305.443 123.83 305.584 124.867C305.725 125.905 305.993 126.626 306.387 127.032C306.584 127.213 306.781 127.28 306.978 127.235C307.119 127.19 307.274 127.123 307.443 127.032C307.612 126.942 307.894 126.705 308.288 126.322C308.682 125.961 309.077 125.499 309.471 124.935C309.865 124.371 310.358 123.526 310.949 122.398C311.513 121.293 312.09 120.019 312.681 118.576ZM321.13 84.2753C320.314 84.2527 320.06 84.0047 320.37 83.5311C320.624 83.1252 321.004 82.8546 321.511 82.7193C322.187 82.5389 322.595 82.6742 322.736 83.1252C322.877 83.5762 322.665 83.9145 322.102 84.14C321.82 84.2527 321.497 84.2978 321.13 84.2753Z" fill="#4F4F4F"/>
<path d="M343.883 90.7024C344.108 90.6573 344.305 90.6911 344.474 90.8039C344.671 90.8941 344.784 91.0294 344.812 91.2098C344.84 91.3902 344.798 91.5481 344.685 91.6834C341.503 95.2465 338.602 97.7722 335.983 99.2606C334.941 99.8469 333.913 100.14 332.899 100.14C332.11 100.14 331.42 99.9709 330.829 99.6327C330.491 99.4297 330.195 99.1591 329.942 98.8208C329.66 98.4825 329.421 98.009 329.224 97.4001C329.027 96.7912 328.998 95.9906 329.139 94.9984C329.252 94.0061 329.562 92.8786 330.069 91.6157V91.5819C330.857 89.5297 331.815 87.906 332.941 86.7108C334.068 85.5156 335.082 84.9067 335.983 84.8842C336.631 84.8616 337.053 85.0871 337.25 85.5607C337.56 86.2147 337.194 87.1393 336.152 88.3345C335.11 89.5297 333.575 90.8151 331.547 92.1908C331.209 93.0703 330.97 93.8821 330.829 94.6263C330.688 95.3705 330.632 95.9681 330.66 96.4191C330.716 96.8476 330.815 97.231 330.956 97.5692C331.125 97.8849 331.266 98.1105 331.378 98.2458C331.519 98.3811 331.66 98.4938 331.801 98.584C332.646 99.0802 333.73 98.9449 335.054 98.1781C337.532 96.7799 340.292 94.367 343.334 90.9392C343.474 90.8039 343.657 90.7249 343.883 90.7024ZM335.687 86.3049C334.701 86.801 333.73 87.8722 332.772 89.5184C334.406 88.2105 335.377 87.1393 335.687 86.3049Z" fill="#4F4F4F"/>
<path d="M356.086 90.5671C356.312 90.522 356.509 90.5558 356.678 90.6686C356.875 90.7588 357.002 90.8941 357.058 91.0745C357.114 91.2549 357.072 91.4127 356.931 91.5481C356.002 92.6982 355.185 93.6679 354.481 94.4572C353.805 95.2465 353.031 96.0921 352.157 96.9942C351.284 97.8737 350.482 98.5728 349.75 99.0914C349.045 99.6327 348.299 100.072 347.511 100.411C346.722 100.771 345.976 100.952 345.272 100.952C345.018 100.952 344.765 100.929 344.511 100.884C343.497 100.704 342.723 100.23 342.188 99.4635C341.624 98.4487 341.385 97.3437 341.469 96.1485C341.526 94.9307 341.822 93.7355 342.357 92.5629C342.92 91.3225 343.624 90.3641 344.469 89.6876C345.342 89.011 346.159 88.7743 346.919 88.9772C347.088 89.0223 347.243 89.09 347.384 89.1802C347.525 89.2478 347.694 89.4057 347.891 89.6538C348.088 89.8793 348.186 90.1837 348.186 90.5671C348.186 90.9504 348.102 91.4466 347.933 92.0555C347.877 92.2359 347.75 92.3712 347.553 92.4614C347.384 92.5516 347.187 92.5741 346.961 92.529C346.736 92.4839 346.567 92.3824 346.454 92.2246C346.342 92.0667 346.314 91.9089 346.37 91.751C346.652 90.8941 346.666 90.3754 346.412 90.195C346.3 90.195 346.116 90.2626 345.863 90.3979C345.638 90.5333 345.328 90.8377 344.934 91.3113C344.539 91.7623 344.187 92.3373 343.877 93.0364C343.371 94.0963 343.089 95.1788 343.033 96.2838C343.004 97.3663 343.202 98.2119 343.624 98.8208C343.906 99.2493 344.314 99.5086 344.849 99.5988C345.328 99.689 345.863 99.6327 346.454 99.4297C347.074 99.2267 347.722 98.8659 348.398 98.3472C349.102 97.806 349.735 97.2873 350.299 96.7912C350.862 96.2725 351.51 95.596 352.242 94.7616C353.002 93.9047 353.58 93.2507 353.974 92.7996C354.368 92.3261 354.903 91.6721 355.579 90.8377C355.692 90.7024 355.861 90.6122 356.086 90.5671Z" fill="#4F4F4F"/>
<path d="M390.397 78.3894C390.538 78.5247 390.594 78.6826 390.566 78.863C390.538 79.0434 390.425 79.19 390.228 79.3028C389.89 79.4832 389.566 79.4719 389.256 79.2689C387.904 78.8856 378.413 78.8517 360.783 79.1674C358.952 85.3239 357.094 91.9991 355.207 99.1929C352.954 107.875 351.588 113.84 351.109 117.087C351.165 117.087 351.222 117.099 351.278 117.121C351.503 117.166 351.658 117.268 351.743 117.426C351.827 117.606 351.827 117.775 351.743 117.933C351.602 118.294 351.489 118.553 351.405 118.711C351.292 118.891 351.137 119.061 350.94 119.218C350.743 119.399 350.532 119.489 350.306 119.489C350.222 119.489 350.123 119.478 350.011 119.455C349.644 119.365 349.433 119.128 349.377 118.745C349.292 118.361 349.321 117.843 349.461 117.189C349.574 116.242 349.828 114.877 350.222 113.096C350.926 109.713 351.982 105.316 353.39 99.9033C355.277 92.5967 357.178 85.696 359.093 79.2013C357.178 79.2238 354.798 79.2689 351.954 79.3366C347.448 79.4268 344.8 79.4719 344.012 79.4719C343.786 79.4719 343.603 79.4155 343.463 79.3028C343.294 79.1674 343.209 79.0096 343.209 78.8292C343.209 78.7164 343.251 78.6149 343.336 78.5247C343.392 78.412 343.491 78.3331 343.632 78.288C343.744 78.2203 343.871 78.1865 344.012 78.1865C344.8 78.1865 347.434 78.1301 351.912 78.0173C354.7 77.9722 357.234 77.9271 359.516 77.882C360.417 74.9053 361.22 72.3795 361.924 70.3048C361.98 70.1244 362.107 69.9891 362.304 69.8989C362.501 69.8087 362.698 69.7862 362.895 69.8313C363.121 69.8764 363.29 69.9778 363.402 70.1357C363.515 70.2936 363.543 70.4627 363.487 70.6431C362.811 72.6502 362.036 75.0519 361.163 77.8482C369.612 77.6678 375.991 77.6001 380.3 77.6452C384.609 77.6903 387.313 77.7693 388.411 77.882C389.538 77.9722 390.2 78.1414 390.397 78.3894Z" fill="#4F4F4F"/>
<path d="M378.56 90.4318C378.786 90.4092 378.983 90.4656 379.152 90.6009C379.321 90.7137 379.419 90.8602 379.447 91.0407C379.476 91.2211 379.405 91.3789 379.236 91.5142C373.773 96.6108 370.646 99.5537 369.858 100.343C369.379 100.839 368.914 101.324 368.464 101.798C368.858 103.083 368.886 104.323 368.548 105.519C368.21 106.714 367.732 107.74 367.112 108.597C366.492 109.454 365.76 110.153 364.915 110.694C364.127 111.235 363.394 111.506 362.718 111.506C362.296 111.506 361.944 111.393 361.662 111.168C360.17 110.017 361.845 106.804 366.689 101.527C366.38 100.67 365.887 99.8356 365.211 99.0238C363.803 97.3324 362.761 95.923 362.085 94.7954C361.409 93.6679 361.099 92.6418 361.155 91.7172C361.212 90.8151 361.507 90.0033 362.043 89.2817C362.606 88.56 363.352 87.9737 364.281 87.5227C365.07 87.1393 365.901 86.9138 366.774 86.8461C367.647 86.7785 368.45 86.88 369.182 87.1506C369.379 87.2408 369.506 87.3761 369.562 87.5565C369.647 87.7144 369.633 87.8722 369.52 88.0301C369.435 88.1879 369.28 88.3007 369.055 88.3683C368.858 88.4134 368.661 88.4022 368.464 88.3345C367.45 87.9511 366.337 88.0526 365.126 88.639C363.662 89.338 362.887 90.3867 362.803 91.7848C362.747 92.529 363.042 93.4198 363.69 94.4572C364.338 95.472 365.295 96.7461 366.563 98.2796C367.098 98.9336 367.534 99.5988 367.872 100.275C368.098 100.05 368.337 99.8018 368.59 99.5312C369.379 98.7419 372.519 95.7877 378.011 90.6686C378.152 90.5333 378.335 90.4543 378.56 90.4318ZM365.422 108.292C366.661 106.781 367.21 105.124 367.07 103.32C365.887 104.673 364.929 105.879 364.197 106.939C363.493 107.999 363.056 108.755 362.887 109.206C362.747 109.679 362.704 110.006 362.761 110.187C363.014 110.164 363.394 109.984 363.901 109.645C364.408 109.33 364.915 108.879 365.422 108.292Z" fill="#4F4F4F"/>
<path d="M154.79 6.75458C154.302 6.1213 153.673 5.60751 152.951 5.25312C152.229 4.89874 151.434 4.7133 150.627 4.71122L139.005 4.71122C137.621 4.71275 136.295 5.25552 135.317 6.22044C134.339 7.18536 133.789 8.49363 133.787 9.85823L133.787 45.8873C133.789 47.2519 134.339 48.5602 135.317 49.5251C136.295 50.49 137.621 51.0328 139.005 51.0343L150.745 51.0343C151.554 51.0324 152.352 50.8455 153.077 50.4884C153.801 50.1312 154.431 49.6133 154.919 48.9755L159.352 43.1443L167.702 32.1618L180.486 48.9755C180.973 49.6134 181.603 50.1312 182.328 50.4884C183.052 50.8456 183.85 51.0324 184.66 51.0343L196.4 51.0343C197.783 51.0328 199.109 50.49 200.087 49.5251C201.065 48.5602 201.616 47.2519 201.617 45.8873L201.617 9.85823C201.616 8.49363 201.065 7.18535 200.087 6.22043C199.109 5.25552 197.783 4.71275 196.4 4.71122L184.777 4.71122C183.97 4.7133 183.175 4.89874 182.453 5.25312C181.732 5.60751 181.102 6.1213 180.614 6.75458L167.702 23.6049L162.105 16.3013L154.79 6.75458ZM139.005 45.8873L139.005 9.85823L150.628 9.85823L152.048 11.7112L152.048 44.1733L150.745 45.8873L139.005 45.8873ZM184.777 9.85823L196.4 9.85823L196.4 45.8873L184.66 45.8873L172.92 30.4463L180.745 30.4463C181.437 30.4463 182.101 30.1751 182.59 29.6925C183.079 29.2099 183.354 28.5553 183.354 27.8728C183.354 27.1902 183.079 26.5356 182.59 26.053C182.101 25.5704 181.437 25.2993 180.745 25.2993L172.945 25.2993L184.777 9.85823Z" fill="url(#paint0_linear)"/>
<defs>
<linearGradient id="paint0_linear" x1="133.787" y1="27.8728" x2="201.617" y2="27.8728" gradientUnits="userSpaceOnUse">
<stop stop-color="#D4AF37"/>
<stop offset="0.25" stop-color="#CF953C"/>
<stop offset="0.520833" stop-color="#FFCC00" stop-opacity="0.44"/>
<stop offset="0.677083" stop-color="#D4AF37"/>
<stop offset="1" stop-color="#CF953C"/>
</linearGradient>
</defs>
</svg>
