<svg width="193" height="98" viewBox="0 0 193 98" fill="none" xmlns="http://www.w3.org/2000/svg">
<path d="M4.52857 66.0682C4.7619 65.7348 5.02857 65.3848 5.32857 65.0182C5.59524 64.7182 5.89524 64.3848 6.22857 64.0182C6.5619 63.6182 6.92857 63.2348 7.32857 62.8682C8.02857 62.2015 8.69524 61.6348 9.32857 61.1682C9.99524 60.7015 10.5786 60.3015 11.0786 59.9682C11.6786 59.6015 12.2286 59.2849 12.7286 59.0182C13.2619 58.7515 13.7119 58.6349 14.0786 58.6682C14.4786 58.7015 14.8119 58.8015 15.0786 58.9682C15.3786 59.1682 15.6286 59.4348 15.8286 59.7682C16.0286 60.2015 16.0952 60.6182 16.0286 61.0182C15.9619 61.3848 15.7786 61.7515 15.4786 62.1182C15.1786 62.4515 14.6452 62.7515 13.8786 63.0182C13.5786 63.1182 13.2786 63.2182 12.9786 63.3182C12.7119 63.4182 12.4452 63.5182 12.1786 63.6182C11.8119 63.7848 11.3619 64.0015 10.8286 64.2682C10.3286 64.5348 9.82857 64.8682 9.32857 65.2682C8.89524 65.6348 8.41191 66.1182 7.87857 66.7182C7.34524 67.2848 6.81191 67.9848 6.27857 68.8182C5.74524 69.6182 5.24524 70.5682 4.77857 71.6682C4.34524 72.7348 3.99524 73.9515 3.72857 75.3182C3.32857 77.3182 3.19524 79.2682 3.32857 81.1682C3.46191 83.0349 3.89524 84.7515 4.62857 86.3182C5.39524 87.9182 6.46191 89.3182 7.82857 90.5182C9.22857 91.7515 10.9786 92.6849 13.0786 93.3182C13.6786 93.4849 14.2786 93.6015 14.8786 93.6682C15.5119 93.7682 16.0619 93.8515 16.5286 93.9182C17.0952 93.9849 17.6286 94.0349 18.1286 94.0682C20.3286 94.0682 22.4786 93.6348 24.5786 92.7682C26.7119 91.9349 28.7452 90.8515 30.6786 89.5182C32.6119 88.1849 34.4286 86.6849 36.1286 85.0182C37.8619 83.3515 39.4286 81.7015 40.8286 80.0682C42.4619 78.1348 43.9452 76.2348 45.2786 74.3682C46.6119 72.4682 47.7452 70.7682 48.6786 69.2682C49.6452 67.7682 50.3952 66.5515 50.9286 65.6182C51.4619 64.6849 51.7286 64.2015 51.7286 64.1682C51.7286 64.1682 51.8786 63.8848 52.1786 63.3182C52.5119 62.7515 52.9452 62.0182 53.4786 61.1182C54.0452 60.2182 54.6952 59.1849 55.4286 58.0182C56.1619 56.8515 56.9619 55.6682 57.8286 54.4682C58.7952 53.0349 59.7286 51.7515 60.6286 50.6182C61.5619 49.4848 62.4452 48.4848 63.2786 47.6182C65.4786 45.3515 67.3452 44.1515 68.8786 44.0182C69.6452 43.9515 70.3619 44.0682 71.0286 44.3682C71.6952 44.6349 72.2286 45.0682 72.6286 45.6682C72.8619 46.0682 73.0452 46.5682 73.1786 47.1682C73.3452 47.7682 73.3786 48.5015 73.2786 49.3682C73.1786 50.2348 72.9119 51.2515 72.4786 52.4182C72.0786 53.5848 71.4286 54.9348 70.5286 56.4682C69.5952 58.0682 68.6952 59.7182 67.8286 61.4182C67.0619 62.9182 66.2452 64.5682 65.3786 66.3682C64.5119 68.1348 63.7119 69.9182 62.9786 71.7182C63.9119 70.0182 64.8786 68.3182 65.8786 66.6182C66.9119 64.8848 67.9952 63.1849 69.1286 61.5182C71.8619 57.4515 74.4286 54.3515 76.8286 52.2182C79.6286 49.6182 82.1619 48.3682 84.4286 48.4682C84.5286 48.4682 84.7619 48.4849 85.1286 48.5182C85.5286 48.5515 85.9619 48.6515 86.4286 48.8182C86.8952 48.9848 87.3786 49.2348 87.8786 49.5682C88.3786 49.8682 88.8119 50.3182 89.1786 50.9182C90.4786 53.1515 89.8286 56.5015 87.2286 60.9682V61.0182C85.9952 63.0515 84.9952 64.9682 84.2286 66.7682C83.4952 68.5348 82.8952 70.0015 82.4286 71.1682C80.9286 74.7015 79.9786 78.0182 79.5786 81.1182C79.1786 84.2182 79.1786 86.8682 79.5786 89.0682C79.9786 91.3015 80.7119 92.9849 81.7786 94.1182C82.8452 95.2849 84.0952 95.6849 85.5286 95.3182C86.2952 95.1182 86.9452 94.8182 87.4786 94.4182C88.0119 94.0515 88.4619 93.6349 88.8286 93.1682C87.9619 92.8349 87.2619 92.4015 86.7286 91.8682C86.2286 91.3682 85.8952 90.7849 85.7286 90.1182C85.5619 89.4182 85.6119 88.7849 85.8786 88.2182C86.1786 87.6515 86.5619 87.2182 87.0286 86.9182C87.5286 86.6182 88.0619 86.4682 88.6286 86.4682C89.1952 86.5015 89.7119 86.7349 90.1786 87.1682C90.5786 87.5349 90.8452 87.9349 90.9786 88.3682C91.1452 88.8015 91.2286 89.2182 91.2286 89.6182C91.2286 90.0182 91.1786 90.3682 91.0786 90.6682C91.0119 91.0015 90.9619 91.2349 90.9286 91.3682C93.2619 91.7682 95.5286 91.8349 97.7286 91.5682C99.9619 91.3015 102.345 90.9182 104.879 90.4182C105.879 90.2182 106.795 90.0515 107.629 89.9182C108.495 89.8182 109.262 89.7349 109.929 89.6682C110.195 89.6349 110.612 89.5849 111.179 89.5182C111.779 89.4849 112.462 89.4515 113.229 89.4182C114.029 89.4182 114.895 89.4349 115.829 89.4682C116.762 89.5015 117.712 89.5849 118.679 89.7182C120.179 89.8849 121.479 90.1682 122.579 90.5682C123.712 90.9682 124.662 91.3682 125.429 91.7682C126.295 92.2349 127.062 92.7515 127.729 93.3182C128.195 93.7515 128.479 94.1515 128.579 94.5182C128.712 94.9182 128.779 95.2515 128.779 95.5182C128.745 95.8515 128.662 96.1515 128.529 96.4182C128.229 96.7849 127.895 97.0349 127.529 97.1682C127.195 97.3015 126.795 97.3182 126.329 97.2182C125.862 97.1515 125.329 96.8349 124.729 96.2682C123.129 94.7682 121.779 93.6349 120.679 92.8682C120.279 92.6015 119.779 92.3349 119.179 92.0682C118.679 91.8349 118.062 91.6182 117.329 91.4182C116.595 91.2182 115.729 91.0682 114.729 90.9682C114.262 90.9349 113.812 90.9182 113.379 90.9182C112.979 90.9182 112.595 90.9182 112.229 90.9182C111.829 90.9182 111.445 90.9349 111.079 90.9682C109.979 91.1015 108.895 91.2849 107.829 91.5182C106.795 91.7849 105.729 92.0682 104.629 92.3682C103.529 92.6682 102.379 92.9515 101.179 93.2182C100.012 93.5182 98.7452 93.7349 97.3786 93.8682C95.8452 94.0349 94.4619 94.0849 93.2286 94.0182C91.9952 93.9515 90.8952 93.7849 89.9286 93.5182C89.3952 94.3515 88.8119 94.9849 88.1786 95.4182C87.5786 95.8515 86.9952 96.1682 86.4286 96.3682C85.7952 96.6015 85.1619 96.7349 84.5286 96.7682C83.3286 96.9015 82.1452 96.7349 80.9786 96.2682C79.8452 95.8349 78.8119 95.1015 77.8786 94.0682C76.9452 93.0682 76.1786 91.7515 75.5786 90.1182C75.0119 88.5182 74.7119 86.6182 74.6786 84.4182C74.6786 82.2515 74.9786 79.7849 75.5786 77.0182C76.2119 74.2515 77.2786 71.1848 78.7786 67.8182C79.7452 65.7182 80.7452 63.7848 81.7786 62.0182C82.8119 60.2515 83.8286 58.6682 84.8286 57.2682C85.6619 56.0682 86.2119 55.0515 86.4786 54.2182C86.7786 53.3848 86.8952 52.7182 86.8286 52.2182C86.7619 51.7515 86.6286 51.4015 86.4286 51.1682C86.2619 50.9015 86.0786 50.7015 85.8786 50.5682C85.6452 50.4348 85.3786 50.3348 85.0786 50.2682C83.8452 50.1015 82.5286 50.4848 81.1286 51.4182C79.7286 52.3182 78.2952 53.5848 76.8286 55.2182C75.3952 56.8182 73.9619 58.6682 72.5286 60.7682C71.0952 62.8682 69.7286 65.0182 68.4286 67.2182C67.1619 69.3848 65.9952 71.4848 64.9286 73.5182C63.8619 75.5515 62.9619 77.3015 62.2286 78.7682C62.1619 78.9349 62.0452 79.2182 61.8786 79.6182C61.7119 80.0182 61.5119 80.5015 61.2786 81.0682C61.1452 81.4015 61.0619 81.6515 61.0286 81.8182C60.9952 81.9515 60.9619 82.0849 60.9286 82.2182C60.8619 82.4515 60.7619 82.7182 60.6286 83.0182C60.4952 83.3182 60.3119 83.6015 60.0786 83.8682C59.8786 84.1682 59.6286 84.4015 59.3286 84.5682C59.0286 84.7682 58.6786 84.8515 58.2786 84.8182C58.0786 84.8182 57.8952 84.7849 57.7286 84.7182C57.5952 84.6849 57.4786 84.6348 57.3786 84.5682C57.2452 84.5015 57.1452 84.4349 57.0786 84.3682C56.7452 84.1015 56.5452 83.7682 56.4786 83.3682C56.4119 83.0015 56.3786 82.7182 56.3786 82.5182C56.4786 79.9182 56.9619 77.0349 57.8286 73.8682C58.7286 70.6682 60.1619 67.1515 62.1286 63.3182C63.2619 61.0848 64.3786 59.1015 65.4786 57.3682C66.5786 55.6015 67.6286 54.0349 68.6286 52.6682C69.3286 51.7015 69.8452 50.8682 70.1786 50.1682C70.5452 49.4348 70.7786 48.8182 70.8786 48.3182C71.0119 47.8182 71.0452 47.4182 70.9786 47.1182C70.9119 46.7849 70.8119 46.5182 70.6786 46.3182C70.3786 45.9515 70.0452 45.8015 69.6786 45.8682C69.3119 45.9348 68.9452 46.0848 68.5786 46.3182C68.1786 46.5848 67.7619 46.9348 67.3286 47.3682C66.6619 48.0348 65.8619 48.9848 64.9286 50.2182C64.0286 51.4182 62.9286 52.9848 61.6286 54.9182C60.3286 56.8182 58.8119 59.1182 57.0786 61.8182C55.3452 64.5182 53.3286 67.6682 51.0286 71.2682C48.8952 74.6348 46.7619 77.5682 44.6286 80.0682C42.5286 82.5349 40.4786 84.6349 38.4786 86.3682C36.5119 88.1349 34.6286 89.5849 32.8286 90.7182C31.0286 91.8515 29.3786 92.7515 27.8786 93.4182C26.4119 94.1182 25.1119 94.6015 23.9786 94.8682C22.8452 95.1682 21.9619 95.3682 21.3286 95.4682C20.7619 95.5682 20.1786 95.6349 19.5786 95.6682C19.0452 95.7349 18.4619 95.7515 17.8286 95.7182C17.1952 95.7182 16.5619 95.6849 15.9286 95.6182C11.0952 95.0182 7.29524 93.3849 4.52857 90.7182C3.29524 89.5182 2.29524 88.1348 1.52857 86.5682C0.828572 85.1348 0.378571 83.5515 0.178572 81.8182C0.0119048 80.7182 -0.0380952 79.6015 0.0285714 78.4682C0.0952381 77.3015 0.261905 76.1348 0.528571 74.9682C1.02857 72.7015 1.86191 70.5348 3.02857 68.4682C3.46191 67.6348 3.96191 66.8349 4.52857 66.0682ZM88.4786 90.6682C88.6452 90.7349 88.7952 90.8015 88.9286 90.8682C89.0619 90.9349 89.2119 90.9849 89.3786 91.0182C89.5452 91.0849 89.7119 91.1349 89.8786 91.1682C89.9452 90.9015 89.9786 90.6515 89.9786 90.4182C89.9786 90.1849 89.9786 89.9849 89.9786 89.8182C89.9786 89.6182 89.9619 89.4349 89.9286 89.2682C89.7952 88.7015 89.5786 88.3015 89.2786 88.0682C89.1452 87.9348 88.9952 87.8515 88.8286 87.8182C88.5952 87.7849 88.3619 87.8015 88.1286 87.8682C87.8952 87.9349 87.6952 88.0349 87.5286 88.1682C87.3619 88.3349 87.2452 88.5349 87.1786 88.7682C87.1119 89.0015 87.1286 89.2515 87.2286 89.5182C87.3286 89.7849 87.4952 90.0015 87.7286 90.1682C87.9619 90.3682 88.2119 90.5349 88.4786 90.6682Z" fill="#3F6D97"/>
<path d="M95.4294 78.9682C95.0294 79.5682 94.546 80.1515 93.9794 80.7182C93.5127 81.1849 92.9294 81.6515 92.2294 82.1182C91.5294 82.5849 90.7127 82.9182 89.7794 83.1182C88.946 83.3182 88.1794 83.3015 87.4794 83.0682C86.8127 82.8682 86.2794 82.4349 85.8793 81.7682C85.446 81.1015 85.196 80.2015 85.1293 79.0682C85.0627 77.9348 85.246 76.5515 85.6794 74.9182C86.0127 73.6515 86.4294 72.5015 86.9294 71.4682C87.4294 70.4015 87.9127 69.5015 88.3793 68.7682C88.946 67.9015 89.5127 67.1515 90.0794 66.5182C90.6127 65.8515 91.2294 65.2348 91.9294 64.6682C92.496 64.2015 93.196 63.7682 94.0294 63.3682C94.8627 62.9682 95.7627 62.7348 96.7294 62.6682C97.6627 62.6015 98.4627 62.7515 99.1293 63.1182C99.696 63.4182 100.179 63.9515 100.579 64.7182C100.979 65.4515 101.063 66.5515 100.829 68.0182C101.129 67.7515 101.429 67.5849 101.729 67.5182C102.063 67.4182 102.379 67.4515 102.679 67.6182C103.046 67.8515 103.279 68.1682 103.379 68.5682C103.513 68.9682 103.546 69.3848 103.479 69.8182C103.446 70.2515 103.346 70.6849 103.179 71.1182C103.046 71.5182 102.913 71.8515 102.779 72.1182C102.246 73.1849 101.679 74.3348 101.079 75.5682C100.479 76.8015 99.9627 77.9682 99.5294 79.0682C99.1293 80.1682 98.8627 81.1515 98.7294 82.0182C98.6294 82.8515 98.7794 83.3849 99.1794 83.6182C99.546 83.4515 99.9294 83.1848 100.329 82.8182C100.729 82.4515 101.129 82.0349 101.529 81.5682C101.963 81.1015 102.379 80.6015 102.779 80.0682C103.179 79.5349 103.563 79.0015 103.929 78.4682C104.796 77.2015 105.646 75.8349 106.479 74.3682C107.146 73.2348 107.729 72.2348 108.229 71.3682C108.763 70.4682 109.196 69.7848 109.529 69.3182C109.596 69.2515 109.663 69.2015 109.729 69.1682C109.829 69.1015 109.996 69.1182 110.229 69.2182C110.363 69.2849 110.379 69.4848 110.279 69.8182C109.979 70.6515 109.596 71.5849 109.129 72.6182C108.729 73.4848 108.196 74.5015 107.529 75.6682C106.896 76.8349 106.113 78.1015 105.179 79.4682C104.613 80.3015 104.029 81.1015 103.429 81.8682C102.896 82.5349 102.279 83.1848 101.579 83.8182C100.913 84.4515 100.246 84.9182 99.5794 85.2182C99.1127 85.4182 98.7127 85.5349 98.3793 85.5682C98.046 85.6015 97.746 85.5849 97.4794 85.5182C97.1794 85.4515 96.9294 85.3349 96.7294 85.1682C96.396 84.9349 96.1293 84.6682 95.9294 84.3682C95.7627 84.1015 95.6293 83.8349 95.5294 83.5682C95.396 83.2682 95.3127 82.9515 95.2794 82.6182C95.1794 82.1515 95.146 81.6015 95.1794 80.9682C95.2127 80.3349 95.296 79.6682 95.4294 78.9682ZM90.2294 81.4182C90.4294 81.3182 90.6294 81.2015 90.8294 81.0682C91.0627 80.9348 91.2627 80.8015 91.4294 80.6682C91.6293 80.5349 91.8294 80.3682 92.0294 80.1682C92.696 79.6015 93.3294 78.9682 93.9294 78.2682C94.5294 77.5349 95.0627 76.8515 95.5294 76.2182C96.0627 75.4849 96.5627 74.7515 97.0294 74.0182C97.2293 73.5182 97.4627 73.0182 97.7294 72.5182C97.996 71.9848 98.2627 71.5015 98.5294 71.0682C98.8294 70.5682 99.1127 70.0848 99.3793 69.6182C99.4127 69.4515 99.446 69.1849 99.4794 68.8182C99.5127 68.4515 99.5127 68.0682 99.4794 67.6682C99.446 67.2682 99.3627 66.9015 99.2294 66.5682C99.1294 66.2348 98.946 66.0182 98.6794 65.9182C97.946 65.5849 97.0294 65.8848 95.9294 66.8182C94.8627 67.7182 93.7127 69.0015 92.4794 70.6682C91.8794 71.4682 91.296 72.4182 90.7294 73.5182C90.196 74.5849 89.7294 75.6348 89.3294 76.6682C88.9627 77.7015 88.6794 78.6349 88.4794 79.4682C88.3127 80.3015 88.3127 80.8849 88.4794 81.2182C88.646 81.5849 88.896 81.7515 89.2294 81.7182C89.596 81.6849 89.9294 81.5849 90.2294 81.4182Z" fill="#3F6D97"/>
<path d="M120.768 65.7682C120.768 65.6348 120.702 65.5348 120.568 65.4682C120.502 65.4348 120.435 65.4348 120.368 65.4682C120.202 65.4682 119.852 65.6682 119.318 66.0682C118.785 66.4349 118.168 66.9515 117.468 67.6182C116.768 68.2849 116.018 69.0682 115.218 69.9682C114.452 70.8682 113.735 71.8349 113.068 72.8682C112.402 73.9015 111.818 75.0015 111.318 76.1682C110.852 77.3015 110.585 78.4348 110.518 79.5682V79.8682C110.518 80.0349 110.552 80.2849 110.618 80.6182C110.685 80.8849 110.702 81.1849 110.668 81.5182C110.668 81.8182 110.502 82.0349 110.168 82.1682C109.735 82.4015 109.252 82.4015 108.718 82.1682C108.252 81.9349 107.918 81.6515 107.718 81.3182C107.218 80.4182 106.985 79.4015 107.018 78.2682C107.018 77.1015 107.118 76.0349 107.318 75.0682C107.685 73.2682 108.202 71.5348 108.868 69.8682C109.568 68.2015 110.368 66.5682 111.268 64.9682C111.468 64.6348 111.702 64.2682 111.968 63.8682C112.268 63.4682 112.602 63.1182 112.968 62.8182C113.335 62.5182 113.718 62.3015 114.118 62.1682C114.552 62.0348 115.002 62.0515 115.468 62.2182C115.902 62.3848 116.168 62.6682 116.268 63.0682C116.368 63.4348 116.368 63.8349 116.268 64.2682C116.168 64.6682 116.018 65.0848 115.818 65.5182C115.618 65.9182 115.435 66.2515 115.268 66.5182C114.468 67.8182 113.702 69.1849 112.968 70.6182C113.502 69.8182 114.085 69.0182 114.718 68.2182C115.352 67.3848 115.985 66.6349 116.618 65.9682C117.285 65.3015 117.952 64.7348 118.618 64.2682C119.318 63.7682 119.985 63.4682 120.618 63.3682C121.318 63.2348 121.902 63.3015 122.368 63.5682C122.835 63.8348 123.135 64.1682 123.268 64.5682C123.435 65.1682 123.352 65.9015 123.018 66.7682C122.685 67.6015 122.302 68.3015 121.868 68.8682C121.702 69.1015 121.518 69.2848 121.318 69.4182C121.152 69.5515 120.952 69.6515 120.718 69.7182C120.518 69.7515 120.285 69.6848 120.018 69.5182C119.585 69.2848 119.368 69.0015 119.368 68.6682C119.402 68.3015 119.518 67.9349 119.718 67.5682C119.918 67.2015 120.135 66.8682 120.368 66.5682C120.635 66.2348 120.768 65.9682 120.768 65.7682Z" fill="#3F6D97"/>
<path d="M134.88 65.7682C134.88 65.6348 134.813 65.5348 134.68 65.4682C134.613 65.4348 134.546 65.4348 134.48 65.4682C134.313 65.4682 133.963 65.6682 133.43 66.0682C132.896 66.4349 132.28 66.9515 131.58 67.6182C130.88 68.2849 130.13 69.0682 129.33 69.9682C128.563 70.8682 127.846 71.8349 127.18 72.8682C126.513 73.9015 125.93 75.0015 125.43 76.1682C124.963 77.3015 124.696 78.4348 124.63 79.5682V79.8682C124.63 80.0349 124.663 80.2849 124.73 80.6182C124.796 80.8849 124.813 81.1849 124.78 81.5182C124.78 81.8182 124.613 82.0349 124.28 82.1682C123.846 82.4015 123.363 82.4015 122.83 82.1682C122.363 81.9349 122.03 81.6515 121.83 81.3182C121.33 80.4182 121.096 79.4015 121.13 78.2682C121.13 77.1015 121.23 76.0349 121.43 75.0682C121.796 73.2682 122.313 71.5348 122.98 69.8682C123.68 68.2015 124.48 66.5682 125.38 64.9682C125.58 64.6348 125.813 64.2682 126.08 63.8682C126.38 63.4682 126.713 63.1182 127.08 62.8182C127.446 62.5182 127.83 62.3015 128.23 62.1682C128.663 62.0348 129.113 62.0515 129.58 62.2182C130.013 62.3848 130.28 62.6682 130.38 63.0682C130.48 63.4348 130.48 63.8349 130.38 64.2682C130.28 64.6682 130.13 65.0848 129.93 65.5182C129.73 65.9182 129.546 66.2515 129.38 66.5182C128.58 67.8182 127.813 69.1849 127.08 70.6182C127.613 69.8182 128.196 69.0182 128.83 68.2182C129.463 67.3848 130.096 66.6349 130.73 65.9682C131.396 65.3015 132.063 64.7348 132.73 64.2682C133.43 63.7682 134.096 63.4682 134.73 63.3682C135.43 63.2348 136.013 63.3015 136.48 63.5682C136.946 63.8348 137.246 64.1682 137.38 64.5682C137.546 65.1682 137.463 65.9015 137.13 66.7682C136.796 67.6015 136.413 68.3015 135.98 68.8682C135.813 69.1015 135.63 69.2848 135.43 69.4182C135.263 69.5515 135.063 69.6515 134.83 69.7182C134.63 69.7515 134.396 69.6848 134.13 69.5182C133.696 69.2848 133.48 69.0015 133.48 68.6682C133.513 68.3015 133.63 67.9349 133.83 67.5682C134.03 67.2015 134.246 66.8682 134.48 66.5682C134.746 66.2348 134.88 65.9682 134.88 65.7682Z" fill="#3F6D97"/>
<path d="M140.191 81.8682C140.124 81.9015 139.941 81.9849 139.641 82.1182C139.374 82.2515 139.008 82.3682 138.541 82.4682C138.108 82.5349 137.624 82.5182 137.091 82.4182C136.591 82.3182 136.091 82.0682 135.591 81.6682C135.091 81.2349 134.808 80.5349 134.741 79.5682C134.641 78.6015 134.708 77.5349 134.941 76.3682C135.174 75.1682 135.508 73.9682 135.941 72.7682C136.374 71.5348 136.858 70.4682 137.391 69.5682C138.158 68.2682 138.824 67.2348 139.391 66.4682C139.958 65.6682 140.474 65.0349 140.941 64.5682C141.274 64.2348 141.608 63.9682 141.941 63.7682C142.208 63.6015 142.508 63.4682 142.841 63.3682C143.174 63.2682 143.508 63.2848 143.841 63.4182C144.208 63.5848 144.441 63.8682 144.541 64.2682C144.641 64.6682 144.624 65.1348 144.491 65.6682C144.391 66.1682 144.191 66.7182 143.891 67.3182C143.624 67.9182 143.291 68.5182 142.891 69.1182C142.591 69.6182 142.158 70.3515 141.591 71.3182C141.058 72.2515 140.524 73.2515 139.991 74.3182C139.491 75.3848 139.058 76.4515 138.691 77.5182C138.324 78.5515 138.174 79.4015 138.241 80.0682C138.274 80.3015 138.358 80.5349 138.491 80.7682C138.624 81.0015 138.891 81.0015 139.291 80.7682C139.524 80.6682 139.774 80.5015 140.041 80.2682C140.308 80.0349 140.574 79.7849 140.841 79.5182C141.141 79.2182 141.424 78.9015 141.691 78.5682C141.958 78.2682 142.208 77.9515 142.441 77.6182C142.708 77.2849 142.974 76.9348 143.241 76.5682C143.741 75.8349 144.224 75.0849 144.691 74.3182C145.158 73.5515 145.608 72.8349 146.041 72.1682C146.441 71.5015 146.791 70.9182 147.091 70.4182C147.424 69.8848 147.708 69.4848 147.941 69.2182C147.974 69.1849 148.008 69.1682 148.041 69.1682H148.141C148.208 69.1682 148.274 69.1682 148.341 69.1682C148.408 69.1682 148.474 69.1849 148.541 69.2182C148.708 69.3182 148.774 69.4682 148.741 69.6682C148.674 69.8682 148.391 70.5182 147.891 71.6182C147.658 72.1515 147.374 72.7515 147.041 73.4182C146.708 74.0848 146.308 74.8015 145.841 75.5682C145.374 76.3349 144.874 77.0849 144.341 77.8182C143.841 78.5515 143.274 79.2515 142.641 79.9182C142.374 80.1849 142.108 80.4349 141.841 80.6682C141.608 80.8682 141.341 81.0849 141.041 81.3182C140.741 81.5515 140.458 81.7349 140.191 81.8682Z" fill="#3F6D97"/>
<path d="M149.796 81.4682C150.329 81.8015 150.946 81.9349 151.646 81.8682C152.346 81.8015 153.013 81.6682 153.646 81.4682C154.379 81.2349 155.113 80.9182 155.846 80.5182C156.346 80.2182 156.779 79.9182 157.146 79.6182C157.546 79.2849 157.879 79.0015 158.146 78.7682C158.713 78.2015 159.263 77.6015 159.796 76.9682C160.329 76.3349 160.813 75.7515 161.246 75.2182C161.713 74.6182 162.163 74.0015 162.596 73.3682C163.063 72.7015 163.513 72.0515 163.946 71.4182C164.379 70.7515 164.779 70.1682 165.146 69.6682C165.246 69.5348 165.346 69.4182 165.446 69.3182C165.613 69.1515 165.763 69.0849 165.896 69.1182C166.063 69.1849 166.196 69.3015 166.296 69.4682C166.396 69.6348 166.363 69.8848 166.196 70.2182C165.929 70.7515 165.629 71.3015 165.296 71.8682C165.029 72.3349 164.729 72.8682 164.396 73.4682C164.063 74.0349 163.713 74.5849 163.346 75.1182C163.213 75.3182 163.063 75.5348 162.896 75.7682C162.596 76.1682 162.196 76.6682 161.696 77.2682C161.463 77.5682 161.063 78.0182 160.496 78.6182C159.963 79.2182 159.279 79.8515 158.446 80.5182C157.613 81.1849 156.663 81.8182 155.596 82.4182C154.563 82.9849 153.429 83.3682 152.196 83.5682C150.929 83.7682 149.879 83.8015 149.046 83.6682C148.213 83.5349 147.546 83.3349 147.046 83.0682C146.513 82.8015 146.146 82.5515 145.946 82.3182C145.713 82.0515 145.596 81.9182 145.596 81.9182C145.129 81.2515 144.863 80.3515 144.796 79.2182C144.696 78.0849 144.879 76.6515 145.346 74.9182C145.679 73.6515 146.096 72.5015 146.596 71.4682C147.096 70.4015 147.579 69.5015 148.046 68.7682C148.613 67.9015 149.179 67.1515 149.746 66.5182C150.346 65.8182 150.946 65.2348 151.546 64.7682C152.146 64.3015 152.679 63.9348 153.146 63.6682C153.713 63.3349 154.263 63.0849 154.796 62.9182C155.163 62.7848 155.546 62.7015 155.946 62.6682C156.313 62.6348 156.713 62.6515 157.146 62.7182C157.579 62.7849 158.029 62.9348 158.496 63.1682C158.663 63.3015 158.846 63.4348 159.046 63.5682C159.213 63.7015 159.379 63.8682 159.546 64.0682C159.746 64.2682 159.929 64.5015 160.096 64.7682C160.296 65.2015 160.446 65.7182 160.546 66.3182C160.613 66.8182 160.629 67.4182 160.596 68.1182C160.596 68.7848 160.446 69.5348 160.146 70.3682V70.4182C159.846 71.2182 159.396 72.0348 158.796 72.8682C158.229 73.6682 157.496 74.4015 156.596 75.0682C155.796 75.6682 154.996 76.1848 154.196 76.6182C153.396 77.0182 152.646 77.3515 151.946 77.6182C151.246 77.8515 150.613 78.0515 150.046 78.2182C149.479 78.3515 149.013 78.4349 148.646 78.4682C148.579 79.0682 148.613 79.6515 148.746 80.2182C148.879 80.7515 149.229 81.1682 149.796 81.4682ZM158.296 70.2182C158.663 69.3515 158.879 68.6515 158.946 68.1182C159.013 67.5515 158.996 67.1015 158.896 66.7682C158.763 66.4015 158.579 66.1182 158.346 65.9182C157.579 65.5849 156.663 65.8848 155.596 66.8182C154.529 67.7182 153.379 69.0015 152.146 70.6682C151.679 71.3349 151.246 72.0182 150.846 72.7182C150.479 73.3182 150.113 74.0015 149.746 74.7682C149.413 75.5015 149.146 76.2515 148.946 77.0182C149.913 76.7515 150.879 76.3848 151.846 75.9182C152.813 75.4515 153.713 74.9182 154.546 74.3182C155.413 73.7182 156.163 73.0848 156.796 72.4182C157.463 71.7182 157.963 70.9848 158.296 70.2182Z" fill="#3F6D97"/>
<path d="M174.025 76.9682C173.859 77.3349 173.642 77.7015 173.375 78.0682C173.142 78.4015 172.859 78.7849 172.525 79.2182C172.225 79.6182 171.842 80.0349 171.375 80.4682C170.809 81.0349 170.142 81.5682 169.375 82.0682C168.642 82.5682 167.842 82.9182 166.975 83.1182C166.175 83.3182 165.425 83.3015 164.725 83.0682C164.025 82.8682 163.475 82.4349 163.075 81.7682C162.642 81.1015 162.392 80.2015 162.325 79.0682C162.259 77.9348 162.442 76.5515 162.875 74.9182C163.242 73.6515 163.675 72.5015 164.175 71.4682C164.642 70.4015 165.109 69.5015 165.575 68.7682C166.109 67.9015 166.675 67.1515 167.275 66.5182C167.875 65.8182 168.475 65.2348 169.075 64.7682C169.675 64.3015 170.209 63.9348 170.675 63.6682C171.242 63.3349 171.792 63.0849 172.325 62.9182C172.692 62.7848 173.075 62.7015 173.475 62.6682C173.842 62.6348 174.242 62.6515 174.675 62.7182C175.109 62.7849 175.559 62.9348 176.025 63.1682C176.259 63.3015 176.475 63.4515 176.675 63.6182C176.842 63.7848 177.009 63.9848 177.175 64.2182C177.375 64.4182 177.559 64.6682 177.725 64.9682C178.459 63.2348 179.242 61.5682 180.075 59.9682C180.942 58.3349 181.759 56.8515 182.525 55.5182C183.292 54.1848 183.975 53.0515 184.575 52.1182C185.175 51.1515 185.609 50.4682 185.875 50.0682C186.542 49.0349 187.125 48.2182 187.625 47.6182C188.125 46.9848 188.609 46.4515 189.075 46.0182C189.442 45.6848 189.809 45.4182 190.175 45.2182C190.509 45.0515 190.842 44.9348 191.175 44.8682C191.542 44.8015 191.909 44.9015 192.275 45.1682C192.542 45.3682 192.692 45.6682 192.725 46.0682C192.759 46.4682 192.692 46.9182 192.525 47.4182C192.392 47.9182 192.175 48.4515 191.875 49.0182C191.575 49.5515 191.242 50.0848 190.875 50.6182L189.775 52.2682C189.409 52.8015 188.992 53.4349 188.525 54.1682C188.092 54.8682 187.609 55.6682 187.075 56.5682C186.609 57.3682 186.159 58.1848 185.725 59.0182C185.325 59.7182 184.892 60.4682 184.425 61.2682C183.992 62.0682 183.592 62.8182 183.225 63.5182C182.092 65.6848 181.092 67.8015 180.225 69.8682C179.859 70.7348 179.492 71.6348 179.125 72.5682C178.792 73.5015 178.475 74.4182 178.175 75.3182C177.909 76.1848 177.692 77.0349 177.525 77.8682C177.392 78.6682 177.342 79.3848 177.375 80.0182C177.409 80.2182 177.475 80.4349 177.575 80.6682C177.709 80.9015 177.959 80.9515 178.325 80.8182C178.992 80.5515 179.692 80.0515 180.425 79.3182C181.192 78.5515 181.909 77.7515 182.575 76.9182C183.309 75.9515 184.042 74.9015 184.775 73.7682C185.242 73.1015 185.725 72.3515 186.225 71.5182C186.725 70.6848 187.159 70.0182 187.525 69.5182C187.625 69.3848 187.725 69.2682 187.825 69.1682C187.992 69.0015 188.142 68.9348 188.275 68.9682C188.409 69.0349 188.525 69.1515 188.625 69.3182C188.759 69.4848 188.742 69.7348 188.575 70.0682C188.309 70.6015 188.009 71.1515 187.675 71.7182C187.409 72.1849 187.092 72.7182 186.725 73.3182C186.392 73.8848 186.059 74.4349 185.725 74.9682C185.025 76.1682 184.275 77.2849 183.475 78.3182C182.775 79.1848 181.975 80.0182 181.075 80.8182C180.175 81.6182 179.209 82.1182 178.175 82.3182C177.709 82.4182 177.159 82.4515 176.525 82.4182C175.925 82.3849 175.342 82.1182 174.775 81.6182C174.509 81.4182 174.309 81.1348 174.175 80.7682C174.075 80.4015 174.009 80.0015 173.975 79.5682C173.942 79.1348 173.925 78.7015 173.925 78.2682C173.959 77.8015 173.992 77.3682 174.025 76.9682ZM173.875 74.5182C174.209 74.0182 174.542 73.5349 174.875 73.0682C175.175 71.9349 175.525 70.8348 175.925 69.7682C176.059 69.4015 176.175 69.0515 176.275 68.7182C176.409 68.3515 176.542 67.9848 176.675 67.6182C176.642 67.2182 176.559 66.8682 176.425 66.5682C176.325 66.2348 176.142 66.0182 175.875 65.9182C175.142 65.5849 174.242 65.8848 173.175 66.8182C172.109 67.7182 170.959 69.0015 169.725 70.6682C169.125 71.4682 168.542 72.4182 167.975 73.5182C167.442 74.5849 166.975 75.6348 166.575 76.6682C166.175 77.7015 165.892 78.6349 165.725 79.4682C165.559 80.3015 165.542 80.8849 165.675 81.2182C165.842 81.5849 166.109 81.7515 166.475 81.7182C166.842 81.6849 167.159 81.5849 167.425 81.4182C167.892 81.2182 168.325 80.9515 168.725 80.6182C169.125 80.2849 169.492 79.9515 169.825 79.6182C170.192 79.2515 170.559 78.8515 170.925 78.4182C171.492 77.7849 172.009 77.1349 172.475 76.4682C172.975 75.8015 173.442 75.1515 173.875 74.5182Z" fill="#3F6D97"/>
<path d="M31.9706 60.36C31.1973 60.4933 30.3839 60.5733 29.5306 60.6C28.8106 60.6533 27.9973 60.64 27.0906 60.56C26.1839 60.5067 25.3039 60.36 24.4506 60.12C22.0239 59.4267 20.2639 58.2267 19.1706 56.52C18.4773 55.3733 18.0906 54.0933 18.0106 52.68C17.9306 51.1067 18.3039 49.44 19.1306 47.68C21.0773 43.5467 25.7039 39.9867 33.0106 37C34.5839 36.36 36.2106 35.7733 37.8906 35.24C39.5706 34.68 41.2639 34.16 42.9706 33.68C44.6773 33.1733 46.3839 32.7067 48.0906 32.28C49.7973 31.8533 51.4506 31.44 53.0506 31.04C53.6106 30.9067 54.1573 30.7733 54.6906 30.64C55.2506 30.5067 55.7973 30.3733 56.3306 30.24C56.7839 29.3333 57.2773 28.3733 57.8106 27.36C58.3439 26.3467 58.8906 25.3333 59.4506 24.32C60.0373 23.3067 60.6106 22.32 61.1706 21.36C61.7573 20.3733 62.3039 19.4667 62.8106 18.64C63.2639 17.1467 63.5573 15.7867 63.6906 14.56C63.8239 13.3333 63.8639 12.2133 63.8106 11.2C63.1439 11.3867 62.4373 11.52 61.6906 11.6C60.9439 11.6533 60.2506 11.7067 59.6106 11.76C58.8639 11.8133 58.1173 11.8267 57.3706 11.8C55.1573 11.8 53.2106 11.5733 51.5306 11.12C49.8773 10.64 48.5839 9.96 47.6506 9.08C46.9306 8.38667 46.4506 7.61333 46.2106 6.76C45.9973 5.88 46.0506 4.96 46.3706 4C46.6639 3.2 47.1439 2.50667 47.8106 1.92C48.4773 1.36 49.2506 0.933333 50.1306 0.639999C51.0106 0.32 51.9706 0.12 53.0106 0.0399992C54.0506 -0.0399997 55.1039 5.21541e-07 56.1706 0.16C57.5039 0.373334 58.7439 0.733334 59.8906 1.24C61.0639 1.72 62.0773 2.34667 62.9306 3.12C64.6639 4.66667 65.7173 6.56 66.0906 8.8C66.6506 8.66667 67.2106 8.53333 67.7706 8.4C68.2506 8.26667 68.7706 8.14667 69.3306 8.04C69.8906 7.93333 70.3973 7.82667 70.8506 7.72C72.6373 7.4 74.2906 7.2 75.8106 7.12C77.3306 7.01333 78.7839 7.01333 80.1706 7.12C80.8639 7.2 81.5039 7.30667 82.0906 7.44C82.7039 7.54667 83.2639 7.66667 83.7706 7.8C83.9306 7.85333 84.2239 7.96 84.6506 8.12C85.1039 8.25333 85.5173 8.42667 85.8906 8.64C86.1573 8.77333 86.5173 8.97333 86.9706 9.24C87.4239 9.50667 87.8373 9.82667 88.2106 10.2C88.6106 10.5467 88.9039 10.9467 89.0906 11.4C89.2773 11.8533 89.2506 12.3333 89.0106 12.84C88.9573 12.9733 88.8773 13.0933 88.7706 13.2C88.5839 13.44 88.3573 13.6 88.0906 13.68C87.8773 13.7333 87.6239 13.7333 87.3306 13.68C87.0373 13.6267 86.7039 13.4533 86.3306 13.16C86.1173 12.9733 85.8906 12.7467 85.6506 12.48C85.4106 12.2133 85.1439 11.9333 84.8506 11.64C84.5573 11.3733 84.2373 11.1467 83.8906 10.96C83.5439 10.7733 83.2239 10.6133 82.9306 10.48C82.5839 10.3467 82.2239 10.2133 81.8506 10.08C80.4639 9.65333 78.9573 9.4 77.3306 9.32C75.7039 9.21333 74.2239 9.22667 72.8906 9.36C72.1439 10.48 71.2906 11.7867 70.3306 13.28C69.3706 14.7733 68.3706 16.3733 67.3306 18.08C66.2906 19.7867 65.2239 21.5733 64.1306 23.44C63.0639 25.28 62.0239 27.1333 61.0106 29C62.4506 28.5733 63.7439 28.16 64.8906 27.76C66.0373 27.3333 66.9706 26.8933 67.6906 26.44C67.8506 26.3333 68.0239 26.3067 68.2106 26.36C68.3973 26.3867 68.5439 26.48 68.6506 26.64C68.8906 27.0133 68.8239 27.32 68.4506 27.56C67.4106 28.2 66.0506 28.8 64.3706 29.36C63.9439 29.52 63.4906 29.6667 63.0106 29.8C62.6106 29.9333 62.1573 30.08 61.6506 30.24C61.1439 30.4 60.6239 30.5467 60.0906 30.68C59.1839 32.4933 58.2239 34.28 57.2106 36.04C56.7839 36.8133 56.3173 37.6 55.8106 38.4C55.3306 39.2267 54.8239 40.0533 54.2906 40.88C53.7839 41.7067 53.2639 42.52 52.7306 43.32C52.1973 44.12 51.6639 44.8667 51.1306 45.56C49.3706 47.8533 47.6373 49.8933 45.9306 51.68C44.2239 53.4667 42.4906 55 40.7306 56.28C39.2639 57.3733 37.7973 58.2533 36.3306 58.92C34.8906 59.5867 33.4373 60.0667 31.9706 60.36ZM56.4106 1.6C55.7173 1.44 55.0639 1.36 54.4506 1.36C53.8373 1.33333 53.2906 1.34667 52.8106 1.4C52.2506 1.48 51.7173 1.58667 51.2106 1.72C50.4106 1.96 49.7973 2.26667 49.3706 2.64C48.9706 3.01333 48.6906 3.38667 48.5306 3.76C48.3173 4.18667 48.2239 4.61333 48.2506 5.04C48.2506 5.81333 48.5706 6.46667 49.2106 7C49.8506 7.50667 50.5573 7.92 51.3306 8.24C52.2106 8.61333 53.2373 8.92 54.4106 9.16C56.0906 9.48 57.7973 9.64 59.5306 9.64C59.9839 9.64 60.4506 9.64 60.9306 9.64C61.4106 9.61333 61.8506 9.57333 62.2506 9.52C62.7306 9.46667 63.1839 9.41333 63.6106 9.36C63.4773 8.64 63.3173 8.01333 63.1306 7.48C62.9706 6.94667 62.7973 6.49333 62.6106 6.12C62.3973 5.69333 62.1839 5.33333 61.9706 5.04C61.5973 4.45333 61.1573 3.96 60.6506 3.56C60.1706 3.16 59.6773 2.84 59.1706 2.6C58.6906 2.33333 58.1973 2.12 57.6906 1.96C57.2106 1.8 56.7839 1.68 56.4106 1.6ZM20.0106 51.44C19.8506 52 19.7573 52.56 19.7306 53.12C19.7039 53.6 19.7439 54.12 19.8506 54.68C19.9573 55.24 20.2106 55.7467 20.6106 56.2C20.9573 56.6533 21.3573 57.0133 21.8106 57.28C22.2906 57.5733 22.7839 57.8133 23.2906 58C23.8239 58.1867 24.3573 58.32 24.8906 58.4C25.4506 58.48 25.9839 58.52 26.4906 58.52C27.6906 58.5467 28.9306 58.4267 30.2106 58.16C32.2373 57.68 34.2239 56.7733 36.1706 55.44C38.1439 54.1333 40.0106 52.6133 41.7706 50.88C43.5306 49.1467 45.1706 47.3067 46.6906 45.36C48.2106 43.4133 49.5573 41.5467 50.7306 39.76C51.9306 38 52.9306 36.4267 53.7306 35.04C54.5573 33.6533 55.1306 32.6533 55.4506 32.04C52.9173 32.8133 50.2239 33.6533 47.3706 34.56C44.5173 35.44 41.7173 36.4 38.9706 37.44C36.2239 38.5067 33.6506 39.64 31.2506 40.84C28.8506 42.04 26.8373 43.32 25.2106 44.68C23.5839 46.04 22.3839 47.28 21.6106 48.4C20.8373 49.5467 20.3039 50.56 20.0106 51.44ZM66.3706 13.16C66.7173 12.6267 67.0506 12.12 67.3706 11.64C67.7173 11.16 68.0506 10.6933 68.3706 10.24C67.6773 10.4533 66.9973 10.6133 66.3306 10.72C66.3573 10.9867 66.3706 11.3333 66.3706 11.76C66.3973 12.16 66.3973 12.6267 66.3706 13.16Z" fill="#3F6D97"/>
<path d="M74.6334 26.96C75.1134 26.16 75.5267 25.5067 75.8734 25C76.2467 24.4667 76.5534 24.0533 76.7934 23.76C77.0867 23.4133 77.3267 23.1333 77.5134 22.92C77.7534 22.6533 78.0067 22.44 78.2734 22.28C78.4867 22.1467 78.7267 22.04 78.9934 21.96C79.2601 21.88 79.5267 21.8933 79.7934 22C80.1134 22.1333 80.3001 22.36 80.3534 22.68C80.4334 23 80.4201 23.3733 80.3134 23.8C80.2334 24.2 80.0734 24.64 79.8334 25.12C79.6201 25.6 79.3667 26.08 79.0734 26.56C78.8067 26.96 78.4467 27.5467 77.9934 28.32C77.5667 29.0667 77.1401 29.8667 76.7134 30.72C76.3134 31.5733 75.9667 32.4267 75.6734 33.28C75.3801 34.1067 75.2601 34.7867 75.3134 35.32C75.3401 35.5067 75.4067 35.6933 75.5134 35.88C75.6201 36.0667 75.8334 36.08 76.1534 35.92C76.4734 35.76 76.8201 35.4933 77.1934 35.12C77.5667 34.7467 77.9134 34.3733 78.2334 34C78.6067 33.5467 78.9801 33.0533 79.3534 32.52C79.7534 31.9333 80.1401 31.3333 80.5134 30.72C80.8867 30.1067 81.2334 29.5333 81.5534 29C81.8734 28.4667 82.1534 28 82.3934 27.6C82.6601 27.1733 82.8867 26.8533 83.0734 26.64C83.1001 26.6133 83.1401 26.6 83.1934 26.6C83.3267 26.6 83.4601 26.6267 83.5934 26.68C83.7001 26.7067 83.7401 26.8133 83.7134 27C83.6867 27.0533 83.6201 27.2267 83.5134 27.52C83.4334 27.7867 83.2867 28.1333 83.0734 28.56C82.5401 29.7067 81.9401 30.8133 81.2734 31.88C80.7134 32.7867 80.0467 33.7067 79.2734 34.64C78.5267 35.5467 77.7267 36.2667 76.8734 36.8C76.8467 36.8267 76.7134 36.8933 76.4734 37C76.2334 37.1067 75.9401 37.1867 75.5934 37.24C75.2467 37.2933 74.8601 37.28 74.4334 37.2C74.0334 37.12 73.6334 36.92 73.2334 36.6C72.8067 36.2267 72.5667 35.64 72.5134 34.84C72.4601 34.0133 72.5267 33.1067 72.7134 32.12C72.3134 32.76 71.9001 33.3867 71.4734 34C71.0734 34.5867 70.6601 35.12 70.2334 35.6C69.8067 36.08 69.3934 36.48 68.9934 36.8C68.6201 37.0933 68.2601 37.2533 67.9134 37.28C67.5934 37.3333 67.3267 37.3333 67.1134 37.28C66.9001 37.2533 66.6867 37.1867 66.4734 37.08C65.8867 36.7867 65.5001 36.32 65.3134 35.68C65.1267 35.04 65.0201 34.44 64.9934 33.88C64.9667 33.5867 64.9667 33.2933 64.9934 33C65.0201 32.68 65.0601 32.4 65.1134 32.16C65.1667 31.8667 65.2067 31.6 65.2334 31.36C65.5534 29.92 65.9801 28.5333 66.5134 27.2C67.0467 25.8667 67.6734 24.56 68.3934 23.28C68.5534 23.0133 68.7401 22.72 68.9534 22.4C69.1934 22.08 69.4601 21.8 69.7534 21.56C70.0467 21.32 70.3534 21.1467 70.6734 21.04C71.0201 20.9333 71.3801 20.9467 71.7534 21.08C72.1001 21.2133 72.3134 21.44 72.3934 21.76C72.4734 22.0533 72.4734 22.3733 72.3934 22.72C72.3134 23.04 72.1934 23.3733 72.0334 23.72C71.8734 24.04 71.7267 24.3067 71.5934 24.52C70.8467 25.72 70.1801 26.96 69.5934 28.24C69.0067 29.4933 68.5267 30.7867 68.1534 32.12C68.0201 32.6267 67.9134 33.12 67.8334 33.6C67.7801 34.0267 67.7401 34.4667 67.7134 34.92C67.7134 35.3467 67.7801 35.7467 67.9134 36.12C67.9667 36.0933 68.1401 35.9333 68.4334 35.64C68.7534 35.32 69.1801 34.8133 69.7134 34.12C70.2734 33.4267 70.9534 32.5067 71.7534 31.36C72.5801 30.1867 73.5401 28.72 74.6334 26.96Z" fill="#3F6D97"/>
<path d="M84.0481 40.04C83.7014 40.2533 83.3681 40.4 83.0481 40.48C82.7281 40.5867 82.4214 40.64 82.1281 40.64C81.8081 40.6667 81.5014 40.64 81.2081 40.56C80.6481 40.4267 80.2214 40.2 79.9281 39.88C79.6348 39.5867 79.4214 39.2533 79.2881 38.88C79.1814 38.5867 79.1281 38.2933 79.1281 38C79.1014 37.7067 79.1014 37.4533 79.1281 37.24C79.1548 36.9733 79.2081 36.72 79.2881 36.48C79.3681 36.1867 79.5148 35.88 79.7281 35.56C79.9414 35.2133 80.2748 34.8933 80.7281 34.6C81.3681 34.1733 82.2214 33.8667 83.2881 33.68C83.3414 32.9067 83.3414 32.1333 83.2881 31.36C83.2614 30.9333 83.2348 30.52 83.2081 30.12C83.1281 29.3733 83.0481 28.7867 82.9681 28.36C82.9147 28.0933 82.8748 27.8533 82.8481 27.64C82.6881 26.44 82.7281 25.32 82.9681 24.28C83.2348 23.24 83.5814 22.4 84.0081 21.76C84.3014 21.28 84.6481 20.88 85.0481 20.56C85.3681 20.2667 85.7548 20.04 86.2081 19.88C86.6881 19.6933 87.2081 19.68 87.7681 19.84C88.0881 19.92 88.4214 20.12 88.7681 20.44C89.1148 20.7333 89.2881 21.2267 89.2881 21.92C89.2881 22.1333 89.2614 22.44 89.2081 22.84C89.1548 23.2133 88.9948 23.6267 88.7281 24.08C88.5681 24.3733 88.3814 24.6267 88.1681 24.84C87.9548 25.0533 87.7414 25.2267 87.5281 25.36C87.2881 25.4933 87.0881 25.56 86.9281 25.56C86.7681 25.5333 86.6614 25.4667 86.6081 25.36C86.4481 25.1733 86.4214 24.9733 86.5281 24.76C86.5814 24.6533 86.6614 24.56 86.7681 24.48C87.0348 24.2667 87.2748 24.0133 87.4881 23.72C87.7014 23.4267 87.8481 23.0933 87.9281 22.72C88.0614 22.2667 88.1014 21.9333 88.0481 21.72C88.0214 21.48 87.9414 21.3067 87.8081 21.2C87.7014 21.12 87.6081 21.08 87.5281 21.08C87.4481 21.0533 87.3681 21.04 87.2881 21.04C87.1814 21.0667 87.0881 21.0933 87.0081 21.12C86.6348 21.36 86.3548 21.7333 86.1681 22.24C86.0081 22.7467 85.9014 23.3067 85.8481 23.92C85.8214 24.5333 85.8348 25.1467 85.8881 25.76C85.9414 26.3733 86.0081 26.9067 86.0881 27.36C86.1681 27.7867 86.2748 28.4533 86.4081 29.36C86.5414 30.24 86.6348 31.2 86.6881 32.24C87.9148 31.7067 88.8081 31.28 89.3681 30.96C89.9281 30.6133 90.3814 30.3333 90.7281 30.12C90.8881 30.0133 90.9948 30 91.0481 30.08C91.1014 30.1333 91.1281 30.2267 91.1281 30.36C91.1281 30.4933 91.1148 30.6667 91.0881 30.88C90.6348 31.2 90.1681 31.52 89.6881 31.84C89.2614 32.1333 88.7948 32.44 88.2881 32.76C87.7814 33.0533 87.2614 33.3333 86.7281 33.6C86.7014 34.2133 86.6481 34.8133 86.5681 35.4C86.4881 35.9867 86.3681 36.52 86.2081 37C86.0748 37.3733 85.9148 37.7467 85.7281 38.12C85.5414 38.44 85.3148 38.7733 85.0481 39.12C84.7814 39.4667 84.4481 39.7733 84.0481 40.04ZM80.6881 38.12C80.7148 38.2 80.7548 38.28 80.8081 38.36C80.8614 38.4133 80.9281 38.48 81.0081 38.56C81.0614 38.64 81.1414 38.6933 81.2481 38.72C81.4614 38.7733 81.6481 38.72 81.8081 38.56C81.9681 38.4267 82.1148 38.28 82.2481 38.12C82.3814 37.9067 82.5014 37.6267 82.6081 37.28C82.6881 36.9867 82.7548 36.7067 82.8081 36.44C82.8614 36.1733 82.9147 35.9333 82.9681 35.72C83.0214 35.4533 83.0614 35.2133 83.0881 35C82.5014 35.1333 82.0481 35.3333 81.7281 35.6C81.3814 35.84 81.1281 36.08 80.9681 36.32C80.7548 36.6133 80.6214 36.92 80.5681 37.24C80.5681 37.3733 80.5814 37.52 80.6081 37.68C80.6081 37.84 80.6348 37.9867 80.6881 38.12Z" fill="#3F6D97"/>
<path d="M107.33 14C105.437 13.9467 103.384 13.9867 101.17 14.12C100.877 14.5733 100.584 15.0267 100.29 15.48C100.024 15.9067 99.8236 16.2667 99.6903 16.56C99.3169 17.2 98.9569 17.8533 98.6103 18.52C98.3169 19.08 97.9836 19.68 97.6103 20.32C97.2636 20.96 96.9436 21.56 96.6503 22.12C95.7436 23.8533 94.9436 25.5467 94.2503 27.2C93.9569 27.8933 93.6636 28.6133 93.3703 29.36C93.1036 30.1067 92.8503 30.84 92.6103 31.56C92.3969 32.2533 92.2236 32.9333 92.0903 33.6C91.9836 34.24 91.9436 34.8133 91.9703 35.32C91.9703 35.48 92.0236 35.6533 92.1303 35.84C92.2369 36.0267 92.4236 36.0667 92.6903 35.96C93.3036 35.7733 93.9436 35.36 94.6103 34.72C95.3036 34.08 95.9569 33.4133 96.5703 32.72C97.2636 31.8933 97.9569 30.9867 98.6503 30C99.0503 29.4667 99.4236 28.9467 99.7703 28.44C100.117 27.9067 100.437 27.44 100.73 27.04C100.784 26.9333 100.85 26.84 100.93 26.76C101.064 26.6267 101.184 26.5733 101.29 26.6C101.424 26.6533 101.53 26.7467 101.61 26.88C101.69 27.0133 101.664 27.2133 101.53 27.48C101.317 27.9067 101.077 28.3467 100.81 28.8C100.597 29.1733 100.357 29.6 100.09 30.08C99.8236 30.5333 99.5569 30.9733 99.2903 31.4C98.6236 32.36 97.9169 33.24 97.1703 34.04C96.5303 34.7333 95.8103 35.3867 95.0103 36C94.2103 36.6133 93.3969 37 92.5703 37.16C92.1969 37.24 91.7703 37.2667 91.2903 37.24C90.8103 37.2133 90.3303 37 89.8503 36.6C89.5569 36.3333 89.3703 35.9333 89.2903 35.4C89.1836 34.84 89.1569 34.28 89.2103 33.72C89.2369 33.0533 89.3303 32.36 89.4903 31.64C89.6503 30.8667 89.8503 30.1067 90.0903 29.36C90.3036 28.5867 90.5436 27.84 90.8103 27.12C91.1836 25.9733 91.6103 24.8133 92.0903 23.64C92.5969 22.4667 93.1169 21.3333 93.6503 20.24C94.1836 19.1467 94.7169 18.12 95.2503 17.16C95.8103 16.1733 96.3303 15.28 96.8103 14.48C96.0103 14.5333 95.2503 14.6133 94.5303 14.72C93.8903 14.8 93.2236 14.8933 92.5303 15C91.8636 15.08 91.2636 15.1467 90.7303 15.2C90.2503 15.28 89.7303 15.36 89.1703 15.44C88.6903 15.4933 88.1436 15.56 87.5303 15.64C86.9169 15.72 86.2636 15.7867 85.5703 15.84C83.9169 16.0267 82.5036 16.08 81.3303 16C80.1303 15.8933 79.1436 15.7467 78.3703 15.56C77.4636 15.3467 76.7169 15.0933 76.1303 14.8C75.7036 14.56 75.3969 14.3067 75.2103 14.04C74.9969 13.7467 74.8503 13.48 74.7703 13.24C74.6903 12.9733 74.6636 12.7467 74.6903 12.56C74.6903 12.3467 74.7036 12.2 74.7303 12.12C74.7836 11.9067 74.8503 11.72 74.9303 11.56C74.9836 11.4267 75.0636 11.3067 75.1703 11.2C75.2769 11.0667 75.3969 10.9867 75.5303 10.96C75.9569 10.9067 76.2236 11 76.3303 11.24C76.4103 11.48 76.4369 11.8133 76.4103 12.24C76.4103 12.6933 76.6103 13.08 77.0103 13.4C77.3569 13.6933 77.9036 13.96 78.6503 14.2C79.3969 14.44 80.5036 14.56 81.9703 14.56C82.4503 14.56 83.0103 14.5333 83.6503 14.48C84.1836 14.4267 84.8236 14.3733 85.5703 14.32C86.2903 14.24 87.1036 14.1333 88.0103 14C89.5303 13.7867 90.8903 13.6133 92.0903 13.48C93.2903 13.3467 94.3169 13.2267 95.1703 13.12C96.1569 13.0133 97.0369 12.9067 97.8103 12.8C98.2369 12.1333 98.5569 11.6533 98.7703 11.36C99.3036 10.5333 99.7703 9.88 100.17 9.4C100.57 8.89333 100.944 8.46667 101.29 8.12C101.61 7.82667 101.917 7.6 102.21 7.44C102.477 7.30667 102.744 7.22667 103.01 7.2C103.304 7.14667 103.584 7.22667 103.85 7.44C104.064 7.62667 104.184 7.88 104.21 8.2C104.237 8.52 104.184 8.88 104.05 9.28C103.944 9.65333 103.77 10.0667 103.53 10.52C103.29 10.9467 103.024 11.3733 102.73 11.8C102.704 11.8533 102.664 11.92 102.61 12C102.557 12.0533 102.49 12.1333 102.41 12.24C102.357 12.32 102.304 12.4133 102.25 12.52C102.864 12.4933 103.45 12.48 104.01 12.48C104.597 12.4533 105.17 12.4533 105.73 12.48C106.664 12.48 107.584 12.5333 108.49 12.64C109.264 12.72 110.09 12.8533 110.97 13.04C111.877 13.2 112.704 13.4667 113.45 13.84C113.69 13.9733 113.944 14.12 114.21 14.28C114.424 14.4133 114.637 14.6 114.85 14.84C115.09 15.0533 115.304 15.3067 115.49 15.6C115.544 15.76 115.61 15.9467 115.69 16.16C115.744 16.3467 115.784 16.56 115.81 16.8C115.864 17.04 115.864 17.3067 115.81 17.6C115.73 18.2133 115.584 18.6267 115.37 18.84C115.157 19.0533 114.944 19.1467 114.73 19.12C114.517 19.0933 114.424 19 114.45 18.84C114.504 18.6533 114.57 18.4533 114.65 18.24C114.73 17.9467 114.77 17.6933 114.77 17.48C114.797 17.2667 114.797 17.08 114.77 16.92C114.744 16.7333 114.717 16.5733 114.69 16.44C114.557 16.1733 114.37 15.9333 114.13 15.72C113.89 15.5067 113.637 15.3333 113.37 15.2C113.077 15.04 112.757 14.8933 112.41 14.76C111.984 14.6267 111.517 14.5067 111.01 14.4C110.557 14.32 110.024 14.24 109.41 14.16C108.797 14.08 108.104 14.0267 107.33 14Z" fill="#3F6D97"/>
<path d="M147.637 52.2882C147.203 52.494 146.734 52.8942 146.231 53.4887C146.025 52.8256 145.797 52.3111 145.545 51.9453C145.294 51.5565 144.859 51.2707 144.242 51.0878C143.465 50.9049 142.767 51.0078 142.15 51.3965C141.532 51.7623 141.189 52.2539 141.121 52.8713C140.915 53.7631 140.972 54.5519 141.292 55.2379C141.612 55.9239 142.013 56.5755 142.493 57.1929C142.973 57.8103 143.43 58.4276 143.865 59.045C144.299 59.6624 144.551 60.314 144.619 61C144.985 60.3826 145.511 59.8796 146.197 59.4909C146.883 59.0793 147.569 58.6906 148.255 58.3247C148.964 57.936 149.604 57.5016 150.176 57.0214C150.747 56.5412 151.102 55.8896 151.239 55.0664C151.399 54.449 151.285 53.8545 150.896 53.2829C150.507 52.7113 149.958 52.3454 149.249 52.1853C148.632 52.0253 148.095 52.0596 147.637 52.2882Z" fill="#D4AF37"/>
</svg>
