<svg width="232" height="84" viewBox="0 0 232 84" fill="none" xmlns="http://www.w3.org/2000/svg">
<path d="M43.5286 52.0682C43.7619 51.7348 44.0286 51.3848 44.3286 51.0182C44.5952 50.7182 44.8952 50.3848 45.2286 50.0182C45.5619 49.6182 45.9286 49.2348 46.3286 48.8682C47.0286 48.2015 47.6952 47.6348 48.3286 47.1682C48.9952 46.7015 49.5786 46.3015 50.0786 45.9682C50.6786 45.6015 51.2286 45.2849 51.7286 45.0182C52.2619 44.7515 52.7119 44.6349 53.0786 44.6682C53.4786 44.7015 53.8119 44.8015 54.0786 44.9682C54.3786 45.1682 54.6286 45.4348 54.8286 45.7682C55.0286 46.2015 55.0952 46.6182 55.0286 47.0182C54.9619 47.3848 54.7786 47.7515 54.4786 48.1182C54.1786 48.4515 53.6452 48.7515 52.8786 49.0182C52.5786 49.1182 52.2786 49.2182 51.9786 49.3182C51.7119 49.4182 51.4452 49.5182 51.1786 49.6182C50.8119 49.7848 50.3619 50.0015 49.8286 50.2682C49.3286 50.5348 48.8286 50.8682 48.3286 51.2682C47.8952 51.6348 47.4119 52.1182 46.8786 52.7182C46.3452 53.2848 45.8119 53.9848 45.2786 54.8182C44.7452 55.6182 44.2452 56.5682 43.7786 57.6682C43.3452 58.7348 42.9952 59.9515 42.7286 61.3182C42.3286 63.3182 42.1952 65.2682 42.3286 67.1682C42.4619 69.0349 42.8952 70.7515 43.6286 72.3182C44.3952 73.9182 45.4619 75.3182 46.8286 76.5182C48.2286 77.7515 49.9786 78.6849 52.0786 79.3182C52.6786 79.4849 53.2786 79.6015 53.8786 79.6682C54.5119 79.7682 55.0619 79.8515 55.5286 79.9182C56.0952 79.9849 56.6286 80.0349 57.1286 80.0682C59.3286 80.0682 61.4786 79.6348 63.5786 78.7682C65.7119 77.9349 67.7452 76.8515 69.6786 75.5182C71.6119 74.1849 73.4286 72.6849 75.1286 71.0182C76.8619 69.3515 78.4286 67.7015 79.8286 66.0682C81.4619 64.1348 82.9452 62.2348 84.2786 60.3682C85.6119 58.4682 86.7452 56.7682 87.6786 55.2682C88.6452 53.7682 89.3952 52.5515 89.9286 51.6182C90.4619 50.6849 90.7286 50.2015 90.7286 50.1682C90.7286 50.1682 90.8786 49.8848 91.1786 49.3182C91.5119 48.7515 91.9452 48.0182 92.4786 47.1182C93.0452 46.2182 93.6952 45.1849 94.4286 44.0182C95.1619 42.8515 95.9619 41.6682 96.8286 40.4682C97.7952 39.0349 98.7286 37.7515 99.6286 36.6182C100.562 35.4848 101.445 34.4848 102.279 33.6182C104.479 31.3515 106.345 30.1515 107.879 30.0182C108.645 29.9515 109.362 30.0682 110.029 30.3682C110.695 30.6349 111.229 31.0682 111.629 31.6682C111.862 32.0682 112.045 32.5682 112.179 33.1682C112.345 33.7682 112.379 34.5015 112.279 35.3682C112.179 36.2348 111.912 37.2515 111.479 38.4182C111.079 39.5848 110.429 40.9348 109.529 42.4682C108.595 44.0682 107.695 45.7182 106.829 47.4182C106.062 48.9182 105.245 50.5682 104.379 52.3682C103.512 54.1348 102.712 55.9182 101.979 57.7182C102.912 56.0182 103.879 54.3182 104.879 52.6182C105.912 50.8848 106.995 49.1849 108.129 47.5182C110.862 43.4515 113.429 40.3515 115.829 38.2182C118.629 35.6182 121.162 34.3682 123.429 34.4682C123.529 34.4682 123.762 34.4849 124.129 34.5182C124.529 34.5515 124.962 34.6515 125.429 34.8182C125.895 34.9848 126.379 35.2348 126.879 35.5682C127.379 35.8682 127.812 36.3182 128.179 36.9182C129.479 39.1515 128.829 42.5015 126.229 46.9682V47.0182C124.995 49.0515 123.995 50.9682 123.229 52.7682C122.495 54.5348 121.895 56.0015 121.429 57.1682C119.929 60.7015 118.979 64.0182 118.579 67.1182C118.179 70.2182 118.179 72.8682 118.579 75.0682C118.979 77.3015 119.712 78.9849 120.779 80.1182C121.845 81.2849 123.095 81.6849 124.529 81.3182C125.295 81.1182 125.945 80.8182 126.479 80.4182C127.012 80.0515 127.462 79.6349 127.829 79.1682C126.962 78.8349 126.262 78.4015 125.729 77.8682C125.229 77.3682 124.895 76.7849 124.729 76.1182C124.562 75.4182 124.612 74.7849 124.879 74.2182C125.179 73.6515 125.562 73.2182 126.029 72.9182C126.529 72.6182 127.062 72.4682 127.629 72.4682C128.195 72.5015 128.712 72.7349 129.179 73.1682C129.579 73.5349 129.845 73.9349 129.979 74.3682C130.145 74.8015 130.229 75.2182 130.229 75.6182C130.229 76.0182 130.179 76.3682 130.079 76.6682C130.012 77.0015 129.962 77.2349 129.929 77.3682C132.262 77.7682 134.529 77.8349 136.729 77.5682C138.962 77.3015 141.345 76.9182 143.879 76.4182C144.879 76.2182 145.795 76.0515 146.629 75.9182C147.495 75.8182 148.262 75.7349 148.929 75.6682C149.195 75.6349 149.612 75.5849 150.179 75.5182C150.779 75.4849 151.462 75.4515 152.229 75.4182C153.029 75.4182 153.895 75.4349 154.829 75.4682C155.762 75.5015 156.712 75.5849 157.679 75.7182C159.179 75.8849 160.479 76.1682 161.579 76.5682C162.712 76.9682 163.662 77.3682 164.429 77.7682C165.295 78.2349 166.062 78.7515 166.729 79.3182C167.195 79.7515 167.479 80.1515 167.579 80.5182C167.712 80.9182 167.779 81.2515 167.779 81.5182C167.745 81.8515 167.662 82.1515 167.529 82.4182C167.229 82.7849 166.895 83.0349 166.529 83.1682C166.195 83.3015 165.795 83.3182 165.329 83.2182C164.862 83.1515 164.329 82.8349 163.729 82.2682C162.129 80.7682 160.779 79.6349 159.679 78.8682C159.279 78.6015 158.779 78.3349 158.179 78.0682C157.679 77.8349 157.062 77.6182 156.329 77.4182C155.595 77.2182 154.729 77.0682 153.729 76.9682C153.262 76.9349 152.812 76.9182 152.379 76.9182C151.979 76.9182 151.595 76.9182 151.229 76.9182C150.829 76.9182 150.445 76.9349 150.079 76.9682C148.979 77.1015 147.895 77.2849 146.829 77.5182C145.795 77.7849 144.729 78.0682 143.629 78.3682C142.529 78.6682 141.379 78.9515 140.179 79.2182C139.012 79.5182 137.745 79.7349 136.379 79.8682C134.845 80.0349 133.462 80.0849 132.229 80.0182C130.995 79.9515 129.895 79.7849 128.929 79.5182C128.395 80.3515 127.812 80.9849 127.179 81.4182C126.579 81.8515 125.995 82.1682 125.429 82.3682C124.795 82.6015 124.162 82.7349 123.529 82.7682C122.329 82.9015 121.145 82.7349 119.979 82.2682C118.845 81.8349 117.812 81.1015 116.879 80.0682C115.945 79.0682 115.179 77.7515 114.579 76.1182C114.012 74.5182 113.712 72.6182 113.679 70.4182C113.679 68.2515 113.979 65.7849 114.579 63.0182C115.212 60.2515 116.279 57.1848 117.779 53.8182C118.745 51.7182 119.745 49.7848 120.779 48.0182C121.812 46.2515 122.829 44.6682 123.829 43.2682C124.662 42.0682 125.212 41.0515 125.479 40.2182C125.779 39.3848 125.895 38.7182 125.829 38.2182C125.762 37.7515 125.629 37.4015 125.429 37.1682C125.262 36.9015 125.079 36.7015 124.879 36.5682C124.645 36.4348 124.379 36.3348 124.079 36.2682C122.845 36.1015 121.529 36.4848 120.129 37.4182C118.729 38.3182 117.295 39.5848 115.829 41.2182C114.395 42.8182 112.962 44.6682 111.529 46.7682C110.095 48.8682 108.729 51.0182 107.429 53.2182C106.162 55.3848 104.995 57.4848 103.929 59.5182C102.862 61.5515 101.962 63.3015 101.229 64.7682C101.162 64.9349 101.045 65.2182 100.879 65.6182C100.712 66.0182 100.512 66.5015 100.279 67.0682C100.145 67.4015 100.062 67.6515 100.029 67.8182C99.9952 67.9515 99.9619 68.0849 99.9286 68.2182C99.8619 68.4515 99.7619 68.7182 99.6286 69.0182C99.4952 69.3182 99.3119 69.6015 99.0786 69.8682C98.8786 70.1682 98.6286 70.4015 98.3286 70.5682C98.0286 70.7682 97.6786 70.8515 97.2786 70.8182C97.0786 70.8182 96.8952 70.7849 96.7286 70.7182C96.5952 70.6849 96.4786 70.6348 96.3786 70.5682C96.2452 70.5015 96.1452 70.4349 96.0786 70.3682C95.7452 70.1015 95.5452 69.7682 95.4786 69.3682C95.4119 69.0015 95.3786 68.7182 95.3786 68.5182C95.4786 65.9182 95.9619 63.0349 96.8286 59.8682C97.7286 56.6682 99.1619 53.1515 101.129 49.3182C102.262 47.0848 103.379 45.1015 104.479 43.3682C105.579 41.6015 106.629 40.0349 107.629 38.6682C108.329 37.7015 108.845 36.8682 109.179 36.1682C109.545 35.4348 109.779 34.8182 109.879 34.3182C110.012 33.8182 110.045 33.4182 109.979 33.1182C109.912 32.7849 109.812 32.5182 109.679 32.3182C109.379 31.9515 109.045 31.8015 108.679 31.8682C108.312 31.9348 107.945 32.0848 107.579 32.3182C107.179 32.5848 106.762 32.9348 106.329 33.3682C105.662 34.0348 104.862 34.9848 103.929 36.2182C103.029 37.4182 101.929 38.9848 100.629 40.9182C99.3286 42.8182 97.8119 45.1182 96.0786 47.8182C94.3452 50.5182 92.3286 53.6682 90.0286 57.2682C87.8952 60.6348 85.7619 63.5682 83.6286 66.0682C81.5286 68.5349 79.4786 70.6349 77.4786 72.3682C75.5119 74.1349 73.6286 75.5849 71.8286 76.7182C70.0286 77.8515 68.3786 78.7515 66.8786 79.4182C65.4119 80.1182 64.1119 80.6015 62.9786 80.8682C61.8452 81.1682 60.9619 81.3682 60.3286 81.4682C59.7619 81.5682 59.1786 81.6349 58.5786 81.6682C58.0452 81.7349 57.4619 81.7515 56.8286 81.7182C56.1952 81.7182 55.5619 81.6849 54.9286 81.6182C50.0952 81.0182 46.2952 79.3849 43.5286 76.7182C42.2952 75.5182 41.2952 74.1348 40.5286 72.5682C39.8286 71.1348 39.3786 69.5515 39.1786 67.8182C39.0119 66.7182 38.9619 65.6015 39.0286 64.4682C39.0952 63.3015 39.2619 62.1348 39.5286 60.9682C40.0286 58.7015 40.8619 56.5348 42.0286 54.4682C42.4619 53.6348 42.9619 52.8349 43.5286 52.0682ZM127.479 76.6682C127.645 76.7349 127.795 76.8015 127.929 76.8682C128.062 76.9349 128.212 76.9849 128.379 77.0182C128.545 77.0849 128.712 77.1349 128.879 77.1682C128.945 76.9015 128.979 76.6515 128.979 76.4182C128.979 76.1849 128.979 75.9849 128.979 75.8182C128.979 75.6182 128.962 75.4349 128.929 75.2682C128.795 74.7015 128.579 74.3015 128.279 74.0682C128.145 73.9348 127.995 73.8515 127.829 73.8182C127.595 73.7849 127.362 73.8015 127.129 73.8682C126.895 73.9349 126.695 74.0349 126.529 74.1682C126.362 74.3349 126.245 74.5349 126.179 74.7682C126.112 75.0015 126.129 75.2515 126.229 75.5182C126.329 75.7849 126.495 76.0015 126.729 76.1682C126.962 76.3682 127.212 76.5349 127.479 76.6682Z" fill="#3F6D97"/>
<path d="M134.429 64.9682C134.029 65.5682 133.546 66.1515 132.979 66.7182C132.513 67.1849 131.929 67.6515 131.229 68.1182C130.529 68.5849 129.713 68.9182 128.779 69.1182C127.946 69.3182 127.179 69.3015 126.479 69.0682C125.813 68.8682 125.279 68.4349 124.879 67.7682C124.446 67.1015 124.196 66.2015 124.129 65.0682C124.063 63.9348 124.246 62.5515 124.679 60.9182C125.013 59.6515 125.429 58.5015 125.929 57.4682C126.429 56.4015 126.913 55.5015 127.379 54.7682C127.946 53.9015 128.513 53.1515 129.079 52.5182C129.613 51.8515 130.229 51.2348 130.929 50.6682C131.496 50.2015 132.196 49.7682 133.029 49.3682C133.863 48.9682 134.763 48.7348 135.729 48.6682C136.663 48.6015 137.463 48.7515 138.129 49.1182C138.696 49.4182 139.179 49.9515 139.579 50.7182C139.979 51.4515 140.063 52.5515 139.829 54.0182C140.129 53.7515 140.429 53.5849 140.729 53.5182C141.063 53.4182 141.379 53.4515 141.679 53.6182C142.046 53.8515 142.279 54.1682 142.379 54.5682C142.513 54.9682 142.546 55.3848 142.479 55.8182C142.446 56.2515 142.346 56.6849 142.179 57.1182C142.046 57.5182 141.913 57.8515 141.779 58.1182C141.246 59.1849 140.679 60.3348 140.079 61.5682C139.479 62.8015 138.963 63.9682 138.529 65.0682C138.129 66.1682 137.863 67.1515 137.729 68.0182C137.629 68.8515 137.779 69.3849 138.179 69.6182C138.546 69.4515 138.929 69.1848 139.329 68.8182C139.729 68.4515 140.129 68.0349 140.529 67.5682C140.963 67.1015 141.379 66.6015 141.779 66.0682C142.179 65.5349 142.563 65.0015 142.929 64.4682C143.796 63.2015 144.646 61.8349 145.479 60.3682C146.146 59.2348 146.729 58.2348 147.229 57.3682C147.763 56.4682 148.196 55.7848 148.529 55.3182C148.596 55.2515 148.663 55.2015 148.729 55.1682C148.829 55.1015 148.996 55.1182 149.229 55.2182C149.363 55.2849 149.379 55.4848 149.279 55.8182C148.979 56.6515 148.596 57.5849 148.129 58.6182C147.729 59.4848 147.196 60.5015 146.529 61.6682C145.896 62.8349 145.113 64.1015 144.179 65.4682C143.613 66.3015 143.029 67.1015 142.429 67.8682C141.896 68.5349 141.279 69.1848 140.579 69.8182C139.913 70.4515 139.246 70.9182 138.579 71.2182C138.113 71.4182 137.713 71.5349 137.379 71.5682C137.046 71.6015 136.746 71.5849 136.479 71.5182C136.179 71.4515 135.929 71.3349 135.729 71.1682C135.396 70.9349 135.129 70.6682 134.929 70.3682C134.763 70.1015 134.629 69.8349 134.529 69.5682C134.396 69.2682 134.313 68.9515 134.279 68.6182C134.179 68.1515 134.146 67.6015 134.179 66.9682C134.213 66.3349 134.296 65.6682 134.429 64.9682ZM129.229 67.4182C129.429 67.3182 129.629 67.2015 129.829 67.0682C130.063 66.9348 130.263 66.8015 130.429 66.6682C130.629 66.5349 130.829 66.3682 131.029 66.1682C131.696 65.6015 132.329 64.9682 132.929 64.2682C133.529 63.5349 134.063 62.8515 134.529 62.2182C135.063 61.4849 135.563 60.7515 136.029 60.0182C136.229 59.5182 136.463 59.0182 136.729 58.5182C136.996 57.9848 137.263 57.5015 137.529 57.0682C137.829 56.5682 138.113 56.0848 138.379 55.6182C138.413 55.4515 138.446 55.1849 138.479 54.8182C138.513 54.4515 138.513 54.0682 138.479 53.6682C138.446 53.2682 138.363 52.9015 138.229 52.5682C138.129 52.2348 137.946 52.0182 137.679 51.9182C136.946 51.5849 136.029 51.8848 134.929 52.8182C133.863 53.7182 132.713 55.0015 131.479 56.6682C130.879 57.4682 130.296 58.4182 129.729 59.5182C129.196 60.5849 128.729 61.6348 128.329 62.6682C127.963 63.7015 127.679 64.6349 127.479 65.4682C127.313 66.3015 127.313 66.8849 127.479 67.2182C127.646 67.5849 127.896 67.7515 128.229 67.7182C128.596 67.6849 128.929 67.5849 129.229 67.4182Z" fill="#3F6D97"/>
<path d="M159.768 51.7682C159.768 51.6348 159.702 51.5348 159.568 51.4682C159.502 51.4348 159.435 51.4348 159.368 51.4682C159.202 51.4682 158.852 51.6682 158.318 52.0682C157.785 52.4349 157.168 52.9515 156.468 53.6182C155.768 54.2849 155.018 55.0682 154.218 55.9682C153.452 56.8682 152.735 57.8349 152.068 58.8682C151.402 59.9015 150.818 61.0015 150.318 62.1682C149.852 63.3015 149.585 64.4348 149.518 65.5682V65.8682C149.518 66.0349 149.552 66.2849 149.618 66.6182C149.685 66.8849 149.702 67.1849 149.668 67.5182C149.668 67.8182 149.502 68.0349 149.168 68.1682C148.735 68.4015 148.252 68.4015 147.718 68.1682C147.252 67.9349 146.918 67.6515 146.718 67.3182C146.218 66.4182 145.985 65.4015 146.018 64.2682C146.018 63.1015 146.118 62.0349 146.318 61.0682C146.685 59.2682 147.202 57.5348 147.868 55.8682C148.568 54.2015 149.368 52.5682 150.268 50.9682C150.468 50.6348 150.702 50.2682 150.968 49.8682C151.268 49.4682 151.602 49.1182 151.968 48.8182C152.335 48.5182 152.718 48.3015 153.118 48.1682C153.552 48.0348 154.002 48.0515 154.468 48.2182C154.902 48.3848 155.168 48.6682 155.268 49.0682C155.368 49.4348 155.368 49.8349 155.268 50.2682C155.168 50.6682 155.018 51.0848 154.818 51.5182C154.618 51.9182 154.435 52.2515 154.268 52.5182C153.468 53.8182 152.702 55.1849 151.968 56.6182C152.502 55.8182 153.085 55.0182 153.718 54.2182C154.352 53.3848 154.985 52.6349 155.618 51.9682C156.285 51.3015 156.952 50.7348 157.618 50.2682C158.318 49.7682 158.985 49.4682 159.618 49.3682C160.318 49.2348 160.902 49.3015 161.368 49.5682C161.835 49.8348 162.135 50.1682 162.268 50.5682C162.435 51.1682 162.352 51.9015 162.018 52.7682C161.685 53.6015 161.302 54.3015 160.868 54.8682C160.702 55.1015 160.518 55.2848 160.318 55.4182C160.152 55.5515 159.952 55.6515 159.718 55.7182C159.518 55.7515 159.285 55.6848 159.018 55.5182C158.585 55.2848 158.368 55.0015 158.368 54.6682C158.402 54.3015 158.518 53.9349 158.718 53.5682C158.918 53.2015 159.135 52.8682 159.368 52.5682C159.635 52.2348 159.768 51.9682 159.768 51.7682Z" fill="#3F6D97"/>
<path d="M173.88 51.7682C173.88 51.6348 173.813 51.5348 173.68 51.4682C173.613 51.4348 173.546 51.4348 173.48 51.4682C173.313 51.4682 172.963 51.6682 172.43 52.0682C171.896 52.4349 171.28 52.9515 170.58 53.6182C169.88 54.2849 169.13 55.0682 168.33 55.9682C167.563 56.8682 166.846 57.8349 166.18 58.8682C165.513 59.9015 164.93 61.0015 164.43 62.1682C163.963 63.3015 163.696 64.4348 163.63 65.5682V65.8682C163.63 66.0349 163.663 66.2849 163.73 66.6182C163.796 66.8849 163.813 67.1849 163.78 67.5182C163.78 67.8182 163.613 68.0349 163.28 68.1682C162.846 68.4015 162.363 68.4015 161.83 68.1682C161.363 67.9349 161.03 67.6515 160.83 67.3182C160.33 66.4182 160.096 65.4015 160.13 64.2682C160.13 63.1015 160.23 62.0349 160.43 61.0682C160.796 59.2682 161.313 57.5348 161.98 55.8682C162.68 54.2015 163.48 52.5682 164.38 50.9682C164.58 50.6348 164.813 50.2682 165.08 49.8682C165.38 49.4682 165.713 49.1182 166.08 48.8182C166.446 48.5182 166.83 48.3015 167.23 48.1682C167.663 48.0348 168.113 48.0515 168.58 48.2182C169.013 48.3848 169.28 48.6682 169.38 49.0682C169.48 49.4348 169.48 49.8349 169.38 50.2682C169.28 50.6682 169.13 51.0848 168.93 51.5182C168.73 51.9182 168.546 52.2515 168.38 52.5182C167.58 53.8182 166.813 55.1849 166.08 56.6182C166.613 55.8182 167.196 55.0182 167.83 54.2182C168.463 53.3848 169.096 52.6349 169.73 51.9682C170.396 51.3015 171.063 50.7348 171.73 50.2682C172.43 49.7682 173.096 49.4682 173.73 49.3682C174.43 49.2348 175.013 49.3015 175.48 49.5682C175.946 49.8348 176.246 50.1682 176.38 50.5682C176.546 51.1682 176.463 51.9015 176.13 52.7682C175.796 53.6015 175.413 54.3015 174.98 54.8682C174.813 55.1015 174.63 55.2848 174.43 55.4182C174.263 55.5515 174.063 55.6515 173.83 55.7182C173.63 55.7515 173.396 55.6848 173.13 55.5182C172.696 55.2848 172.48 55.0015 172.48 54.6682C172.513 54.3015 172.63 53.9349 172.83 53.5682C173.03 53.2015 173.246 52.8682 173.48 52.5682C173.746 52.2348 173.88 51.9682 173.88 51.7682Z" fill="#3F6D97"/>
<path d="M179.191 67.8682C179.124 67.9015 178.941 67.9849 178.641 68.1182C178.374 68.2515 178.008 68.3682 177.541 68.4682C177.108 68.5349 176.624 68.5182 176.091 68.4182C175.591 68.3182 175.091 68.0682 174.591 67.6682C174.091 67.2349 173.808 66.5349 173.741 65.5682C173.641 64.6015 173.708 63.5349 173.941 62.3682C174.174 61.1682 174.508 59.9682 174.941 58.7682C175.374 57.5348 175.858 56.4682 176.391 55.5682C177.158 54.2682 177.824 53.2348 178.391 52.4682C178.958 51.6682 179.474 51.0349 179.941 50.5682C180.274 50.2348 180.608 49.9682 180.941 49.7682C181.208 49.6015 181.508 49.4682 181.841 49.3682C182.174 49.2682 182.508 49.2848 182.841 49.4182C183.208 49.5848 183.441 49.8682 183.541 50.2682C183.641 50.6682 183.624 51.1348 183.491 51.6682C183.391 52.1682 183.191 52.7182 182.891 53.3182C182.624 53.9182 182.291 54.5182 181.891 55.1182C181.591 55.6182 181.158 56.3515 180.591 57.3182C180.058 58.2515 179.524 59.2515 178.991 60.3182C178.491 61.3848 178.058 62.4515 177.691 63.5182C177.324 64.5515 177.174 65.4015 177.241 66.0682C177.274 66.3015 177.358 66.5349 177.491 66.7682C177.624 67.0015 177.891 67.0015 178.291 66.7682C178.524 66.6682 178.774 66.5015 179.041 66.2682C179.308 66.0349 179.574 65.7849 179.841 65.5182C180.141 65.2182 180.424 64.9015 180.691 64.5682C180.958 64.2682 181.208 63.9515 181.441 63.6182C181.708 63.2849 181.974 62.9348 182.241 62.5682C182.741 61.8349 183.224 61.0849 183.691 60.3182C184.158 59.5515 184.608 58.8349 185.041 58.1682C185.441 57.5015 185.791 56.9182 186.091 56.4182C186.424 55.8848 186.708 55.4848 186.941 55.2182C186.974 55.1849 187.008 55.1682 187.041 55.1682H187.141C187.208 55.1682 187.274 55.1682 187.341 55.1682C187.408 55.1682 187.474 55.1849 187.541 55.2182C187.708 55.3182 187.774 55.4682 187.741 55.6682C187.674 55.8682 187.391 56.5182 186.891 57.6182C186.658 58.1515 186.374 58.7515 186.041 59.4182C185.708 60.0848 185.308 60.8015 184.841 61.5682C184.374 62.3349 183.874 63.0849 183.341 63.8182C182.841 64.5515 182.274 65.2515 181.641 65.9182C181.374 66.1849 181.108 66.4349 180.841 66.6682C180.608 66.8682 180.341 67.0849 180.041 67.3182C179.741 67.5515 179.458 67.7349 179.191 67.8682Z" fill="#3F6D97"/>
<path d="M188.796 67.4682C189.329 67.8015 189.946 67.9349 190.646 67.8682C191.346 67.8015 192.013 67.6682 192.646 67.4682C193.379 67.2349 194.113 66.9182 194.846 66.5182C195.346 66.2182 195.779 65.9182 196.146 65.6182C196.546 65.2849 196.879 65.0015 197.146 64.7682C197.713 64.2015 198.263 63.6015 198.796 62.9682C199.329 62.3349 199.813 61.7515 200.246 61.2182C200.713 60.6182 201.163 60.0015 201.596 59.3682C202.063 58.7015 202.513 58.0515 202.946 57.4182C203.379 56.7515 203.779 56.1682 204.146 55.6682C204.246 55.5348 204.346 55.4182 204.446 55.3182C204.613 55.1515 204.763 55.0849 204.896 55.1182C205.063 55.1849 205.196 55.3015 205.296 55.4682C205.396 55.6348 205.363 55.8848 205.196 56.2182C204.929 56.7515 204.629 57.3015 204.296 57.8682C204.029 58.3349 203.729 58.8682 203.396 59.4682C203.063 60.0349 202.713 60.5849 202.346 61.1182C202.213 61.3182 202.063 61.5348 201.896 61.7682C201.596 62.1682 201.196 62.6682 200.696 63.2682C200.463 63.5682 200.063 64.0182 199.496 64.6182C198.963 65.2182 198.279 65.8515 197.446 66.5182C196.613 67.1849 195.663 67.8182 194.596 68.4182C193.563 68.9849 192.429 69.3682 191.196 69.5682C189.929 69.7682 188.879 69.8015 188.046 69.6682C187.213 69.5349 186.546 69.3349 186.046 69.0682C185.513 68.8015 185.146 68.5515 184.946 68.3182C184.713 68.0515 184.596 67.9182 184.596 67.9182C184.129 67.2515 183.863 66.3515 183.796 65.2182C183.696 64.0849 183.879 62.6515 184.346 60.9182C184.679 59.6515 185.096 58.5015 185.596 57.4682C186.096 56.4015 186.579 55.5015 187.046 54.7682C187.613 53.9015 188.179 53.1515 188.746 52.5182C189.346 51.8182 189.946 51.2348 190.546 50.7682C191.146 50.3015 191.679 49.9348 192.146 49.6682C192.713 49.3349 193.263 49.0849 193.796 48.9182C194.163 48.7848 194.546 48.7015 194.946 48.6682C195.313 48.6348 195.713 48.6515 196.146 48.7182C196.579 48.7849 197.029 48.9348 197.496 49.1682C197.663 49.3015 197.846 49.4348 198.046 49.5682C198.213 49.7015 198.379 49.8682 198.546 50.0682C198.746 50.2682 198.929 50.5015 199.096 50.7682C199.296 51.2015 199.446 51.7182 199.546 52.3182C199.613 52.8182 199.629 53.4182 199.596 54.1182C199.596 54.7848 199.446 55.5348 199.146 56.3682V56.4182C198.846 57.2182 198.396 58.0348 197.796 58.8682C197.229 59.6682 196.496 60.4015 195.596 61.0682C194.796 61.6682 193.996 62.1848 193.196 62.6182C192.396 63.0182 191.646 63.3515 190.946 63.6182C190.246 63.8515 189.613 64.0515 189.046 64.2182C188.479 64.3515 188.013 64.4349 187.646 64.4682C187.579 65.0682 187.613 65.6515 187.746 66.2182C187.879 66.7515 188.229 67.1682 188.796 67.4682ZM197.296 56.2182C197.663 55.3515 197.879 54.6515 197.946 54.1182C198.013 53.5515 197.996 53.1015 197.896 52.7682C197.763 52.4015 197.579 52.1182 197.346 51.9182C196.579 51.5849 195.663 51.8848 194.596 52.8182C193.529 53.7182 192.379 55.0015 191.146 56.6682C190.679 57.3349 190.246 58.0182 189.846 58.7182C189.479 59.3182 189.113 60.0015 188.746 60.7682C188.413 61.5015 188.146 62.2515 187.946 63.0182C188.913 62.7515 189.879 62.3848 190.846 61.9182C191.813 61.4515 192.713 60.9182 193.546 60.3182C194.413 59.7182 195.163 59.0848 195.796 58.4182C196.463 57.7182 196.963 56.9848 197.296 56.2182Z" fill="#3F6D97"/>
<path d="M213.025 62.9682C212.859 63.3349 212.642 63.7015 212.375 64.0682C212.142 64.4015 211.859 64.7849 211.525 65.2182C211.225 65.6182 210.842 66.0349 210.375 66.4682C209.809 67.0349 209.142 67.5682 208.375 68.0682C207.642 68.5682 206.842 68.9182 205.975 69.1182C205.175 69.3182 204.425 69.3015 203.725 69.0682C203.025 68.8682 202.475 68.4349 202.075 67.7682C201.642 67.1015 201.392 66.2015 201.325 65.0682C201.259 63.9348 201.442 62.5515 201.875 60.9182C202.242 59.6515 202.675 58.5015 203.175 57.4682C203.642 56.4015 204.109 55.5015 204.575 54.7682C205.109 53.9015 205.675 53.1515 206.275 52.5182C206.875 51.8182 207.475 51.2348 208.075 50.7682C208.675 50.3015 209.209 49.9348 209.675 49.6682C210.242 49.3349 210.792 49.0849 211.325 48.9182C211.692 48.7848 212.075 48.7015 212.475 48.6682C212.842 48.6348 213.242 48.6515 213.675 48.7182C214.109 48.7849 214.559 48.9348 215.025 49.1682C215.259 49.3015 215.475 49.4515 215.675 49.6182C215.842 49.7848 216.009 49.9848 216.175 50.2182C216.375 50.4182 216.559 50.6682 216.725 50.9682C217.459 49.2348 218.242 47.5682 219.075 45.9682C219.942 44.3349 220.759 42.8515 221.525 41.5182C222.292 40.1848 222.975 39.0515 223.575 38.1182C224.175 37.1515 224.609 36.4682 224.875 36.0682C225.542 35.0349 226.125 34.2182 226.625 33.6182C227.125 32.9848 227.609 32.4515 228.075 32.0182C228.442 31.6848 228.809 31.4182 229.175 31.2182C229.509 31.0515 229.842 30.9348 230.175 30.8682C230.542 30.8015 230.909 30.9015 231.275 31.1682C231.542 31.3682 231.692 31.6682 231.725 32.0682C231.759 32.4682 231.692 32.9182 231.525 33.4182C231.392 33.9182 231.175 34.4515 230.875 35.0182C230.575 35.5515 230.242 36.0848 229.875 36.6182L228.775 38.2682C228.409 38.8015 227.992 39.4349 227.525 40.1682C227.092 40.8682 226.609 41.6682 226.075 42.5682C225.609 43.3682 225.159 44.1848 224.725 45.0182C224.325 45.7182 223.892 46.4682 223.425 47.2682C222.992 48.0682 222.592 48.8182 222.225 49.5182C221.092 51.6848 220.092 53.8015 219.225 55.8682C218.859 56.7348 218.492 57.6348 218.125 58.5682C217.792 59.5015 217.475 60.4182 217.175 61.3182C216.909 62.1848 216.692 63.0349 216.525 63.8682C216.392 64.6682 216.342 65.3848 216.375 66.0182C216.409 66.2182 216.475 66.4349 216.575 66.6682C216.709 66.9015 216.959 66.9515 217.325 66.8182C217.992 66.5515 218.692 66.0515 219.425 65.3182C220.192 64.5515 220.909 63.7515 221.575 62.9182C222.309 61.9515 223.042 60.9015 223.775 59.7682C224.242 59.1015 224.725 58.3515 225.225 57.5182C225.725 56.6848 226.159 56.0182 226.525 55.5182C226.625 55.3848 226.725 55.2682 226.825 55.1682C226.992 55.0015 227.142 54.9348 227.275 54.9682C227.409 55.0349 227.525 55.1515 227.625 55.3182C227.759 55.4848 227.742 55.7348 227.575 56.0682C227.309 56.6015 227.009 57.1515 226.675 57.7182C226.409 58.1849 226.092 58.7182 225.725 59.3182C225.392 59.8848 225.059 60.4349 224.725 60.9682C224.025 62.1682 223.275 63.2849 222.475 64.3182C221.775 65.1848 220.975 66.0182 220.075 66.8182C219.175 67.6182 218.209 68.1182 217.175 68.3182C216.709 68.4182 216.159 68.4515 215.525 68.4182C214.925 68.3849 214.342 68.1182 213.775 67.6182C213.509 67.4182 213.309 67.1348 213.175 66.7682C213.075 66.4015 213.009 66.0015 212.975 65.5682C212.942 65.1348 212.925 64.7015 212.925 64.2682C212.959 63.8015 212.992 63.3682 213.025 62.9682ZM212.875 60.5182C213.209 60.0182 213.542 59.5349 213.875 59.0682C214.175 57.9349 214.525 56.8348 214.925 55.7682C215.059 55.4015 215.175 55.0515 215.275 54.7182C215.409 54.3515 215.542 53.9848 215.675 53.6182C215.642 53.2182 215.559 52.8682 215.425 52.5682C215.325 52.2348 215.142 52.0182 214.875 51.9182C214.142 51.5849 213.242 51.8848 212.175 52.8182C211.109 53.7182 209.959 55.0015 208.725 56.6682C208.125 57.4682 207.542 58.4182 206.975 59.5182C206.442 60.5849 205.975 61.6348 205.575 62.6682C205.175 63.7015 204.892 64.6349 204.725 65.4682C204.559 66.3015 204.542 66.8849 204.675 67.2182C204.842 67.5849 205.109 67.7515 205.475 67.7182C205.842 67.6849 206.159 67.5849 206.425 67.4182C206.892 67.2182 207.325 66.9515 207.725 66.6182C208.125 66.2849 208.492 65.9515 208.825 65.6182C209.192 65.2515 209.559 64.8515 209.925 64.4182C210.492 63.7849 211.009 63.1349 211.475 62.4682C211.975 61.8015 212.442 61.1515 212.875 60.5182Z" fill="#3F6D97"/>
<path d="M13.9706 60.36C13.1973 60.4933 12.3839 60.5733 11.5306 60.6C10.8106 60.6533 9.99726 60.64 9.09059 60.56C8.18392 60.5067 7.30392 60.36 6.45059 60.12C4.02392 59.4267 2.26392 58.2267 1.17059 56.52C0.477255 55.3733 0.0905885 54.0933 0.0105883 52.68C-0.0694119 51.1067 0.30392 49.44 1.13059 47.68C3.07725 43.5467 7.70392 39.9867 15.0106 37C16.5839 36.36 18.2106 35.7733 19.8906 35.24C21.5706 34.68 23.2639 34.16 24.9706 33.68C26.6773 33.1733 28.3839 32.7067 30.0906 32.28C31.7973 31.8533 33.4506 31.44 35.0506 31.04C35.6106 30.9067 36.1573 30.7733 36.6906 30.64C37.2506 30.5067 37.7973 30.3733 38.3306 30.24C38.7839 29.3333 39.2773 28.3733 39.8106 27.36C40.3439 26.3467 40.8906 25.3333 41.4506 24.32C42.0373 23.3067 42.6106 22.32 43.1706 21.36C43.7573 20.3733 44.3039 19.4667 44.8106 18.64C45.2639 17.1467 45.5573 15.7867 45.6906 14.56C45.8239 13.3333 45.8639 12.2133 45.8106 11.2C45.1439 11.3867 44.4373 11.52 43.6906 11.6C42.9439 11.6533 42.2506 11.7067 41.6106 11.76C40.8639 11.8133 40.1173 11.8267 39.3706 11.8C37.1573 11.8 35.2106 11.5733 33.5306 11.12C31.8773 10.64 30.5839 9.96 29.6506 9.08C28.9306 8.38667 28.4506 7.61333 28.2106 6.76C27.9973 5.88 28.0506 4.96 28.3706 4C28.6639 3.2 29.1439 2.50667 29.8106 1.92C30.4773 1.36 31.2506 0.933333 32.1306 0.639999C33.0106 0.32 33.9706 0.12 35.0106 0.0399992C36.0506 -0.0399997 37.1039 5.21541e-07 38.1706 0.16C39.5039 0.373334 40.7439 0.733334 41.8906 1.24C43.0639 1.72 44.0773 2.34667 44.9306 3.12C46.6639 4.66667 47.7173 6.56 48.0906 8.8C48.6506 8.66667 49.2106 8.53333 49.7706 8.4C50.2506 8.26667 50.7706 8.14667 51.3306 8.04C51.8906 7.93333 52.3973 7.82667 52.8506 7.72C54.6373 7.4 56.2906 7.2 57.8106 7.12C59.3306 7.01333 60.7839 7.01333 62.1706 7.12C62.8639 7.2 63.5039 7.30667 64.0906 7.44C64.7039 7.54667 65.2639 7.66667 65.7706 7.8C65.9306 7.85333 66.2239 7.96 66.6506 8.12C67.1039 8.25333 67.5173 8.42667 67.8906 8.64C68.1573 8.77333 68.5173 8.97333 68.9706 9.24C69.4239 9.50667 69.8373 9.82667 70.2106 10.2C70.6106 10.5467 70.9039 10.9467 71.0906 11.4C71.2773 11.8533 71.2506 12.3333 71.0106 12.84C70.9573 12.9733 70.8773 13.0933 70.7706 13.2C70.5839 13.44 70.3573 13.6 70.0906 13.68C69.8773 13.7333 69.6239 13.7333 69.3306 13.68C69.0373 13.6267 68.7039 13.4533 68.3306 13.16C68.1173 12.9733 67.8906 12.7467 67.6506 12.48C67.4106 12.2133 67.1439 11.9333 66.8506 11.64C66.5573 11.3733 66.2373 11.1467 65.8906 10.96C65.5439 10.7733 65.2239 10.6133 64.9306 10.48C64.5839 10.3467 64.2239 10.2133 63.8506 10.08C62.4639 9.65333 60.9573 9.4 59.3306 9.32C57.7039 9.21333 56.2239 9.22667 54.8906 9.36C54.1439 10.48 53.2906 11.7867 52.3306 13.28C51.3706 14.7733 50.3706 16.3733 49.3306 18.08C48.2906 19.7867 47.2239 21.5733 46.1306 23.44C45.0639 25.28 44.0239 27.1333 43.0106 29C44.4506 28.5733 45.7439 28.16 46.8906 27.76C48.0373 27.3333 48.9706 26.8933 49.6906 26.44C49.8506 26.3333 50.0239 26.3067 50.2106 26.36C50.3973 26.3867 50.5439 26.48 50.6506 26.64C50.8906 27.0133 50.8239 27.32 50.4506 27.56C49.4106 28.2 48.0506 28.8 46.3706 29.36C45.9439 29.52 45.4906 29.6667 45.0106 29.8C44.6106 29.9333 44.1573 30.08 43.6506 30.24C43.1439 30.4 42.6239 30.5467 42.0906 30.68C41.1839 32.4933 40.2239 34.28 39.2106 36.04C38.7839 36.8133 38.3173 37.6 37.8106 38.4C37.3306 39.2267 36.8239 40.0533 36.2906 40.88C35.7839 41.7067 35.2639 42.52 34.7306 43.32C34.1973 44.12 33.6639 44.8667 33.1306 45.56C31.3706 47.8533 29.6373 49.8933 27.9306 51.68C26.2239 53.4667 24.4906 55 22.7306 56.28C21.2639 57.3733 19.7973 58.2533 18.3306 58.92C16.8906 59.5867 15.4373 60.0667 13.9706 60.36ZM38.4106 1.6C37.7173 1.44 37.0639 1.36 36.4506 1.36C35.8373 1.33333 35.2906 1.34667 34.8106 1.4C34.2506 1.48 33.7173 1.58667 33.2106 1.72C32.4106 1.96 31.7973 2.26667 31.3706 2.64C30.9706 3.01333 30.6906 3.38667 30.5306 3.76C30.3173 4.18667 30.2239 4.61333 30.2506 5.04C30.2506 5.81333 30.5706 6.46667 31.2106 7C31.8506 7.50667 32.5573 7.92 33.3306 8.24C34.2106 8.61333 35.2373 8.92 36.4106 9.16C38.0906 9.48 39.7973 9.64 41.5306 9.64C41.9839 9.64 42.4506 9.64 42.9306 9.64C43.4106 9.61333 43.8506 9.57333 44.2506 9.52C44.7306 9.46667 45.1839 9.41333 45.6106 9.36C45.4773 8.64 45.3173 8.01333 45.1306 7.48C44.9706 6.94667 44.7973 6.49333 44.6106 6.12C44.3973 5.69333 44.1839 5.33333 43.9706 5.04C43.5973 4.45333 43.1573 3.96 42.6506 3.56C42.1706 3.16 41.6773 2.84 41.1706 2.6C40.6906 2.33333 40.1973 2.12 39.6906 1.96C39.2106 1.8 38.7839 1.68 38.4106 1.6ZM2.01059 51.44C1.85059 52 1.75725 52.56 1.73059 53.12C1.70392 53.6 1.74392 54.12 1.85059 54.68C1.95726 55.24 2.21059 55.7467 2.61059 56.2C2.95725 56.6533 3.35725 57.0133 3.81059 57.28C4.29059 57.5733 4.78392 57.8133 5.29059 58C5.82392 58.1867 6.35725 58.32 6.89059 58.4C7.45059 58.48 7.98392 58.52 8.49059 58.52C9.69059 58.5467 10.9306 58.4267 12.2106 58.16C14.2373 57.68 16.2239 56.7733 18.1706 55.44C20.1439 54.1333 22.0106 52.6133 23.7706 50.88C25.5306 49.1467 27.1706 47.3067 28.6906 45.36C30.2106 43.4133 31.5573 41.5467 32.7306 39.76C33.9306 38 34.9306 36.4267 35.7306 35.04C36.5573 33.6533 37.1306 32.6533 37.4506 32.04C34.9173 32.8133 32.2239 33.6533 29.3706 34.56C26.5173 35.44 23.7173 36.4 20.9706 37.44C18.2239 38.5067 15.6506 39.64 13.2506 40.84C10.8506 42.04 8.83726 43.32 7.21059 44.68C5.58392 46.04 4.38392 47.28 3.61059 48.4C2.83725 49.5467 2.30392 50.56 2.01059 51.44ZM48.3706 13.16C48.7173 12.6267 49.0506 12.12 49.3706 11.64C49.7173 11.16 50.0506 10.6933 50.3706 10.24C49.6773 10.4533 48.9973 10.6133 48.3306 10.72C48.3573 10.9867 48.3706 11.3333 48.3706 11.76C48.3973 12.16 48.3973 12.6267 48.3706 13.16Z" fill="#3F6D97"/>
<path d="M56.6334 26.96C57.1134 26.16 57.5267 25.5067 57.8734 25C58.2467 24.4667 58.5534 24.0533 58.7934 23.76C59.0867 23.4133 59.3267 23.1333 59.5134 22.92C59.7534 22.6533 60.0067 22.44 60.2734 22.28C60.4867 22.1467 60.7267 22.04 60.9934 21.96C61.2601 21.88 61.5267 21.8933 61.7934 22C62.1134 22.1333 62.3001 22.36 62.3534 22.68C62.4334 23 62.4201 23.3733 62.3134 23.8C62.2334 24.2 62.0734 24.64 61.8334 25.12C61.6201 25.6 61.3667 26.08 61.0734 26.56C60.8067 26.96 60.4467 27.5467 59.9934 28.32C59.5667 29.0667 59.1401 29.8667 58.7134 30.72C58.3134 31.5733 57.9667 32.4267 57.6734 33.28C57.3801 34.1067 57.2601 34.7867 57.3134 35.32C57.3401 35.5067 57.4067 35.6933 57.5134 35.88C57.6201 36.0667 57.8334 36.08 58.1534 35.92C58.4734 35.76 58.8201 35.4933 59.1934 35.12C59.5667 34.7467 59.9134 34.3733 60.2334 34C60.6067 33.5467 60.9801 33.0533 61.3534 32.52C61.7534 31.9333 62.1401 31.3333 62.5134 30.72C62.8867 30.1067 63.2334 29.5333 63.5534 29C63.8734 28.4667 64.1534 28 64.3934 27.6C64.6601 27.1733 64.8867 26.8533 65.0734 26.64C65.1001 26.6133 65.1401 26.6 65.1934 26.6C65.3267 26.6 65.4601 26.6267 65.5934 26.68C65.7001 26.7067 65.7401 26.8133 65.7134 27C65.6867 27.0533 65.6201 27.2267 65.5134 27.52C65.4334 27.7867 65.2867 28.1333 65.0734 28.56C64.5401 29.7067 63.9401 30.8133 63.2734 31.88C62.7134 32.7867 62.0467 33.7067 61.2734 34.64C60.5267 35.5467 59.7267 36.2667 58.8734 36.8C58.8467 36.8267 58.7134 36.8933 58.4734 37C58.2334 37.1067 57.9401 37.1867 57.5934 37.24C57.2467 37.2933 56.8601 37.28 56.4334 37.2C56.0334 37.12 55.6334 36.92 55.2334 36.6C54.8067 36.2267 54.5667 35.64 54.5134 34.84C54.4601 34.0133 54.5267 33.1067 54.7134 32.12C54.3134 32.76 53.9001 33.3867 53.4734 34C53.0734 34.5867 52.6601 35.12 52.2334 35.6C51.8067 36.08 51.3934 36.48 50.9934 36.8C50.6201 37.0933 50.2601 37.2533 49.9134 37.28C49.5934 37.3333 49.3267 37.3333 49.1134 37.28C48.9001 37.2533 48.6867 37.1867 48.4734 37.08C47.8867 36.7867 47.5001 36.32 47.3134 35.68C47.1267 35.04 47.0201 34.44 46.9934 33.88C46.9667 33.5867 46.9667 33.2933 46.9934 33C47.0201 32.68 47.0601 32.4 47.1134 32.16C47.1667 31.8667 47.2067 31.6 47.2334 31.36C47.5534 29.92 47.9801 28.5333 48.5134 27.2C49.0467 25.8667 49.6734 24.56 50.3934 23.28C50.5534 23.0133 50.7401 22.72 50.9534 22.4C51.1934 22.08 51.4601 21.8 51.7534 21.56C52.0467 21.32 52.3534 21.1467 52.6734 21.04C53.0201 20.9333 53.3801 20.9467 53.7534 21.08C54.1001 21.2133 54.3134 21.44 54.3934 21.76C54.4734 22.0533 54.4734 22.3733 54.3934 22.72C54.3134 23.04 54.1934 23.3733 54.0334 23.72C53.8734 24.04 53.7267 24.3067 53.5934 24.52C52.8467 25.72 52.1801 26.96 51.5934 28.24C51.0067 29.4933 50.5267 30.7867 50.1534 32.12C50.0201 32.6267 49.9134 33.12 49.8334 33.6C49.7801 34.0267 49.7401 34.4667 49.7134 34.92C49.7134 35.3467 49.7801 35.7467 49.9134 36.12C49.9667 36.0933 50.1401 35.9333 50.4334 35.64C50.7534 35.32 51.1801 34.8133 51.7134 34.12C52.2734 33.4267 52.9534 32.5067 53.7534 31.36C54.5801 30.1867 55.5401 28.72 56.6334 26.96Z" fill="#3F6D97"/>
<path d="M66.0481 40.04C65.7014 40.2533 65.3681 40.4 65.0481 40.48C64.7281 40.5867 64.4214 40.64 64.1281 40.64C63.8081 40.6667 63.5014 40.64 63.2081 40.56C62.6481 40.4267 62.2214 40.2 61.9281 39.88C61.6348 39.5867 61.4214 39.2533 61.2881 38.88C61.1814 38.5867 61.1281 38.2933 61.1281 38C61.1014 37.7067 61.1014 37.4533 61.1281 37.24C61.1548 36.9733 61.2081 36.72 61.2881 36.48C61.3681 36.1867 61.5148 35.88 61.7281 35.56C61.9414 35.2133 62.2748 34.8933 62.7281 34.6C63.3681 34.1733 64.2214 33.8667 65.2881 33.68C65.3414 32.9067 65.3414 32.1333 65.2881 31.36C65.2614 30.9333 65.2348 30.52 65.2081 30.12C65.1281 29.3733 65.0481 28.7867 64.9681 28.36C64.9147 28.0933 64.8748 27.8533 64.8481 27.64C64.6881 26.44 64.7281 25.32 64.9681 24.28C65.2348 23.24 65.5814 22.4 66.0081 21.76C66.3014 21.28 66.6481 20.88 67.0481 20.56C67.3681 20.2667 67.7548 20.04 68.2081 19.88C68.6881 19.6933 69.2081 19.68 69.7681 19.84C70.0881 19.92 70.4214 20.12 70.7681 20.44C71.1148 20.7333 71.2881 21.2267 71.2881 21.92C71.2881 22.1333 71.2614 22.44 71.2081 22.84C71.1548 23.2133 70.9948 23.6267 70.7281 24.08C70.5681 24.3733 70.3814 24.6267 70.1681 24.84C69.9548 25.0533 69.7414 25.2267 69.5281 25.36C69.2881 25.4933 69.0881 25.56 68.9281 25.56C68.7681 25.5333 68.6614 25.4667 68.6081 25.36C68.4481 25.1733 68.4214 24.9733 68.5281 24.76C68.5814 24.6533 68.6614 24.56 68.7681 24.48C69.0348 24.2667 69.2748 24.0133 69.4881 23.72C69.7014 23.4267 69.8481 23.0933 69.9281 22.72C70.0614 22.2667 70.1014 21.9333 70.0481 21.72C70.0214 21.48 69.9414 21.3067 69.8081 21.2C69.7014 21.12 69.6081 21.08 69.5281 21.08C69.4481 21.0533 69.3681 21.04 69.2881 21.04C69.1814 21.0667 69.0881 21.0933 69.0081 21.12C68.6348 21.36 68.3548 21.7333 68.1681 22.24C68.0081 22.7467 67.9014 23.3067 67.8481 23.92C67.8214 24.5333 67.8348 25.1467 67.8881 25.76C67.9414 26.3733 68.0081 26.9067 68.0881 27.36C68.1681 27.7867 68.2748 28.4533 68.4081 29.36C68.5414 30.24 68.6348 31.2 68.6881 32.24C69.9148 31.7067 70.8081 31.28 71.3681 30.96C71.9281 30.6133 72.3814 30.3333 72.7281 30.12C72.8881 30.0133 72.9948 30 73.0481 30.08C73.1014 30.1333 73.1281 30.2267 73.1281 30.36C73.1281 30.4933 73.1148 30.6667 73.0881 30.88C72.6348 31.2 72.1681 31.52 71.6881 31.84C71.2614 32.1333 70.7948 32.44 70.2881 32.76C69.7814 33.0533 69.2614 33.3333 68.7281 33.6C68.7014 34.2133 68.6481 34.8133 68.5681 35.4C68.4881 35.9867 68.3681 36.52 68.2081 37C68.0748 37.3733 67.9148 37.7467 67.7281 38.12C67.5414 38.44 67.3148 38.7733 67.0481 39.12C66.7814 39.4667 66.4481 39.7733 66.0481 40.04ZM62.6881 38.12C62.7148 38.2 62.7548 38.28 62.8081 38.36C62.8614 38.4133 62.9281 38.48 63.0081 38.56C63.0614 38.64 63.1414 38.6933 63.2481 38.72C63.4614 38.7733 63.6481 38.72 63.8081 38.56C63.9681 38.4267 64.1148 38.28 64.2481 38.12C64.3814 37.9067 64.5014 37.6267 64.6081 37.28C64.6881 36.9867 64.7548 36.7067 64.8081 36.44C64.8614 36.1733 64.9147 35.9333 64.9681 35.72C65.0214 35.4533 65.0614 35.2133 65.0881 35C64.5014 35.1333 64.0481 35.3333 63.7281 35.6C63.3814 35.84 63.1281 36.08 62.9681 36.32C62.7548 36.6133 62.6214 36.92 62.5681 37.24C62.5681 37.3733 62.5814 37.52 62.6081 37.68C62.6081 37.84 62.6348 37.9867 62.6881 38.12Z" fill="#3F6D97"/>
<path d="M89.3303 14C87.4369 13.9467 85.3836 13.9867 83.1703 14.12C82.8769 14.5733 82.5836 15.0267 82.2903 15.48C82.0236 15.9067 81.8236 16.2667 81.6903 16.56C81.3169 17.2 80.9569 17.8533 80.6103 18.52C80.3169 19.08 79.9836 19.68 79.6103 20.32C79.2636 20.96 78.9436 21.56 78.6503 22.12C77.7436 23.8533 76.9436 25.5467 76.2503 27.2C75.9569 27.8933 75.6636 28.6133 75.3703 29.36C75.1036 30.1067 74.8503 30.84 74.6103 31.56C74.3969 32.2533 74.2236 32.9333 74.0903 33.6C73.9836 34.24 73.9436 34.8133 73.9703 35.32C73.9703 35.48 74.0236 35.6533 74.1303 35.84C74.2369 36.0267 74.4236 36.0667 74.6903 35.96C75.3036 35.7733 75.9436 35.36 76.6103 34.72C77.3036 34.08 77.9569 33.4133 78.5703 32.72C79.2636 31.8933 79.9569 30.9867 80.6503 30C81.0503 29.4667 81.4236 28.9467 81.7703 28.44C82.1169 27.9067 82.4369 27.44 82.7303 27.04C82.7836 26.9333 82.8503 26.84 82.9303 26.76C83.0636 26.6267 83.1836 26.5733 83.2903 26.6C83.4236 26.6533 83.5303 26.7467 83.6103 26.88C83.6903 27.0133 83.6636 27.2133 83.5303 27.48C83.3169 27.9067 83.077 28.3467 82.8103 28.8C82.5969 29.1733 82.3569 29.6 82.0903 30.08C81.8236 30.5333 81.5569 30.9733 81.2903 31.4C80.6236 32.36 79.9169 33.24 79.1703 34.04C78.5303 34.7333 77.8103 35.3867 77.0103 36C76.2103 36.6133 75.3969 37 74.5703 37.16C74.1969 37.24 73.7703 37.2667 73.2903 37.24C72.8103 37.2133 72.3303 37 71.8503 36.6C71.5569 36.3333 71.3703 35.9333 71.2903 35.4C71.1836 34.84 71.1569 34.28 71.2103 33.72C71.2369 33.0533 71.3303 32.36 71.4903 31.64C71.6503 30.8667 71.8503 30.1067 72.0903 29.36C72.3036 28.5867 72.5436 27.84 72.8103 27.12C73.1836 25.9733 73.6103 24.8133 74.0903 23.64C74.5969 22.4667 75.1169 21.3333 75.6503 20.24C76.1836 19.1467 76.7169 18.12 77.2503 17.16C77.8103 16.1733 78.3303 15.28 78.8103 14.48C78.0103 14.5333 77.2503 14.6133 76.5303 14.72C75.8903 14.8 75.2236 14.8933 74.5303 15C73.8636 15.08 73.2636 15.1467 72.7303 15.2C72.2503 15.28 71.7303 15.36 71.1703 15.44C70.6903 15.4933 70.1436 15.56 69.5303 15.64C68.9169 15.72 68.2636 15.7867 67.5703 15.84C65.9169 16.0267 64.5036 16.08 63.3303 16C62.1303 15.8933 61.1436 15.7467 60.3703 15.56C59.4636 15.3467 58.7169 15.0933 58.1303 14.8C57.7036 14.56 57.3969 14.3067 57.2103 14.04C56.9969 13.7467 56.8503 13.48 56.7703 13.24C56.6903 12.9733 56.6636 12.7467 56.6903 12.56C56.6903 12.3467 56.7036 12.2 56.7303 12.12C56.7836 11.9067 56.8503 11.72 56.9303 11.56C56.9836 11.4267 57.0636 11.3067 57.1703 11.2C57.2769 11.0667 57.3969 10.9867 57.5303 10.96C57.9569 10.9067 58.2236 11 58.3303 11.24C58.4103 11.48 58.4369 11.8133 58.4103 12.24C58.4103 12.6933 58.6103 13.08 59.0103 13.4C59.3569 13.6933 59.9036 13.96 60.6503 14.2C61.3969 14.44 62.5036 14.56 63.9703 14.56C64.4503 14.56 65.0103 14.5333 65.6503 14.48C66.1836 14.4267 66.8236 14.3733 67.5703 14.32C68.2903 14.24 69.1036 14.1333 70.0103 14C71.5303 13.7867 72.8903 13.6133 74.0903 13.48C75.2903 13.3467 76.3169 13.2267 77.1703 13.12C78.1569 13.0133 79.0369 12.9067 79.8103 12.8C80.2369 12.1333 80.5569 11.6533 80.7703 11.36C81.3036 10.5333 81.7703 9.88 82.1703 9.4C82.5703 8.89333 82.9436 8.46667 83.2903 8.12C83.6103 7.82667 83.9169 7.6 84.2103 7.44C84.4769 7.30667 84.7436 7.22667 85.0103 7.2C85.3036 7.14667 85.5836 7.22667 85.8503 7.44C86.0636 7.62667 86.1836 7.88 86.2103 8.2C86.2369 8.52 86.1836 8.88 86.0503 9.28C85.9436 9.65333 85.7703 10.0667 85.5303 10.52C85.2903 10.9467 85.0236 11.3733 84.7303 11.8C84.7036 11.8533 84.6636 11.92 84.6103 12C84.5569 12.0533 84.4903 12.1333 84.4103 12.24C84.3569 12.32 84.3036 12.4133 84.2503 12.52C84.8636 12.4933 85.4503 12.48 86.0103 12.48C86.5969 12.4533 87.1703 12.4533 87.7303 12.48C88.6636 12.48 89.5836 12.5333 90.4903 12.64C91.2636 12.72 92.0903 12.8533 92.9703 13.04C93.8769 13.2 94.7036 13.4667 95.4503 13.84C95.6903 13.9733 95.9436 14.12 96.2103 14.28C96.4236 14.4133 96.6369 14.6 96.8503 14.84C97.0903 15.0533 97.3036 15.3067 97.4903 15.6C97.5436 15.76 97.6103 15.9467 97.6903 16.16C97.7436 16.3467 97.7836 16.56 97.8103 16.8C97.8636 17.04 97.8636 17.3067 97.8103 17.6C97.7303 18.2133 97.5836 18.6267 97.3703 18.84C97.1569 19.0533 96.9436 19.1467 96.7303 19.12C96.5169 19.0933 96.4236 19 96.4503 18.84C96.5036 18.6533 96.5703 18.4533 96.6503 18.24C96.7303 17.9467 96.7703 17.6933 96.7703 17.48C96.7969 17.2667 96.7969 17.08 96.7703 16.92C96.7436 16.7333 96.7169 16.5733 96.6903 16.44C96.5569 16.1733 96.3703 15.9333 96.1303 15.72C95.8903 15.5067 95.6369 15.3333 95.3703 15.2C95.0769 15.04 94.7569 14.8933 94.4103 14.76C93.9836 14.6267 93.5169 14.5067 93.0103 14.4C92.5569 14.32 92.0236 14.24 91.4103 14.16C90.7969 14.08 90.1036 14.0267 89.3303 14Z" fill="#3F6D97"/>
<path d="M186.637 38.2882C186.203 38.494 185.734 38.8942 185.231 39.4887C185.025 38.8256 184.797 38.3111 184.545 37.9453C184.294 37.5565 183.859 37.2707 183.242 37.0878C182.465 36.9049 181.767 37.0078 181.15 37.3965C180.532 37.7623 180.189 38.2539 180.121 38.8713C179.915 39.7631 179.972 40.5519 180.292 41.2379C180.612 41.9239 181.013 42.5755 181.493 43.1929C181.973 43.8103 182.43 44.4276 182.865 45.045C183.299 45.6624 183.551 46.314 183.619 47C183.985 46.3826 184.511 45.8796 185.197 45.4909C185.883 45.0793 186.569 44.6906 187.255 44.3247C187.964 43.936 188.604 43.5016 189.176 43.0214C189.747 42.5412 190.102 41.8896 190.239 41.0664C190.399 40.449 190.285 39.8545 189.896 39.2829C189.507 38.7113 188.958 38.3454 188.249 38.1853C187.632 38.0253 187.095 38.0596 186.637 38.2882Z" fill="#D4AF37"/>
</svg>
