<svg width="185" height="123" viewBox="0 0 185 123" fill="none" xmlns="http://www.w3.org/2000/svg">
<path d="M184.747 0.0714264C181.47 6.47176 177.706 12.625 173.484 18.4694C169.328 24.2177 164.78 29.8596 159.594 34.7568C154.388 39.6711 148.104 43.5182 141 45.1106C137.397 45.917 133.654 46.1092 129.992 45.5841C126.501 45.0831 122.811 43.9952 119.877 42.0219C117.374 40.3335 115.655 37.8591 113.561 35.7486C111.485 33.6586 108.967 32.0628 105.977 31.6373C103.071 31.222 100.116 31.8981 97.5326 33.2193C94.6476 34.6916 92.4349 37.0046 90.4672 39.4995C86.0628 45.0831 81.9594 50.9515 78.1221 56.9229C74.2323 62.98 70.6716 69.2534 67.6606 75.7772C62.5489 86.8448 58.2705 98.6194 56.1522 110.617C55.6656 113.359 55.312 116.129 55.2034 118.912C55.1614 120 55.0424 121.324 55.7006 122.278C56.2538 123.081 57.2096 123.181 58.0429 122.742C59.3943 122.031 60.4517 120.528 61.348 119.354C62.3248 118.078 63.1931 116.726 63.9914 115.336C65.4934 112.731 66.7888 110.013 68.1122 107.319C70.7696 101.917 73.357 96.478 75.7378 90.9527C77.9645 85.7776 80.1213 80.4891 81.4692 75.0154C83.1883 68.0419 83.9235 60.7562 83.1078 53.6077C82.7191 50.1999 81.9979 46.7819 80.804 43.5559C79.9497 41.2429 78.6578 38.7926 76.4415 37.4782C73.7281 35.8687 70.5036 36.8948 67.9652 38.3362C65.2203 39.8942 62.8605 42.142 60.7458 44.4379C56.5584 48.9816 53.2953 54.3387 51.1666 60.0939C50.1092 62.9526 49.325 65.9108 48.8418 68.9171C48.6002 70.4133 48.4392 71.9233 48.3516 73.4368C48.2956 74.3839 48.1066 75.7292 49.1709 76.2234C50.1197 76.6661 51.2961 76.0003 52.0314 75.4375C53.1903 74.5521 54.2651 73.5226 55.284 72.4896C57.4792 70.2555 59.3978 67.764 60.9944 65.0872C62.5419 62.4927 63.7638 59.7301 64.6706 56.8577C64.6951 56.7787 64.6041 56.6758 64.5201 56.6929C61.9992 57.17 60.2941 59.0815 58.7851 60.9758C56.6599 63.6458 54.5697 66.3398 52.462 69.0234C52.5495 69.0406 52.6371 69.0543 52.7246 69.0715C51.8983 67.0158 51.5202 64.8675 51.5902 62.6609C51.5937 62.5922 51.5272 62.5373 51.4642 62.5236C48.9818 61.9608 47.4623 64.3047 45.8378 65.6809C44.7349 66.6177 43.0439 67.5581 41.7029 66.4667C40.7996 65.7323 40.579 64.4488 40.2464 63.4056C39.6722 61.6073 38.4118 59.7335 36.7137 58.776C35.4393 58.0588 33.8218 58.2029 32.4248 58.4294C28.9201 59.0025 25.5905 60.5469 22.4675 62.1461C18.5602 64.1468 14.8174 66.4564 11.1587 68.8621C7.41243 71.3262 3.76071 73.9206 0.0739746 76.4705C-0.111588 76.5975 0.0879974 76.8823 0.277054 76.7553C7.44395 71.7895 14.5933 66.6795 22.3659 62.6471C25.7411 60.8969 29.4663 59.0918 33.3176 58.704C34.0704 58.6285 34.8826 58.5804 35.6249 58.7555C37.0463 59.0918 38.0827 60.341 38.874 61.4632C39.5567 62.4344 39.8438 63.4948 40.2079 64.5998C40.4915 65.4578 40.8556 66.3466 41.6399 66.882C43.8947 68.4194 46.1424 65.8421 47.5849 64.442C48.2396 63.8071 49.0169 63.1241 49.9202 62.8565C50.3683 62.7261 51.0475 62.5373 51.2716 63.0246C51.3977 63.2992 51.2786 63.9238 51.2961 64.2395C51.4012 65.9348 51.7968 67.5889 52.4305 69.1676C52.4725 69.2671 52.6196 69.3083 52.6931 69.2156C54.9794 66.3054 57.1991 63.3335 59.5589 60.4817C60.6302 59.1844 61.8592 57.8906 63.4732 57.2557C63.6097 57.2008 63.8793 57.0739 64.0124 57.0773C64.3205 57.0842 64.1769 57.0498 64.2505 57.2283C64.331 57.4205 63.9213 58.1926 63.8233 58.4672C63.5327 59.2634 63.2141 60.0527 62.8675 60.8283C61.5721 63.7419 59.9125 66.4942 57.9378 69.0131C56.9785 70.2383 55.9457 71.4086 54.8428 72.5102C53.7329 73.6221 52.5285 74.933 51.1141 75.6743C50.0497 76.2337 48.7158 76.2405 48.6002 74.7305C48.5372 73.8863 48.6527 73.0078 48.7227 72.167C48.8523 70.6089 49.0659 69.0543 49.36 67.5169C49.9447 64.4523 50.848 61.446 52.0419 58.5564C54.3947 52.8527 57.8713 47.5986 62.2898 43.2231C64.7406 40.7968 67.5591 38.4048 70.9342 37.3512C72.7303 36.7918 74.6524 36.7712 76.3015 37.7527C77.5724 38.5078 78.5177 39.6952 79.246 40.9443C80.937 43.8408 81.7528 47.3241 82.341 50.5809C82.9782 54.1328 83.2023 57.7465 83.0868 61.3499C82.8767 67.8978 81.5883 74.3908 79.4595 80.5921C77.5024 86.2992 75.0796 91.8519 72.5517 97.3325C70.1709 102.49 67.7201 107.635 65.0977 112.68C63.5152 115.72 61.7471 118.709 59.3698 121.221C58.6696 121.963 57.7103 123.009 56.5409 122.618C55.6901 122.333 55.522 121.098 55.48 120.357C55.4065 118.949 55.5571 117.505 55.6901 116.105C56.2573 110.147 57.6753 104.268 59.3803 98.5336C61.1659 92.5245 63.3226 86.6184 65.763 80.8357C71.1198 68.1689 78.3812 56.4905 86.5144 45.3611C90.4007 40.0418 94.336 33.8096 101.289 32.2035C104.664 31.4245 108.201 32.0319 111.026 34.0292C113.428 35.728 115.115 38.1268 117.16 40.1859C121.589 44.6473 128.546 46.3357 134.736 46.219C141.353 46.0955 147.802 43.779 153.285 40.2134C159.118 36.4178 163.817 31.1499 168.183 25.8512C172.538 20.5662 176.502 14.9689 180.031 9.11769C181.792 6.19722 183.441 3.21497 184.985 0.181244C185.062 0.0336761 184.824 -0.0795746 184.747 0.0714264Z" fill="#3F6D97"/>
</svg>
